<svg width="20" height="19" viewBox="0 0 20 19" fill="none" xmlns="http://www.w3.org/2000/svg">
<path d="M4.40152 0.545898C3.44573 0.548981 2.52998 0.930091 1.85421 1.60602C1.17844 2.28195 0.797539 3.19779 0.794678 4.15358V15.3472C0.797541 16.3031 1.17858 17.219 1.85456 17.8948C2.53053 18.5706 3.4465 18.9514 4.40236 18.9541H15.596C16.5518 18.9514 17.4677 18.5706 18.1435 17.8947C18.8194 17.2189 19.2002 16.303 19.2029 15.3472V4.15358C19.2002 3.19772 18.8194 2.28175 18.1436 1.60578C17.4678 0.929802 16.5519 0.548762 15.596 0.545898H4.40152ZM5.30887 3.58346C5.50881 3.56813 5.70975 3.59443 5.899 3.66071C6.08826 3.727 6.2617 3.83181 6.40838 3.96854C6.55506 4.10527 6.67179 4.27094 6.75118 4.45508C6.83057 4.63922 6.8709 4.83783 6.86963 5.03835C6.86836 5.23887 6.8255 5.43694 6.74378 5.62006C6.66205 5.80317 6.54323 5.96734 6.39482 6.1022C6.24642 6.23705 6.07165 6.33966 5.88157 6.40353C5.69149 6.4674 5.49023 6.49115 5.2905 6.47328H5.27297C5.07393 6.48566 4.87448 6.45683 4.68709 6.38858C4.49971 6.32033 4.32843 6.21414 4.18397 6.07666C4.03951 5.93917 3.92499 5.77334 3.84757 5.58956C3.77014 5.40577 3.73149 5.20799 3.73403 5.00858C3.73656 4.80917 3.78023 4.61243 3.8623 4.43067C3.94436 4.24891 4.06306 4.08605 4.21097 3.95228C4.35887 3.81851 4.5328 3.7167 4.72186 3.65324C4.91092 3.58978 5.11021 3.56602 5.30887 3.58346ZM13.5059 7.42319C15.3356 7.42319 16.7062 8.61852 16.7062 11.1886V15.9808H13.9266V11.5067C13.9266 10.3823 13.5242 9.61518 12.5184 9.61518C12.2049 9.61714 11.8996 9.71585 11.6442 9.89782C11.3889 10.0798 11.196 10.3361 11.0918 10.6319C11.0203 10.8506 10.9892 11.0806 11 11.3105V15.985H8.21788C8.21788 15.985 8.25461 8.40483 8.21788 7.62019H10.9984V8.80216C11.2498 8.36525 11.6162 8.00558 12.0577 7.76219C12.4991 7.51879 12.9988 7.40098 13.5025 7.42153L13.5059 7.42319ZM3.90069 7.61685H6.68032V15.9808H3.90069V7.61685Z" fill="#252525"/>
</svg>
