<svg width="21" height="18" viewBox="0 0 21 18" fill="none" xmlns="http://www.w3.org/2000/svg">
<path d="M21 2.20129C20.4215 3.0645 19.6933 3.8173 18.8498 4.42416C18.8581 4.59111 18.8623 4.77669 18.8623 4.98092C18.8553 7.38773 18.146 9.74016 16.8214 11.7497C16.1382 12.797 15.3084 13.741 14.3573 14.5527C13.3386 15.4042 12.1739 16.0641 10.9199 16.5001C9.53893 16.9915 8.0826 17.2373 6.61687 17.2263C4.27547 17.2397 1.98146 16.5668 0.0183716 15.2906C0.359255 15.3293 0.702015 15.3491 1.04508 15.3499C2.98624 15.3684 4.87445 14.7172 6.39149 13.506C5.48711 13.4981 4.60975 13.1967 3.89149 12.647C3.17271 12.1153 2.64087 11.3696 2.37229 10.5168C3.01698 10.643 3.682 10.6198 4.31637 10.4492C3.34346 10.262 2.4682 9.73657 1.84558 8.9659C1.19982 8.20065 0.851337 7.22839 0.863948 6.22717V6.17375C1.46108 6.50761 2.13002 6.69231 2.81386 6.71214C2.22898 6.32356 1.74879 5.79693 1.4157 5.17875C1.07204 4.55161 0.894196 3.84712 0.899006 3.13201C0.895834 2.37167 1.09768 1.62454 1.48331 0.969237C2.55642 2.28899 3.8925 3.37092 5.40652 4.1462C6.94068 4.93852 8.62819 5.3893 10.3531 5.46757C10.2773 5.14646 10.2394 4.81754 10.2404 4.4876C10.2317 3.9212 10.3391 3.35902 10.556 2.83573C10.7729 2.31244 11.0948 1.83914 11.5017 1.44503C11.9095 1.03686 12.3953 0.714822 12.9301 0.498047C13.4648 0.281272 14.0377 0.174182 14.6147 0.183136C15.1916 0.19209 15.7609 0.316906 16.2887 0.550171C16.8165 0.783436 17.292 1.12039 17.687 1.54102C18.6506 1.35139 19.5744 0.997605 20.4182 0.495114C20.1111 1.49929 19.4357 2.35027 18.5276 2.87742C19.3808 2.77678 20.2142 2.54887 21 2.20129Z" fill="#D92626"/>
</svg>
