<svg width="62" height="21" viewBox="0 0 62 21" fill="none" xmlns="http://www.w3.org/2000/svg">
<g clip-path="url(#clip0_465_3396)">
<path d="M0 21C0.463788 20.1681 0.924584 19.3363 1.38987 18.5074L8.6893 5.48285L11.6276 0.237674L11.7638 0C11.7982 0.0653604 11.8236 0.108439 11.8446 0.148546L20.7598 19.6646C20.9592 20.1072 21.1587 20.5529 21.3582 21.0015H17.3427C17.3279 20.9451 17.3099 20.8895 17.2888 20.8351C15.5204 16.962 13.7516 13.0869 11.9822 9.20988L11.3703 7.87296C11.306 7.97843 11.2566 8.05716 11.2117 8.13886C8.9177 12.2278 6.62369 16.3188 4.32969 20.4118C4.22047 20.6064 4.12472 20.8084 4.02299 21.0059L0 21Z" fill="white"/>
<path d="M24.2716 20.9998C24.122 20.6745 23.9918 20.3462 23.8422 20.0239C22.391 16.9114 20.9393 13.8018 19.4871 10.6952C19.4677 10.6521 19.4512 10.6105 19.4213 10.5466H19.6517C20.7214 10.5466 21.7941 10.5674 22.8638 10.5303C24.4317 10.4768 25.856 9.18001 26.1058 7.63661C26.2688 6.72235 26.0616 5.78117 25.5292 5.01783C24.9969 4.25449 24.1825 3.73073 23.2633 3.5605C23.0164 3.51698 22.7659 3.49709 22.5152 3.50108C20.5055 3.50108 18.4952 3.50108 16.4845 3.50108C16.4188 3.51018 16.352 3.49633 16.2955 3.46192C16.239 3.4275 16.1963 3.37465 16.1748 3.31243C15.7544 2.39441 15.319 1.48234 14.8896 0.568775C14.8597 0.506386 14.8328 0.441025 14.7969 0.357839C14.8732 0.357839 14.93 0.347441 14.9869 0.347441C17.5123 0.347441 20.0362 0.347441 22.5616 0.347441C24.1419 0.333253 25.6768 0.872521 26.8964 1.87049C28.116 2.86845 28.9424 4.26127 29.2303 5.80419C29.5182 7.34712 29.2493 8.94144 28.4708 10.307C27.6922 11.6726 26.4538 12.722 24.9733 13.271L24.7908 13.3438C25.9637 15.9097 27.1331 18.4671 28.2991 21.0162L24.2716 20.9998Z" fill="white"/>
<path d="M46.0307 21C46.02 20.9296 46.013 20.8587 46.0098 20.7875C46.0098 16.8738 46.0098 12.9621 46.0098 9.05238C46.0098 8.99445 46.0172 8.93652 46.0217 8.8667H61.3836V12.5031H49.6931V21H46.0307Z" fill="white"/>
<path d="M30.6278 21C30.3475 20.3781 30.0673 19.7562 29.787 19.1342C29.5386 18.5876 29.2873 18.0424 29.0389 17.5002C29.0165 17.4542 29 17.4052 28.9746 17.3428H43.9355V20.8247C43.9355 20.8841 43.9355 20.9435 43.9445 21.003L30.6278 21Z" fill="white"/>
<path d="M61.3542 0.347656V3.99298H61.1597C51.1858 3.99298 41.2118 3.99298 31.2379 3.99298C31.1808 4.00146 31.1226 3.98806 31.0751 3.95552C31.0276 3.92297 30.9943 3.8737 30.982 3.8177C30.5125 2.55516 29.7676 1.41129 28.8007 0.467979C28.7678 0.435299 28.7364 0.401133 28.6855 0.347656H61.3542Z" fill="white"/>
<path d="M43.9307 8.85633V12.4957H29.7402C29.7601 12.4569 29.7821 12.4192 29.8061 12.3828C30.5457 11.3713 31.0677 10.2195 31.3396 8.99894C31.3665 8.88159 31.4069 8.85039 31.5266 8.85039C35.6159 8.85039 39.7082 8.85039 43.8035 8.85039C43.8349 8.84891 43.8738 8.85336 43.9307 8.85633Z" fill="white"/>
</g>
<defs>
<clipPath id="clip0_465_3396">
<rect width="61.3846" height="21" fill="white"/>
</clipPath>
</defs>
</svg>
