<svg width="20" height="20" viewBox="0 0 20 20" fill="none" xmlns="http://www.w3.org/2000/svg">
<path d="M18.3333 13.9501V3.89174C18.3333 2.89174 17.5166 2.15008 16.525 2.23341H16.475C14.725 2.38341 12.0666 3.27508 10.5833 4.20841L10.4416 4.30008C10.2 4.45008 9.79996 4.45008 9.55829 4.30008L9.34996 4.17508C7.86663 3.25008 5.21663 2.36674 3.46663 2.22508C2.47496 2.14174 1.66663 2.89174 1.66663 3.88341V13.9501C1.66663 14.7501 2.31663 15.5001 3.11663 15.6001L3.35829 15.6334C5.16663 15.8751 7.95829 16.7917 9.55829 17.6667L9.59162 17.6834C9.81662 17.8084 10.175 17.8084 10.3916 17.6834C11.9916 16.8001 14.7916 15.8751 16.6083 15.6334L16.8833 15.6001C17.6833 15.5001 18.3333 14.7501 18.3333 13.9501Z" stroke="#7E8285" stroke-linecap="round" stroke-linejoin="round"/>
<path d="M10 4.57495V17.075" stroke="#7E8285" stroke-linecap="round" stroke-linejoin="round"/>
<path d="M6.45837 7.07495H4.58337" stroke="#7E8285" stroke-linecap="round" stroke-linejoin="round"/>
<path d="M7.08337 9.57495H4.58337" stroke="#7E8285" stroke-linecap="round" stroke-linejoin="round"/>
</svg>
