<svg width="44" height="44" viewBox="0 0 44 44" fill="none" xmlns="http://www.w3.org/2000/svg">
<path d="M5.81055 13.6401L21.9989 23.0084L38.0772 13.6951" stroke="#292D32" stroke-width="2" stroke-linecap="round" stroke-linejoin="round"/>
<path d="M21.998 39.6183V22.99" stroke="#292D32" stroke-width="2" stroke-linecap="round" stroke-linejoin="round"/>
<path d="M39.6175 16.8118V27.1885C39.6175 27.2801 39.6175 27.3534 39.5992 27.4451C38.3158 26.3267 36.6658 25.6668 34.8325 25.6668C33.1092 25.6668 31.5142 26.2718 30.2492 27.2801C28.5625 28.6185 27.4992 30.6901 27.4992 33.0001C27.4992 34.3751 27.8841 35.6768 28.5625 36.7768C28.7275 37.0701 28.9292 37.3451 29.1492 37.6018L25.7942 39.4535C23.7042 40.6268 20.2942 40.6268 18.2042 39.4535L8.41416 34.0268C6.19583 32.7984 4.38086 29.7185 4.38086 27.1885V16.8118C4.38086 14.2818 6.19583 11.2018 8.41416 9.97345L18.2042 4.54675C20.2942 3.37341 23.7042 3.37341 25.7942 4.54675L35.5842 9.97345C37.8025 11.2018 39.6175 14.2818 39.6175 16.8118Z" stroke="#292D32" stroke-width="2" stroke-linecap="round" stroke-linejoin="round"/>
<path d="M42.1667 33.0001C42.1667 34.3751 41.7817 35.6767 41.1034 36.7767C40.7184 37.4367 40.2233 38.0234 39.655 38.5001C38.3717 39.6551 36.685 40.3334 34.8333 40.3334C32.1567 40.3334 29.8283 38.9034 28.5633 36.7767C27.885 35.6767 27.5 34.3751 27.5 33.0001C27.5 30.6901 28.5633 28.6184 30.25 27.2801C31.515 26.2718 33.11 25.6667 34.8333 25.6667C38.885 25.6667 42.1667 28.9484 42.1667 33.0001Z" stroke="#292D32" stroke-width="2" stroke-miterlimit="10" stroke-linecap="round" stroke-linejoin="round"/>
<path d="M36.7949 34.9066L32.9082 31.0383" stroke="#292D32" stroke-width="2" stroke-miterlimit="10" stroke-linecap="round" stroke-linejoin="round"/>
<path d="M36.7578 31.0933L32.8711 34.9616" stroke="#292D32" stroke-width="2" stroke-miterlimit="10" stroke-linecap="round" stroke-linejoin="round"/>
</svg>
