<svg width="44" height="44" viewBox="0 0 44 44" fill="none" xmlns="http://www.w3.org/2000/svg">
<path d="M42.1668 32.835C42.2035 34.21 41.8368 35.5117 41.1768 36.63C40.8101 37.29 40.3152 37.895 39.7652 38.39C38.5002 39.5634 36.8318 40.2784 34.9801 40.3334C32.3035 40.3884 29.9385 39.0134 28.6368 36.9051C27.9401 35.8234 27.5185 34.5217 27.5002 33.1467C27.4452 30.8367 28.4718 28.7467 30.1218 27.3717C31.3685 26.345 32.9452 25.7034 34.6685 25.6667C38.7202 25.575 42.0752 28.7833 42.1668 32.835Z" stroke="#292D32" stroke-width="2" stroke-miterlimit="10" stroke-linecap="round" stroke-linejoin="round"/>
<path d="M31.9727 33.055L33.8243 34.8149L37.656 31.1116" stroke="#292D32" stroke-width="2" stroke-linecap="round" stroke-linejoin="round"/>
<path d="M5.81055 13.6401L21.9989 23.0084L38.0772 13.6951" stroke="#292D32" stroke-width="2" stroke-linecap="round" stroke-linejoin="round"/>
<path d="M21.998 39.6183V22.99" stroke="#292D32" stroke-width="2" stroke-linecap="round" stroke-linejoin="round"/>
<path d="M39.6175 16.8118V27.1885C39.6175 27.2801 39.6175 27.3534 39.5992 27.4451C38.3158 26.3267 36.6658 25.6668 34.8325 25.6668C33.1092 25.6668 31.5142 26.2718 30.2492 27.2801C28.5625 28.6185 27.4992 30.6901 27.4992 33.0001C27.4992 34.3751 27.8841 35.6768 28.5625 36.7768C28.7275 37.0701 28.9292 37.3451 29.1492 37.6018L25.7942 39.4535C23.7042 40.6268 20.2942 40.6268 18.2042 39.4535L8.41416 34.0268C6.19583 32.7984 4.38086 29.7185 4.38086 27.1885V16.8118C4.38086 14.2818 6.19583 11.2018 8.41416 9.97345L18.2042 4.54675C20.2942 3.37341 23.7042 3.37341 25.7942 4.54675L35.5842 9.97345C37.8025 11.2018 39.6175 14.2818 39.6175 16.8118Z" stroke="#292D32" stroke-width="2" stroke-linecap="round" stroke-linejoin="round"/>
</svg>
