<svg width="20" height="20" viewBox="0 0 20 20" fill="none" xmlns="http://www.w3.org/2000/svg">
<path d="M18.3077 15.2751C18.3077 15.5751 18.241 15.8834 18.0993 16.1834C17.9577 16.4834 17.7744 16.7667 17.5327 17.0334C17.1244 17.4834 16.6743 17.8084 16.166 18.0167C15.666 18.2251 15.1244 18.3334 14.541 18.3334C13.691 18.3334 12.7827 18.1334 11.8243 17.7251C10.866 17.3167 9.90768 16.7667 8.95768 16.0751C7.99935 15.3751 7.09102 14.6001 6.22435 13.7417C5.36602 12.8751 4.59102 11.9667 3.89935 11.0167C3.21602 10.0667 2.66602 9.11675 2.26602 8.17508C1.86602 7.22508 1.66602 6.31675 1.66602 5.45008C1.66602 4.88341 1.76602 4.34175 1.96602 3.84175C2.16602 3.33341 2.48268 2.86675 2.92435 2.45008C3.45768 1.92508 4.04102 1.66675 4.65768 1.66675C4.89102 1.66675 5.12435 1.71675 5.33268 1.81675C5.54935 1.91675 5.74102 2.06675 5.89102 2.28341L7.82435 5.00841C7.97435 5.21675 8.08268 5.40841 8.15768 5.59175C8.23268 5.76675 8.27435 5.94175 8.27435 6.10008C8.27435 6.30008 8.21602 6.50008 8.09935 6.69175C7.99102 6.88341 7.83268 7.08341 7.63268 7.28341L6.99935 7.94175C6.90768 8.03341 6.86602 8.14175 6.86602 8.27508C6.86602 8.34175 6.87435 8.40008 6.89102 8.46675C6.91602 8.53341 6.94102 8.58341 6.95768 8.63341C7.10768 8.90841 7.36602 9.26675 7.73268 9.70008C8.10768 10.1334 8.50768 10.5751 8.94102 11.0167C9.39102 11.4584 9.82435 11.8667 10.266 12.2417C10.6993 12.6084 11.0577 12.8584 11.341 13.0084C11.3827 13.0251 11.4327 13.0501 11.491 13.0751C11.5577 13.1001 11.6243 13.1084 11.6993 13.1084C11.841 13.1084 11.9493 13.0584 12.041 12.9667L12.6743 12.3417C12.8827 12.1334 13.0827 11.9751 13.2743 11.8751C13.466 11.7584 13.6577 11.7001 13.866 11.7001C14.0243 11.7001 14.191 11.7334 14.3743 11.8084C14.5577 11.8834 14.7494 11.9917 14.9577 12.1334L17.716 14.0917C17.9327 14.2417 18.0827 14.4167 18.1743 14.6251C18.2577 14.8334 18.3077 15.0417 18.3077 15.2751Z" stroke="#121212" stroke-width="1.5" stroke-miterlimit="10"/>
<path d="M13.5 6.5H17.5M13.5 6.5V2.5V6.5Z" stroke="#121212" stroke-width="1.5" stroke-linecap="round" stroke-linejoin="round"/>
</svg>
