<svg width="42" height="42" viewBox="0 0 42 42" fill="none" xmlns="http://www.w3.org/2000/svg">
<path d="M21.0001 24.5H22.7501C24.6751 24.5 26.2501 22.925 26.2501 21V3.5H10.5001C7.87506 3.5 5.58258 4.95248 4.39258 7.08748" stroke="#D92626" stroke-width="2" stroke-linecap="round" stroke-linejoin="round"/>
<path d="M3.5 29.75C3.5 32.655 5.845 35 8.75 35H10.5C10.5 33.075 12.075 31.5 14 31.5C15.925 31.5 17.5 33.075 17.5 35H24.5C24.5 33.075 26.075 31.5 28 31.5C29.925 31.5 31.5 33.075 31.5 35H33.25C36.155 35 38.5 32.655 38.5 29.75V24.5H33.25C32.2875 24.5 31.5 23.7125 31.5 22.75V17.5C31.5 16.5375 32.2875 15.75 33.25 15.75H35.5075L32.515 10.5175C31.885 9.43252 30.73 8.75 29.47 8.75H26.25V21C26.25 22.925 24.675 24.5 22.75 24.5H21" stroke="#D92626" stroke-width="2" stroke-linecap="round" stroke-linejoin="round"/>
<path d="M14 38.5C15.933 38.5 17.5 36.933 17.5 35C17.5 33.067 15.933 31.5 14 31.5C12.067 31.5 10.5 33.067 10.5 35C10.5 36.933 12.067 38.5 14 38.5Z" stroke="#D92626" stroke-width="2" stroke-linecap="round" stroke-linejoin="round"/>
<path d="M28 38.5C29.933 38.5 31.5 36.933 31.5 35C31.5 33.067 29.933 31.5 28 31.5C26.067 31.5 24.5 33.067 24.5 35C24.5 36.933 26.067 38.5 28 38.5Z" stroke="#D92626" stroke-width="2" stroke-linecap="round" stroke-linejoin="round"/>
<path d="M38.5 21V24.5H33.25C32.2875 24.5 31.5 23.7125 31.5 22.75V17.5C31.5 16.5375 32.2875 15.75 33.25 15.75H35.5075L38.5 21Z" stroke="#D92626" stroke-width="2" stroke-linecap="round" stroke-linejoin="round"/>
<path d="M3.5 14H14" stroke="#D92626" stroke-width="2" stroke-linecap="round" stroke-linejoin="round"/>
<path d="M3.5 19.25H10.5" stroke="#D92626" stroke-width="2" stroke-linecap="round" stroke-linejoin="round"/>
<path d="M3.5 24.5H7" stroke="#D92626" stroke-width="2" stroke-linecap="round" stroke-linejoin="round"/>
</svg>
