<svg width="44" height="44" viewBox="0 0 44 44" fill="none" xmlns="http://www.w3.org/2000/svg">
<path d="M40.3333 27.5C40.3333 34.595 34.595 40.3333 27.5 40.3333L29.425 37.125" stroke="#292D32" stroke-width="2" stroke-linecap="round" stroke-linejoin="round"/>
<path d="M3.66602 16.5001C3.66602 9.40508 9.40435 3.66675 16.4993 3.66675L14.5743 6.87508" stroke="#292D32" stroke-width="2" stroke-linecap="round" stroke-linejoin="round"/>
<path d="M25.1172 8.15845L32.4138 12.3751L39.6372 8.1768" stroke="#292D32" stroke-width="2" stroke-linecap="round" stroke-linejoin="round"/>
<path d="M32.4141 19.8367V12.3567" stroke="#292D32" stroke-width="2" stroke-linecap="round" stroke-linejoin="round"/>
<path d="M30.6896 4.05175L26.2896 6.49C25.2996 7.04 24.4746 8.43332 24.4746 9.56999V14.2267C24.4746 15.3634 25.2813 16.7567 26.2896 17.3067L30.6896 19.7451C31.6246 20.2767 33.1646 20.2767 34.1179 19.7451L38.5179 17.3067C39.5079 16.7567 40.3329 15.3634 40.3329 14.2267V9.56999C40.3329 8.43332 39.5263 7.04 38.5179 6.49L34.1179 4.05175C33.1829 3.53841 31.6429 3.53841 30.6896 4.05175Z" stroke="#292D32" stroke-width="2" stroke-linecap="round" stroke-linejoin="round"/>
<path d="M4.30859 28.325L11.5869 32.5416L18.8286 28.3433" stroke="#292D32" stroke-width="2" stroke-linecap="round" stroke-linejoin="round"/>
<path d="M11.5879 40.0032V32.5232" stroke="#292D32" stroke-width="2" stroke-linecap="round" stroke-linejoin="round"/>
<path d="M9.88101 24.2183L5.48103 26.6565C4.49103 27.2065 3.66602 28.5998 3.66602 29.7365V34.3932C3.66602 35.5299 4.47269 36.9232 5.48103 37.4732L9.88101 39.9116C10.816 40.4432 12.356 40.4432 13.3093 39.9116L17.7094 37.4732C18.6994 36.9232 19.5243 35.5299 19.5243 34.3932V29.7365C19.5243 28.5998 18.7177 27.2065 17.7094 26.6565L13.3093 24.2183C12.356 23.7049 10.816 23.7049 9.88101 24.2183Z" stroke="#292D32" stroke-width="2" stroke-linecap="round" stroke-linejoin="round"/>
</svg>
