<svg width="267" height="200" viewBox="0 0 267 200" fill="none" xmlns="http://www.w3.org/2000/svg">
<g filter="url(#filter0_f_312_535)">
<path fill-rule="evenodd" clip-rule="evenodd" d="M186.667 181.333L177.334 184H81.7879H30.667L81.7879 181.333H186.667Z" fill="url(#paint0_linear_312_535)"/>
</g>
<path fill-rule="evenodd" clip-rule="evenodd" d="M162.4 79.7332C162.4 76.8613 164.728 74.5332 167.6 74.5332H210.934C213.806 74.5332 216.134 76.8613 216.134 79.7332C216.134 82.6051 213.806 84.9332 210.934 84.9332H167.6C164.728 84.9332 162.4 82.6051 162.4 79.7332Z" fill="url(#paint1_linear_312_535)"/>
<path fill-rule="evenodd" clip-rule="evenodd" d="M197.067 69.3333H101.733L107.543 134.695C108.179 141.849 114.173 147.333 121.356 147.333H177.444C184.627 147.333 190.62 141.849 191.256 134.695L197.067 69.3333ZM122.533 126.967V91.8666C122.533 88.9947 124.862 86.6666 127.733 86.6666C130.605 86.6666 132.933 88.9947 132.933 91.8666V126.967C132.933 129.838 130.605 132.167 127.733 132.167C124.862 132.167 122.533 129.838 122.533 126.967ZM145.067 91.8666V126.967C145.067 129.838 147.395 132.167 150.267 132.167C153.139 132.167 155.467 129.838 155.467 126.967V91.8666C155.467 88.9947 153.139 86.6666 150.267 86.6666C147.395 86.6666 145.067 88.9947 145.067 91.8666ZM167.6 126.967V91.8666C167.6 88.9947 169.928 86.6666 172.8 86.6666C175.672 86.6666 178 88.9947 178 91.8666V126.967C178 129.838 175.672 132.167 172.8 132.167C169.928 132.167 167.6 129.838 167.6 126.967Z" fill="url(#paint2_linear_312_535)"/>
<path fill-rule="evenodd" clip-rule="evenodd" d="M56.667 69.3333H117.334L127.734 147.333H77.7449C70.6791 147.333 64.7434 142.02 63.9631 134.997L56.667 69.3333ZM103.393 126.527L99.9266 90.9941C99.4447 88.1629 96.759 86.2585 93.9278 86.7403C91.0966 87.2222 89.1922 89.9079 89.6741 92.7391L93.1407 128.272C93.6226 131.104 96.3083 133.008 99.1395 132.526C101.971 132.044 103.875 129.359 103.393 126.527ZM79.1266 90.9941L82.5933 126.527C83.0751 129.359 81.1707 132.044 78.3395 132.526C75.5083 133.008 72.8226 131.104 72.3407 128.272L68.8741 92.7391C68.3922 89.9079 70.2966 87.2222 73.1278 86.7403C75.959 86.2585 78.6447 88.1629 79.1266 90.9941Z" fill="url(#paint3_linear_312_535)"/>
<path fill-rule="evenodd" clip-rule="evenodd" d="M53.2002 69.3333H113.867L124.267 147.333H74.2781C67.2123 147.333 61.2766 142.02 60.4962 134.997L53.2002 69.3333ZM99.9265 126.527L96.4598 90.9941C95.9779 88.1629 93.2921 86.2585 90.461 86.7403C87.6298 87.2222 85.7254 89.9079 86.2073 92.7391L89.6739 128.272C90.1558 131.104 92.8415 133.008 95.6727 132.526C98.5039 132.044 100.408 129.359 99.9265 126.527ZM75.6598 90.9941L79.1265 126.527C79.6083 129.359 77.7039 132.044 74.8727 132.526C72.0415 133.008 69.3558 131.104 68.8739 128.272L65.4073 92.7391C64.9254 89.9079 66.8298 87.2222 69.661 86.7403C72.4921 86.2585 75.1779 88.1629 75.6598 90.9941Z" fill="url(#paint4_linear_312_535)"/>
<path fill-rule="evenodd" clip-rule="evenodd" d="M200.533 69.3333H105.2L111.01 134.695C111.646 141.849 117.64 147.333 124.822 147.333H180.912C188.094 147.333 194.088 141.849 194.724 134.695L200.533 69.3333ZM126 126.967V91.8666C126 88.9947 128.328 86.6666 131.2 86.6666C134.072 86.6666 136.4 88.9947 136.4 91.8666V126.967C136.4 129.838 134.072 132.167 131.2 132.167C128.328 132.167 126 129.838 126 126.967ZM148.533 91.8666V126.967C148.533 129.838 150.861 132.167 153.733 132.167C156.605 132.167 158.933 129.838 158.933 126.967V91.8666C158.933 88.9947 156.605 86.6666 153.733 86.6666C150.861 86.6666 148.533 88.9947 148.533 91.8666ZM171.066 126.967V91.8666C171.066 88.9947 173.394 86.6666 176.266 86.6666C179.138 86.6666 181.466 88.9947 181.466 91.8666V126.967C181.466 129.838 179.138 132.167 176.266 132.167C173.394 132.167 171.066 129.838 171.066 126.967Z" fill="url(#paint5_linear_312_535)"/>
<path fill-rule="evenodd" clip-rule="evenodd" d="M48 58.9333C48 55.1041 51.1041 52 54.9333 52H103.467C107.296 52 110.4 55.1041 110.4 58.9333V71.0667C110.4 74.8959 107.296 78 103.467 78H54.9333C51.1041 78 48 74.8959 48 71.0667V58.9333Z" fill="url(#paint6_linear_312_535)"/>
<path fill-rule="evenodd" clip-rule="evenodd" d="M48 58.9333C48 55.1041 51.1041 52 54.9333 52H103.467C107.296 52 110.4 55.1041 110.4 58.9333V71.0667C110.4 74.8959 107.296 78 103.467 78H54.9333C51.1041 78 48 74.8959 48 71.0667V58.9333Z" fill="url(#paint7_linear_312_535)"/>
<path fill-rule="evenodd" clip-rule="evenodd" d="M99.1328 58.9333C99.1328 55.1041 102.237 52 106.066 52H199.667C203.495 52 206.6 55.1041 206.6 58.9333V71.0667C206.6 74.8959 203.495 78 199.667 78H106.066C102.237 78 99.1328 74.8959 99.1328 71.0667V58.9333Z" fill="url(#paint8_linear_312_535)"/>
<path fill-rule="evenodd" clip-rule="evenodd" d="M99.1328 58.9333C99.1328 55.1041 102.237 52 106.066 52H199.667C203.495 52 206.6 55.1041 206.6 58.9333V71.0667C206.6 74.8959 203.495 78 199.667 78H106.066C102.237 78 99.1328 74.8959 99.1328 71.0667V58.9333Z" fill="url(#paint9_linear_312_535)"/>
<path d="M212.667 79.9099L155.467 65" stroke="url(#paint10_linear_312_535)" stroke-width="7.54" stroke-linecap="round"/>
<path d="M155.9 67.0802C157.097 67.0802 158.067 66.1101 158.067 64.9135C158.067 63.7169 157.097 62.7468 155.9 62.7468C154.703 62.7468 153.733 63.7169 153.733 64.9135C153.733 66.1101 154.703 67.0802 155.9 67.0802Z" fill="#424750"/>
<path fill-rule="evenodd" clip-rule="evenodd" d="M197.333 104H102L107.81 169.361C108.446 176.516 114.44 182 121.622 182H177.711C184.893 182 190.888 176.516 191.524 169.361L197.333 104ZM122.8 161.633V126.533C122.8 123.661 125.128 121.333 128 121.333C130.872 121.333 133.2 123.661 133.2 126.533V161.633C133.2 164.505 130.872 166.833 128 166.833C125.128 166.833 122.8 164.505 122.8 161.633ZM145.333 126.533V161.633C145.333 164.505 147.661 166.833 150.533 166.833C153.405 166.833 155.733 164.505 155.733 161.633V126.533C155.733 123.661 153.405 121.333 150.533 121.333C147.661 121.333 145.333 123.661 145.333 126.533ZM167.867 161.633V126.533C167.867 123.661 170.195 121.333 173.067 121.333C175.939 121.333 178.267 123.661 178.267 126.533V161.633C178.267 164.505 175.939 166.833 173.067 166.833C170.195 166.833 167.867 164.505 167.867 161.633Z" fill="url(#paint11_linear_312_535)"/>
<path fill-rule="evenodd" clip-rule="evenodd" d="M56.9336 104H117.6L128 182H78.0115C70.9457 182 65.01 176.687 64.2296 169.664L56.9336 104ZM103.66 161.195L100.193 125.661C99.7113 122.83 97.0255 120.925 94.1944 121.407C91.3632 121.889 89.4588 124.575 89.9407 127.406L93.4073 162.939C93.8892 165.771 96.5749 167.675 99.4061 167.193C102.237 166.711 104.142 164.025 103.66 161.195ZM79.3932 125.661L82.8599 161.195C83.3417 164.025 81.4373 166.711 78.6061 167.193C75.7749 167.675 73.0892 165.771 72.6073 162.939L69.1407 127.406C68.6588 124.575 70.5632 121.889 73.3944 121.407C76.2255 120.925 78.9113 122.83 79.3932 125.661Z" fill="url(#paint12_linear_312_535)"/>
<path fill-rule="evenodd" clip-rule="evenodd" d="M53.4658 104H114.132L124.532 182H74.5437C67.478 182 61.5422 176.687 60.762 169.664L53.4658 104ZM100.192 161.195L96.7254 125.661C96.2435 122.83 93.5578 120.925 90.7266 121.407C87.8954 121.889 85.991 124.575 86.4729 127.406L89.9396 162.939C90.4214 165.771 93.1073 167.675 95.9384 167.193C98.7696 166.711 100.674 164.025 100.192 161.195ZM75.9254 125.661L79.3921 161.195C79.874 164.025 77.9696 166.711 75.1384 167.193C72.3073 167.675 69.6214 165.771 69.1396 162.939L65.6729 127.406C65.191 124.575 67.0954 121.889 69.9266 121.407C72.7578 120.925 75.4436 122.83 75.9254 125.661Z" fill="url(#paint13_linear_312_535)"/>
<path fill-rule="evenodd" clip-rule="evenodd" d="M200.8 104H105.466L111.276 169.361C111.912 176.516 117.905 182 125.088 182H181.177C188.36 182 194.353 176.516 194.989 169.361L200.8 104ZM126.266 161.633V126.533C126.266 123.661 128.594 121.333 131.466 121.333C134.338 121.333 136.666 123.661 136.666 126.533V161.633C136.666 164.505 134.338 166.833 131.466 166.833C128.594 166.833 126.266 164.505 126.266 161.633ZM148.8 126.533V161.633C148.8 164.505 151.128 166.833 154 166.833C156.872 166.833 159.2 164.505 159.2 161.633V126.533C159.2 123.661 156.872 121.333 154 121.333C151.128 121.333 148.8 123.661 148.8 126.533ZM171.333 161.633V126.533C171.333 123.661 173.661 121.333 176.533 121.333C179.405 121.333 181.733 123.661 181.733 126.533V161.633C181.733 164.505 179.405 166.833 176.533 166.833C173.661 166.833 171.333 164.505 171.333 161.633Z" fill="url(#paint14_linear_312_535)"/>
<path fill-rule="evenodd" clip-rule="evenodd" d="M48.2666 93.6001C48.2666 89.7709 51.3707 86.6667 55.1999 86.6667H103.733C107.562 86.6667 110.667 89.7709 110.667 93.6001V105.733C110.667 109.563 107.562 112.667 103.733 112.667H55.1999C51.3707 112.667 48.2666 109.563 48.2666 105.733V93.6001Z" fill="url(#paint15_linear_312_535)"/>
<path fill-rule="evenodd" clip-rule="evenodd" d="M48.2666 93.6001C48.2666 89.7709 51.3707 86.6667 55.1999 86.6667H103.733C107.562 86.6667 110.667 89.7709 110.667 93.6001V105.733C110.667 109.563 107.562 112.667 103.733 112.667H55.1999C51.3707 112.667 48.2666 109.563 48.2666 105.733V93.6001Z" fill="url(#paint16_linear_312_535)"/>
<path fill-rule="evenodd" clip-rule="evenodd" d="M99.3994 93.6001C99.3994 89.7709 102.504 86.6667 106.333 86.6667H199.933C203.762 86.6667 206.866 89.7709 206.866 93.6001V105.733C206.866 109.563 203.762 112.667 199.933 112.667H106.333C102.504 112.667 99.3994 109.563 99.3994 105.733V93.6001Z" fill="url(#paint17_linear_312_535)"/>
<path fill-rule="evenodd" clip-rule="evenodd" d="M99.3994 93.6001C99.3994 89.7709 102.504 86.6667 106.333 86.6667H199.933C203.762 86.6667 206.866 89.7709 206.866 93.6001V105.733C206.866 109.563 203.762 112.667 199.933 112.667H106.333C102.504 112.667 99.3994 109.563 99.3994 105.733V93.6001Z" fill="url(#paint18_linear_312_535)"/>
<path fill-rule="evenodd" clip-rule="evenodd" d="M41.333 119.6C41.333 116.728 43.6611 114.4 46.533 114.4H95.0663V124.8H46.533C43.6611 124.8 41.333 122.472 41.333 119.6Z" fill="url(#paint19_linear_312_535)"/>
<path d="M95.0664 119.6L155.733 99.6667" stroke="url(#paint20_linear_312_535)" stroke-width="7.54" stroke-linecap="round"/>
<path d="M156.167 101.747C157.363 101.747 158.333 100.777 158.333 99.5802C158.333 98.3836 157.363 97.4136 156.167 97.4136C154.97 97.4136 154 98.3836 154 99.5802C154 100.777 154.97 101.747 156.167 101.747Z" fill="#424750"/>
<defs>
<filter id="filter0_f_312_535" x="27.9487" y="178.615" width="161.437" height="8.10331" filterUnits="userSpaceOnUse" color-interpolation-filters="sRGB">
<feFlood flood-opacity="0" result="BackgroundImageFix"/>
<feBlend mode="normal" in="SourceGraphic" in2="BackgroundImageFix" result="shape"/>
<feGaussianBlur stdDeviation="1.35914" result="effect1_foregroundBlur_312_535"/>
</filter>
<linearGradient id="paint0_linear_312_535" x1="96.9015" y1="180.56" x2="96.8241" y2="185.123" gradientUnits="userSpaceOnUse">
<stop stop-color="#A1A3A8"/>
<stop offset="1" stop-color="#C1C3C7"/>
</linearGradient>
<linearGradient id="paint1_linear_312_535" x1="162.4" y1="74.5332" x2="162.4" y2="84.9332" gradientUnits="userSpaceOnUse">
<stop stop-color="#62666D"/>
<stop offset="1" stop-color="#030A16"/>
</linearGradient>
<linearGradient id="paint2_linear_312_535" x1="111.086" y1="84.6373" x2="111.086" y2="147.333" gradientUnits="userSpaceOnUse">
<stop stop-color="#6E7681"/>
<stop offset="1" stop-color="#B0B6BD"/>
</linearGradient>
<linearGradient id="paint3_linear_312_535" x1="63.6389" y1="84.6373" x2="63.6389" y2="147.333" gradientUnits="userSpaceOnUse">
<stop stop-color="#6E7681"/>
<stop offset="1" stop-color="#B0B6BD"/>
</linearGradient>
<linearGradient id="paint4_linear_312_535" x1="62.4623" y1="82.3935" x2="62.4623" y2="147.333" gradientUnits="userSpaceOnUse">
<stop stop-color="#92959A"/>
<stop offset="0.901139" stop-color="#CACCD1"/>
<stop offset="1" stop-color="#B7BCC6"/>
</linearGradient>
<linearGradient id="paint5_linear_312_535" x1="149.293" y1="51.5906" x2="94.2577" y2="124.02" gradientUnits="userSpaceOnUse">
<stop stop-color="#DDDEE0"/>
<stop offset="1" stop-color="#CACCD0"/>
</linearGradient>
<linearGradient id="paint6_linear_312_535" x1="101.103" y1="58.6581" x2="54.1751" y2="58.6581" gradientUnits="userSpaceOnUse">
<stop stop-color="#B9BCC1"/>
<stop offset="1" stop-color="#A7AAB2"/>
</linearGradient>
<linearGradient id="paint7_linear_312_535" x1="48" y1="52" x2="48" y2="78" gradientUnits="userSpaceOnUse">
<stop stop-color="#FEFEFE" stop-opacity="0.578316"/>
<stop offset="0.163444" stop-color="white" stop-opacity="0.2"/>
<stop offset="0.840292" stop-color="white" stop-opacity="0.01"/>
<stop offset="1" stop-opacity="0.1"/>
</linearGradient>
<linearGradient id="paint8_linear_312_535" x1="190.588" y1="58.6581" x2="109.768" y2="58.6581" gradientUnits="userSpaceOnUse">
<stop stop-color="#DCDDE0"/>
<stop offset="1" stop-color="#CECFD4"/>
</linearGradient>
<linearGradient id="paint9_linear_312_535" x1="99.1328" y1="52" x2="99.1328" y2="78" gradientUnits="userSpaceOnUse">
<stop stop-color="#FEFEFE" stop-opacity="0.578316"/>
<stop offset="0.163444" stop-color="white" stop-opacity="0.2"/>
<stop offset="0.840292" stop-color="white" stop-opacity="0.01"/>
<stop offset="1" stop-opacity="0.05"/>
</linearGradient>
<linearGradient id="paint10_linear_312_535" x1="241.267" y1="72.6095" x2="234.267" y2="45.188" gradientUnits="userSpaceOnUse">
<stop stop-color="#030A16"/>
<stop offset="1" stop-color="#62666D"/>
</linearGradient>
<linearGradient id="paint11_linear_312_535" x1="111.353" y1="119.304" x2="111.353" y2="182" gradientUnits="userSpaceOnUse">
<stop stop-color="#6E7681"/>
<stop offset="1" stop-color="#B0B6BD"/>
</linearGradient>
<linearGradient id="paint12_linear_312_535" x1="63.9055" y1="119.304" x2="63.9055" y2="182" gradientUnits="userSpaceOnUse">
<stop stop-color="#6E7681"/>
<stop offset="1" stop-color="#B0B6BD"/>
</linearGradient>
<linearGradient id="paint13_linear_312_535" x1="62.7281" y1="117.06" x2="62.7281" y2="182" gradientUnits="userSpaceOnUse">
<stop stop-color="#92959A"/>
<stop offset="0.901139" stop-color="#CACCD1"/>
<stop offset="1" stop-color="#B7BCC6"/>
</linearGradient>
<linearGradient id="paint14_linear_312_535" x1="149.558" y1="86.2573" x2="94.5233" y2="158.687" gradientUnits="userSpaceOnUse">
<stop stop-color="#DDDEE0"/>
<stop offset="1" stop-color="#CACCD0"/>
</linearGradient>
<linearGradient id="paint15_linear_312_535" x1="101.369" y1="93.3249" x2="54.4417" y2="93.3249" gradientUnits="userSpaceOnUse">
<stop stop-color="#B9BCC1"/>
<stop offset="1" stop-color="#A7AAB2"/>
</linearGradient>
<linearGradient id="paint16_linear_312_535" x1="48.2666" y1="86.6667" x2="48.2666" y2="112.667" gradientUnits="userSpaceOnUse">
<stop stop-color="#FEFEFE" stop-opacity="0.578316"/>
<stop offset="0.163444" stop-color="white" stop-opacity="0.2"/>
<stop offset="0.840292" stop-color="white" stop-opacity="0.01"/>
<stop offset="1" stop-opacity="0.1"/>
</linearGradient>
<linearGradient id="paint17_linear_312_535" x1="190.854" y1="93.3249" x2="110.034" y2="93.3249" gradientUnits="userSpaceOnUse">
<stop stop-color="#DCDDE0"/>
<stop offset="1" stop-color="#CECFD4"/>
</linearGradient>
<linearGradient id="paint18_linear_312_535" x1="99.3994" y1="86.6667" x2="99.3994" y2="112.667" gradientUnits="userSpaceOnUse">
<stop stop-color="#FEFEFE" stop-opacity="0.578316"/>
<stop offset="0.163444" stop-color="white" stop-opacity="0.2"/>
<stop offset="0.840292" stop-color="white" stop-opacity="0.01"/>
<stop offset="1" stop-opacity="0.05"/>
</linearGradient>
<linearGradient id="paint19_linear_312_535" x1="41.333" y1="114.4" x2="41.333" y2="124.8" gradientUnits="userSpaceOnUse">
<stop stop-color="#62666D"/>
<stop offset="1" stop-color="#030A16"/>
</linearGradient>
<linearGradient id="paint20_linear_312_535" x1="125.4" y1="89.9783" x2="114.163" y2="125.159" gradientUnits="userSpaceOnUse">
<stop stop-color="#62666D"/>
<stop offset="1" stop-color="#030A16"/>
</linearGradient>
</defs>
</svg>
