<svg width="16" height="16" viewBox="0 0 16 16" fill="none" xmlns="http://www.w3.org/2000/svg">
<path d="M3.59993 1.40002H12.3999C13.1333 1.40002 13.7333 2.00002 13.7333 2.73336V4.20002C13.7333 4.73336 13.3999 5.40002 13.0666 5.73336L10.1999 8.26669C9.79993 8.60002 9.53327 9.26669 9.53327 9.80002V12.6667C9.53327 13.0667 9.2666 13.6 8.93327 13.8L7.99994 14.4C7.13327 14.9334 5.93327 14.3334 5.93327 13.2667V9.73336C5.93327 9.26669 5.6666 8.66669 5.39994 8.33336L2.8666 5.66669C2.53327 5.33336 2.2666 4.73336 2.2666 4.33336V2.80002C2.2666 2.00002 2.8666 1.40002 3.59993 1.40002Z" stroke="#292D32" stroke-miterlimit="10" stroke-linecap="round" stroke-linejoin="round"/>
</svg>
