<svg width="44" height="44" viewBox="0 0 44 44" fill="none" xmlns="http://www.w3.org/2000/svg">
<path d="M21.9999 25.6667H23.8332C25.8499 25.6667 27.4999 24.0167 27.4999 22.0001V3.66675H10.9999C8.24988 3.66675 5.84823 5.18839 4.60156 7.42506" stroke="#292D32" stroke-width="2" stroke-linecap="round" stroke-linejoin="round"/>
<path d="M3.66602 31.1667C3.66602 34.2101 6.12268 36.6667 9.16602 36.6667H10.9993C10.9993 34.6501 12.6493 33.0001 14.666 33.0001C16.6827 33.0001 18.3327 34.6501 18.3327 36.6667H25.666C25.666 34.6501 27.316 33.0001 29.3327 33.0001C31.3493 33.0001 32.9993 34.6501 32.9993 36.6667H34.8327C37.876 36.6667 40.3327 34.2101 40.3327 31.1667V25.6667H34.8327C33.8243 25.6667 32.9993 24.8417 32.9993 23.8334V18.3334C32.9993 17.3251 33.8243 16.5001 34.8327 16.5001H37.1976L34.0627 11.0184C33.4027 9.88177 32.1927 9.16675 30.8727 9.16675H27.4993V22.0001C27.4993 24.0167 25.8493 25.6667 23.8327 25.6667H21.9993" stroke="#292D32" stroke-width="2" stroke-linecap="round" stroke-linejoin="round"/>
<path d="M14.6667 40.3333C16.6917 40.3333 18.3333 38.6917 18.3333 36.6667C18.3333 34.6416 16.6917 33 14.6667 33C12.6416 33 11 34.6416 11 36.6667C11 38.6917 12.6416 40.3333 14.6667 40.3333Z" stroke="#292D32" stroke-width="2" stroke-linecap="round" stroke-linejoin="round"/>
<path d="M29.3327 40.3333C31.3577 40.3333 32.9993 38.6917 32.9993 36.6667C32.9993 34.6416 31.3577 33 29.3327 33C27.3076 33 25.666 34.6416 25.666 36.6667C25.666 38.6917 27.3076 40.3333 29.3327 40.3333Z" stroke="#292D32" stroke-width="2" stroke-linecap="round" stroke-linejoin="round"/>
<path d="M40.3333 22V25.6667H34.8333C33.825 25.6667 33 24.8417 33 23.8333V18.3333C33 17.325 33.825 16.5 34.8333 16.5H37.1983L40.3333 22Z" stroke="#292D32" stroke-width="2" stroke-linecap="round" stroke-linejoin="round"/>
<path d="M3.66602 14.6667H14.666" stroke="#292D32" stroke-width="2" stroke-linecap="round" stroke-linejoin="round"/>
<path d="M3.66602 20.1667H10.9993" stroke="#292D32" stroke-width="2" stroke-linecap="round" stroke-linejoin="round"/>
<path d="M3.66602 25.6667H7.33268" stroke="#292D32" stroke-width="2" stroke-linecap="round" stroke-linejoin="round"/>
</svg>
