<svg width="674" height="1431" viewBox="0 0 674 1431" fill="none" xmlns="http://www.w3.org/2000/svg">
<g opacity="0.12">
<path opacity="0.1" d="M743.415 298.931C763.446 297.295 783.748 296.295 804.322 295.933C919.982 293.907 996.741 324.265 1038.98 388.737C1075.59 444.606 1080.83 517.396 1085.43 581.632C1088.52 624.501 1091.42 664.963 1103.47 693.582C1143.56 788.76 1180.91 807.648 1203.22 818.93C1216.14 825.47 1224.68 829.778 1225.14 845.197C1225.58 860.319 1172.05 884.005 1056.66 919.745C1006.76 935.203 966.535 928.618 934.217 923.332C918.021 920.682 903.996 918.398 891.965 919.411C858.829 922.231 850.022 926.565 830.802 936.13C814.761 944.089 790.522 956.143 737.99 973.953C691.827 989.624 618.439 998.123 546.528 996.063C505.594 994.91 466.478 990.555 430.255 983.106C389.714 974.78 353.738 962.729 323.37 947.275C267.045 918.705 230.651 879.105 215.179 829.539C199.956 780.751 197.363 729.785 207.474 678.056C217.558 626.705 239.612 577.188 273.054 530.898C321.754 463.53 392.865 406.621 478.74 366.313C524.499 344.831 574.527 327.975 627.421 316.234C665.649 307.818 704.405 302.036 743.415 298.931ZM1010.77 926.577C1026.14 925.318 1041.33 922.363 1056.07 917.766C1108.55 901.514 1147.49 887.991 1175.12 876.408C1215.02 859.729 1223.21 850.252 1223.02 845.243C1222.59 831.031 1215.36 827.387 1202.23 820.746C1179.66 809.334 1141.9 790.236 1101.53 694.342C1089.38 665.454 1086.43 624.775 1083.33 581.742C1078.73 517.765 1073.51 445.26 1037.2 389.849C995.376 326.011 919.192 295.958 804.297 297.965C742.892 299.064 683.478 305.91 627.845 318.263C575.09 329.984 525.204 346.781 479.586 368.206C394.058 408.361 323.19 465.007 274.727 532.118C241.452 578.155 219.516 627.393 209.53 678.482C199.482 729.871 202.062 780.497 217.147 828.926C232.457 877.924 268.48 917.139 324.29 945.456C354.516 960.811 390.311 972.799 430.677 981.094C466.781 988.507 505.759 992.832 546.591 994.007C618.295 996.027 691.385 987.601 737.336 972.004C789.741 954.228 813.878 942.195 829.879 934.273C849.35 924.596 858.249 920.165 891.795 917.353L891.966 917.34C904.256 916.342 918.299 918.633 934.552 921.292C956.21 924.84 981.452 928.975 1010.77 926.577Z" fill="#252525"/>
<path opacity="0.07" d="M746.826 250.196C769.198 248.367 791.874 247.25 814.852 246.845C944.033 244.578 1029.76 278.481 1076.94 350.488C1117.82 412.886 1123.67 494.184 1128.81 565.928C1132.26 613.807 1135.49 658.999 1148.96 690.963C1193.73 797.264 1235.44 818.358 1260.36 830.959C1274.79 838.262 1284.33 843.074 1284.84 860.296C1285.34 877.185 1225.54 903.642 1096.67 943.563C1040.93 960.83 996.004 953.477 959.909 947.575C941.819 944.615 926.155 942.065 912.718 943.197C875.708 946.348 865.871 951.188 844.404 961.872C826.488 970.761 799.415 984.226 740.742 1004.12C689.183 1021.62 607.215 1031.12 526.898 1028.82C481.179 1027.53 437.491 1022.67 397.034 1014.35C351.754 1005.06 311.574 991.598 277.657 974.338C214.749 942.432 174.102 898.204 156.823 842.845C139.822 788.355 136.928 731.431 148.223 673.656C159.488 616.302 184.122 560.996 221.475 509.294C275.87 434.05 355.296 370.486 451.21 325.464C502.319 301.469 558.195 282.641 617.273 269.525C659.97 260.124 703.256 253.666 746.826 250.196ZM1045.41 951.196C1062.58 949.789 1079.55 946.488 1096 941.353C1154.62 923.199 1198.12 908.094 1228.98 895.157C1273.53 876.526 1282.69 865.941 1282.47 860.347C1281.99 844.474 1273.92 840.404 1259.25 832.987C1234.05 820.242 1191.87 798.914 1146.79 691.812C1133.22 659.548 1129.92 614.114 1126.47 566.051C1121.33 494.596 1115.5 413.616 1074.95 351.73C1028.24 280.431 943.15 246.868 814.824 249.115C746.242 250.345 679.883 257.993 617.746 271.792C558.824 284.885 503.106 303.648 452.154 327.578C356.628 372.43 277.473 435.7 223.343 510.657C186.177 562.077 161.675 617.07 150.519 674.131C139.295 731.528 142.175 788.071 159.022 842.16C176.12 896.885 216.352 940.682 278.685 972.308C312.443 989.456 352.422 1002.84 397.506 1012.11C437.83 1020.38 481.364 1025.21 526.969 1026.52C607.055 1028.78 688.688 1019.36 740.011 1001.94C798.543 982.087 825.501 968.646 843.373 959.798C865.12 948.989 875.06 944.04 912.528 940.898L912.719 940.883C926.445 939.768 942.13 942.327 960.283 945.295C984.472 949.258 1012.66 953.875 1045.41 951.196Z" fill="#252525"/>
<path opacity="0.2" d="M736.187 337.176C752.383 335.852 768.777 334.986 785.369 334.576C889.753 331.778 959.865 357.798 999.683 414.064C1034.25 463.016 1041.1 527.665 1047.12 584.726C1051.31 624.476 1055.27 662.013 1068.07 688.575C1107.59 773.88 1143.46 792.489 1164.87 803.62C1177.82 810.337 1186.38 814.773 1187.03 829.732C1187.55 838.155 1173.21 849.552 1144.43 863.538C1118.55 876.104 1081.98 890.298 1038.69 904.547C993.504 919.614 956.936 914.85 927.527 910.999C913.323 909.138 901.03 907.508 890.133 908.415C855.567 911.141 847.216 914.575 822.436 924.71C805.793 931.523 783.001 940.856 740.736 954.813C697.44 969.132 628.99 976.957 562.094 975.224C523.856 974.266 487.341 970.293 453.627 963.493C415.813 955.856 382.346 944.783 354.164 930.523C303.259 904.815 270.166 869.353 255.718 825.032C241.294 780.422 238.422 733.746 247.161 686.302C255.864 639.16 275.577 593.684 305.733 551.182C349.356 489.718 413.36 437.645 490.786 400.534C532.073 380.752 577.268 365.129 625.132 354.147C661.699 345.823 698.814 340.152 736.187 337.176ZM991.624 912.254C1007.44 910.965 1023.04 907.757 1038.08 902.701C1129.68 872.571 1185.97 844.662 1185.1 829.822C1184.51 815.964 1176.8 811.975 1163.99 805.319C1142.35 794.085 1106.11 775.294 1066.29 689.491C1053.38 662.617 1049.4 624.914 1045.19 584.999C1039.19 528.179 1032.4 463.76 998.122 415.272C958.703 359.513 889.13 333.758 785.442 336.543C729.711 337.916 675.928 344.479 625.598 356.051C577.88 367.02 532.808 382.577 491.655 402.295C414.502 439.2 350.751 491.1 307.341 552.267C277.318 594.572 257.747 639.819 249.068 686.647C240.378 733.777 243.231 780.13 257.56 824.427C271.818 868.255 304.614 903.372 355.017 928.816C392.271 947.619 458.441 970.596 562.16 973.275C628.854 975 697.07 967.199 740.141 952.967C782.343 939.021 805.129 929.681 821.726 922.911C846.032 912.961 855.144 909.245 889.997 906.472C901.107 905.585 913.471 907.198 927.795 909.056C946.135 911.466 967.311 914.234 991.624 912.254Z" fill="#252525"/>
<path opacity="0.3" d="M728.401 375.402C740.903 374.374 753.574 373.647 766.415 373.22C859.603 369.67 923.017 391.376 960.368 439.706C992.887 481.779 1001.22 538.377 1008.57 588.317C1013.94 624.798 1019.02 659.255 1032.58 683.753C1071.49 758.99 1105.86 777.249 1126.39 788.166C1139.46 795.109 1148.07 799.66 1148.95 814.235C1150.73 834.032 1083.73 867.049 1020.71 889.343C980.019 904.15 946.947 901.137 920.341 898.698C908.313 897.576 897.882 896.649 888.306 897.376C849.016 900.258 841.961 902.658 802.795 915.984C788.051 920.994 769.693 927.236 743.474 935.628C716.661 944.221 679.136 950.43 637.851 953.098C591.394 956.134 544.173 954.363 501.352 948.06C450.699 940.593 407.866 927.14 374.051 908.086C334.656 885.88 308.445 856.425 296.129 820.522C282.503 780.088 279.333 737.697 286.714 694.537C294.053 651.622 311.425 610.189 338.348 571.388C376.902 515.835 433.775 468.558 502.832 434.666C569.295 402.091 645.021 382.2 728.401 375.402ZM971.73 898.246C988.255 896.915 1004.53 893.345 1020.1 887.635C1095.16 861.083 1148.58 830.275 1147.14 814.373C1146.35 800.825 1138.52 796.661 1125.54 789.759C1104.82 778.753 1070.11 760.349 1030.99 684.613C1017.27 659.845 1012.17 625.229 1006.78 588.582C999.466 538.865 991.179 482.527 958.932 440.812C921.996 393.021 859.043 371.495 766.504 375.061C668.273 378.358 579.826 398.955 503.692 436.351C434.924 470.095 378.287 517.166 339.887 572.49C313.116 611.063 295.836 652.253 288.544 694.904C281.178 737.685 284.346 779.799 297.881 819.951C310.05 855.408 336 884.532 374.993 906.527C408.616 925.48 451.231 938.856 501.664 946.296C544.334 952.582 591.398 954.316 637.76 951.32C678.918 948.648 716.277 942.483 742.95 933.924C769.156 925.544 787.483 919.282 802.245 914.291C841.59 900.908 848.677 898.503 888.195 895.591C897.924 894.857 908.404 895.811 920.534 896.911C935.471 898.273 952.478 899.828 971.73 898.246Z" fill="#252525"/>
<path opacity="0.35" d="M721.328 413.489C729.948 412.776 738.665 412.228 747.479 411.845C829.573 407.548 886.37 425.107 921.098 465.502C951.506 500.806 960.801 547.315 969.826 592.273C976.457 625.294 982.721 656.49 997.157 678.826C1035.23 744.062 1066.8 761.207 1087.7 772.553C1101.48 780.039 1109.83 784.537 1110.85 798.75C1113 816.799 1065.53 849.905 1002.74 874.132C966.138 888.919 936.287 887.635 912.3 886.607C903.119 886.21 894.475 885.813 886.488 886.412L882.462 886.675C836.185 889.762 832.405 890.015 746.228 916.514C722.027 923.978 686.933 929.692 649.962 932.195C607.465 935.054 564.357 933.768 525.353 928.432C478.996 922.093 439.768 910.39 408.76 893.631C372.557 874.095 348.3 847.986 336.653 816.015C323.807 779.752 320.339 741.644 326.342 702.75C332.325 664.057 347.355 626.652 371.014 591.584C404.518 541.936 454.288 499.488 514.94 468.826C575.256 438.341 644.579 419.767 721.328 413.489ZM950.495 884.804C968.225 883.401 985.638 879.272 1002.12 872.564C1063.19 849.002 1111.22 815.953 1109.18 798.919C1108.17 785.628 1100.16 781.274 1086.86 774.059C1067.1 763.307 1033.97 745.331 995.689 679.741C981.098 657.159 974.808 625.818 968.145 592.631C959.163 547.889 949.884 501.621 919.787 466.624C885.422 426.647 829.079 409.286 747.529 413.552C660.582 417.421 582.593 436.533 515.686 470.336C455.292 500.868 405.743 543.122 372.407 592.529C348.888 627.394 333.948 664.568 328.012 703.01C322.039 741.621 325.485 779.457 338.234 815.445C349.732 847.019 373.728 872.823 409.58 892.125C440.434 908.771 479.469 920.411 525.618 926.723C564.515 932.049 607.477 933.374 649.901 930.437C686.739 927.948 721.693 922.255 745.779 914.824C832.135 888.269 835.94 888.017 882.394 884.924L886.387 884.716C894.416 884.163 903.15 884.525 912.363 884.904C923.732 885.409 936.38 885.978 950.495 884.804Z" fill="#252525"/>
<path opacity="0.4" d="M714.253 451.506C718.97 451.119 723.72 450.788 728.5 450.514C887.886 439.275 910.667 522.998 930.771 596.851C938.752 626.18 946.289 653.877 961.668 673.948C998.657 729.168 1028.72 745.78 1048.61 756.769C1062.85 764.637 1071.44 769.383 1072.75 783.266C1074.07 792.008 1065.77 805.062 1050 819.055C1033.24 833.903 1010.07 848.067 984.779 858.935C951.379 874.288 925.245 874.612 902.182 874.892C896.059 874.975 890.266 875.019 884.694 875.405C876.287 875.919 868.926 876.18 862.45 876.421C832.472 877.52 814.433 878.228 749.019 897.356C707.303 909.608 627.025 918.402 549.351 908.771C507.317 903.563 471.68 893.608 443.428 879.181C410.459 862.36 388.12 839.558 377.148 811.513C365.069 779.471 361.198 744.901 365.886 710.946C370.493 676.468 383.183 643.081 403.584 611.725C432.043 567.989 474.706 530.376 526.987 502.996C581.185 474.514 644.119 457.232 714.253 451.506ZM927.14 872.411C946.874 870.925 966.183 865.874 984.131 857.504C1038.49 834.137 1073.65 799.729 1071.21 783.458C1069.99 770.336 1061.64 765.756 1047.85 758.138C1027.81 747.093 997.584 730.349 960.396 674.863C944.86 654.585 937.285 626.741 929.265 597.265C919.082 559.864 908.53 521.199 880.697 492.742C848.999 460.391 799.25 447.089 728.594 452.07C652.944 456.499 585.357 474.079 527.721 504.322C475.683 531.623 433.246 569.086 404.881 612.528C384.6 643.686 371.988 676.868 367.414 711.107C362.732 744.807 366.552 779.125 378.527 810.936C392.677 846.936 433.769 892.87 549.529 907.218C626.989 916.816 707 908.063 748.557 895.849C814.169 876.671 832.315 875.986 862.375 874.858C868.845 874.611 876.188 874.331 884.601 873.823C890.229 873.457 896.029 873.395 902.165 873.313C910.057 873.229 918.334 873.139 927.14 872.411Z" fill="#252525"/>
<path opacity="0.45" d="M714.66 488.698C772.359 483.996 814.266 493.646 842.661 518.182C868.455 540.461 880.174 571.867 891.49 602.222C900.922 627.497 909.812 651.402 926.177 669.07C961.676 714.24 990.133 730.133 1008.96 740.63C1023.97 749.018 1033.04 754.077 1034.64 767.8C1037.93 786.185 1009.61 822.594 966.774 843.73C933.838 861.575 909.283 862.939 885.531 864.25L882.834 864.408C871.382 864.98 861.749 864.833 852.426 864.69C827.436 864.315 803.828 863.957 751.718 878.208C713.765 888.652 641.726 896.516 573.284 889.121C515.594 882.879 441.753 863.568 417.565 807.022C394.892 751.172 401.658 687.283 436.068 631.763C459.487 593.97 495.105 561.195 539.006 537.02C587.033 510.602 643.574 494.53 707.227 489.367L709.495 489.181C711.278 488.999 713 488.838 714.66 488.698ZM899.76 861.887C919.138 860.31 939.998 856.599 966.14 842.445C1011.93 819.846 1036.1 783.841 1033.24 767.991C1031.72 754.96 1022.9 750.041 1008.28 741.869C989.344 731.305 960.745 715.338 925.101 669.986C908.545 652.191 899.603 628.152 890.102 602.685C878.843 572.496 867.212 541.277 841.707 519.191C812.81 494.233 769.63 484.867 709.666 490.532L707.398 490.718C643.953 495.895 587.573 511.865 539.739 538.201C496.051 562.263 460.635 594.85 437.331 632.451C420.301 659.927 410.035 689.111 406.834 719.186C403.555 748.824 407.713 778.797 418.933 806.394C442.861 862.281 516.159 881.44 573.466 887.637C641.724 895.019 713.529 887.179 751.341 876.805C803.642 862.498 827.351 862.86 852.442 863.238C861.74 863.38 871.354 863.521 882.756 862.947L885.509 862.784C890.179 862.556 894.926 862.28 899.76 861.887Z" fill="#252525"/>
<path d="M705.924 526.178C748.133 522.734 780.206 528.989 803.675 545.175C827.144 561.361 839.731 585.369 852.004 608.66C862.482 628.566 873.327 649.141 890.732 664.161C924.041 699.214 950.693 714.058 968.289 723.906C984.669 733.024 994.594 738.562 996.533 752.334C1000.21 769.621 983.41 807.974 948.82 828.514C924.631 844.859 904.34 852.302 881.019 853.407C868.628 853.902 857.814 853.075 846.352 852.195C822.149 850.357 797.096 848.433 754.468 859.061C720.086 867.705 656.222 874.661 597.287 869.455C546.214 864.947 480.611 849.676 458.09 802.49C436.814 754.792 440.642 699.787 468.513 651.628C486.969 619.756 515.516 591.856 551.079 570.958C590.419 547.836 637.347 533.316 690.573 527.807C695.831 527.128 700.948 526.585 705.924 526.178ZM885.12 851.807C906.482 850.066 925.572 842.631 948.142 827.392C982.221 807.168 998.812 769.553 995.275 752.53C993.421 739.361 984.275 734.267 967.679 725.022C949.969 715.17 923.225 700.265 889.818 665.108C872.279 649.97 861.375 629.291 850.844 609.276C838.642 586.127 826.033 562.187 802.934 546.254C776.977 528.352 740.276 522.75 690.727 529.101C637.684 534.61 590.917 549.066 551.757 572.08C516.358 592.839 487.993 620.594 469.651 652.274C441.976 700.092 438.177 754.631 459.31 801.952C481.548 848.572 546.69 863.688 597.423 868.171C656.183 873.333 719.876 866.403 754.193 857.795C797.025 847.11 822.173 849.032 846.489 850.886C857.907 851.759 868.696 852.584 881.004 852.093C882.378 852.008 883.752 851.924 885.12 851.807Z" fill="#A4A4A4"/>
<path d="M697.744 562.968C765.738 557.419 788.684 586.331 812.825 616.737C824.735 631.742 837.044 647.253 855.248 659.276C885.06 684.089 908.444 696.773 925.514 706.028C945.214 716.708 956.061 722.594 958.47 736.818C960.708 746.281 959.573 760.709 955.483 774.429C950.554 791.011 941.819 804.801 930.888 813.267C913.638 829.317 898.867 841.684 879.224 842.386C866.827 842.717 854.643 841.022 841.756 839.226C818.483 835.987 792.106 832.311 757.251 839.909C733.117 845.229 677.321 853.3 621.251 849.837C592.089 848.021 567.247 843.307 547.403 835.83C523.964 826.997 507.529 814.278 498.57 798.012C478.534 758.441 479.312 712.266 500.695 671.313C514.195 645.356 535.788 622.391 563.037 604.783C593.191 585.325 629.713 572.437 671.581 566.461C681.004 564.77 689.693 563.627 697.744 562.968ZM881.345 841.071C899.507 839.603 913.667 827.682 930.119 812.362C955.103 793.014 961.113 753.078 957.312 737.055C954.996 723.378 944.316 717.579 924.944 707.069C907.838 697.788 884.416 685.102 854.524 660.242C836.209 648.152 823.872 632.545 811.874 617.499C798.239 600.312 785.35 584.086 764.734 573.918C741.501 562.445 711.947 560.471 671.771 567.636C630.043 573.579 593.7 586.423 563.695 605.778C536.596 623.259 515.147 646.078 501.736 671.842C480.537 712.454 479.767 758.232 499.615 797.443C508.4 813.443 524.647 825.972 547.817 834.702C567.55 842.137 592.279 846.822 621.315 848.633C677.232 852.116 732.895 844.059 756.966 838.749C792.03 831.115 818.52 834.807 841.894 838.062C854.737 839.85 866.87 841.544 879.167 841.21C879.914 841.172 880.629 841.128 881.345 841.071Z" fill="#6F6F6F"/>
<path opacity="0.6" d="M690.594 598.204C731.657 594.853 751.933 609.6 776.237 627.287C788.924 636.515 802.047 646.068 819.776 654.405C843.039 668.651 861.858 678.056 876.982 685.613C902.913 698.582 917.206 705.719 920.378 721.34C924.964 738.678 927.663 780.327 912.981 797.971C912.141 799.324 911.338 800.717 910.48 802.051C901.784 816.317 892.774 831.07 877.402 831.379C865.46 831.529 851.87 828.768 837.508 825.872C814.269 821.189 787.934 815.879 759.995 820.744C729.752 826.096 577.022 849.983 539.083 793.468C520.016 761.97 517.594 724.461 532.412 690.541C541.26 670.301 555.554 652.726 574.891 638.315C595.969 622.601 622.12 611.421 652.62 605.111C665.054 601.705 677.761 599.393 690.594 598.204ZM878.765 830.245C892.739 829.104 901.28 815.093 909.572 801.508C910.41 800.127 911.253 798.75 912.1 797.378L912.152 797.329C926.563 780.024 923.905 738.799 919.352 721.601C916.256 706.469 902.151 699.389 876.51 686.576C861.381 679.011 842.536 669.593 819.279 655.354C801.494 647.008 788.34 637.435 775.61 628.174C745.021 605.923 720.859 588.349 652.885 606.144C622.524 612.471 596.489 623.553 575.517 639.158C556.335 653.461 542.154 670.894 533.395 690.955C518.702 724.55 521.113 761.705 539.976 792.893C555.077 815.379 590.542 827.563 645.269 829.072C693.461 830.378 741.415 822.942 759.801 819.682C787.936 814.793 814.372 820.119 837.705 824.825C852.011 827.699 865.52 830.426 877.385 830.311C877.846 830.308 878.315 830.286 878.765 830.245Z" fill="#252525"/>
<path opacity="0.6" d="M704.81 609.582C741.39 606.631 759.466 619.789 781.133 635.569C792.444 643.802 804.143 652.325 819.944 659.768C840.681 672.482 857.455 680.878 870.935 687.625C894.048 699.202 906.788 705.574 909.627 719.495C913.728 734.947 916.168 772.059 903.103 787.767C902.356 788.972 901.642 790.213 900.878 791.401C893.144 804.104 885.129 817.241 871.435 817.503C860.796 817.627 848.686 815.155 835.889 812.563C815.182 808.369 791.715 803.616 766.83 807.926C739.892 812.67 603.847 833.822 570 783.433C552.986 755.352 550.795 721.929 563.968 691.719C571.833 673.692 584.552 658.046 601.767 645.222C620.531 631.238 643.819 621.3 670.985 615.704C682.06 612.679 693.378 610.631 704.81 609.582ZM872.648 816.494C885.097 815.49 892.694 803.013 900.069 790.916C900.815 789.686 901.564 788.46 902.317 787.238L902.364 787.194C915.187 771.788 912.784 735.054 908.713 719.727C905.942 706.241 893.37 699.921 870.516 688.482C857.031 681.729 840.234 673.321 819.503 660.613C803.652 653.162 791.924 644.622 780.575 636.359C753.305 616.507 731.764 600.827 671.222 616.624C644.18 622.235 620.995 632.088 602.325 645.973C585.249 658.701 572.63 674.222 564.843 692.088C551.783 722.009 553.962 755.117 570.795 782.922C584.266 802.97 615.873 813.857 664.63 815.249C707.564 816.454 750.279 809.869 766.656 806.98C791.717 802.648 815.273 807.416 836.064 811.629C848.811 814.203 860.848 816.644 871.419 816.552C871.83 816.549 872.247 816.531 872.648 816.494Z" fill="#252525"/>
</g>
</svg>
