<svg width="25" height="24" viewBox="0 0 25 24" fill="none" xmlns="http://www.w3.org/2000/svg">
<path d="M12.5399 4.21523H16.2961C16.8819 4.22213 17.4619 4.33175 18.0098 4.5391C18.4087 4.69488 18.7711 4.93157 19.0741 5.23426C19.377 5.53695 19.6141 5.89908 19.7702 6.29786C19.9778 6.84541 20.0874 7.42519 20.0941 8.01072C20.1409 8.98234 20.1409 9.30621 20.1409 11.7595C20.1409 14.2127 20.1409 14.5366 20.0949 15.5082C20.0882 16.0937 19.9786 16.6735 19.7711 17.2211C19.6149 17.6199 19.3779 17.982 19.0749 18.2847C18.7719 18.5874 18.4096 18.824 18.0106 18.9798C17.4627 19.1872 16.8827 19.2968 16.297 19.3037H8.7836C8.19782 19.2968 7.6178 19.1872 7.06991 18.9798C6.67098 18.824 6.30862 18.5874 6.00564 18.2847C5.70267 17.982 5.46564 17.6199 5.30947 17.2211C5.10193 16.6735 4.99231 16.0937 4.9856 15.5082C4.94386 14.5333 4.94386 14.2085 4.94386 11.7561C4.94386 9.30371 4.94386 8.979 4.98977 8.00738C4.99648 7.42186 5.10611 6.84207 5.31365 6.29452C5.46972 5.89582 5.70662 5.53374 6.00945 5.23106C6.31227 4.92837 6.67447 4.69164 7.07325 4.53576C7.62029 4.32993 8.19914 4.22145 8.7836 4.21523H12.5399ZM12.5399 2.54578H8.74102C7.96874 2.57853 7.20482 2.71901 6.47141 2.96314C5.85336 3.22636 5.29995 3.62084 4.84954 4.11923C4.36459 4.56188 3.99814 5.11887 3.7836 5.73943C3.49887 6.46284 3.34211 7.23026 3.32032 8.00738C3.27441 8.979 3.27441 9.30704 3.27441 11.802C3.27441 14.297 3.27441 14.6251 3.32032 15.5975C3.34211 16.3747 3.49887 17.1421 3.7836 17.8655C3.9979 18.4859 4.36406 19.0429 4.8487 19.4857C5.2919 19.97 5.84913 20.3358 6.46974 20.5499C7.19383 20.8342 7.96176 20.9907 8.73936 21.0124H16.3353C17.1129 20.9907 17.8809 20.8342 18.605 20.5499C19.2256 20.3358 19.7828 19.97 20.226 19.4857C20.7083 19.0314 21.0875 18.4789 21.3379 17.8655C21.5821 17.1327 21.7226 16.3693 21.7552 15.5975C21.8011 14.6259 21.8011 14.302 21.8011 11.802C21.8011 9.30204 21.8011 8.979 21.7552 8.00654C21.7226 7.23479 21.5821 6.4714 21.3379 5.7386C21.0875 5.12516 20.7083 4.57264 20.226 4.1184C19.7722 3.63709 19.2206 3.25854 18.6083 3.00821C17.8749 2.76408 17.111 2.6236 16.3387 2.59085H12.5399" fill="#252525"/>
<path d="M12.392 7.00073C11.47 7.00073 10.5687 7.27415 9.80201 7.78641C9.03536 8.29867 8.43782 9.02677 8.08497 9.87862C7.73212 10.7305 7.6398 11.6678 7.81968 12.5722C7.99956 13.4765 8.44357 14.3072 9.09555 14.9592C9.74754 15.6111 10.5782 16.0551 11.4825 16.235C12.3869 16.4149 13.3242 16.3226 14.1761 15.9697C15.0279 15.6169 15.756 15.0194 16.2683 14.2527C16.7806 13.4861 17.054 12.5847 17.054 11.6627C17.054 10.4262 16.5628 9.24046 15.6885 8.36618C14.8142 7.4919 13.6285 7.00073 12.392 7.00073ZM12.392 14.6952C11.7923 14.6952 11.2059 14.5174 10.7072 14.1841C10.2085 13.8509 9.81985 13.3773 9.59033 12.8232C9.3608 12.2691 9.30075 11.6593 9.41776 11.071C9.53477 10.4828 9.82359 9.94244 10.2477 9.51833C10.6718 9.09422 11.2122 8.8054 11.8004 8.68838C12.3887 8.57137 12.9984 8.63143 13.5525 8.86095C14.1067 9.09048 14.5803 9.47917 14.9135 9.97787C15.2467 10.4766 15.4246 11.0629 15.4246 11.6627C15.4246 12.467 15.1051 13.2383 14.5364 13.807C13.9677 14.3757 13.1963 14.6952 12.392 14.6952Z" fill="#252525"/>
<path d="M18.6972 7.10335C18.6972 7.40547 18.6076 7.70081 18.4397 7.95201C18.2719 8.20321 18.0333 8.399 17.7542 8.51462C17.4751 8.63024 17.1679 8.66049 16.8716 8.60155C16.5753 8.54261 16.3031 8.39712 16.0895 8.18349C15.8759 7.96986 15.7304 7.69768 15.6714 7.40136C15.6125 7.10505 15.6428 6.79791 15.7584 6.51879C15.874 6.23966 16.0698 6.00109 16.321 5.83324C16.5722 5.66539 16.8675 5.57581 17.1696 5.57581C17.5748 5.57581 17.9633 5.73674 18.2498 6.02321C18.5362 6.30968 18.6972 6.69822 18.6972 7.10335Z" fill="#252525"/>
</svg>
