<svg width="21" height="22" viewBox="0 0 21 22" fill="none" xmlns="http://www.w3.org/2000/svg">
<path d="M17.1494 3.91139C15.8952 2.65129 14.2955 1.79143 12.5526 1.44057C10.8097 1.08971 9.00191 1.2636 7.35784 1.94026C5.71377 2.61692 4.3073 3.76595 3.31631 5.24202C2.32532 6.71809 1.79433 8.45489 1.7905 10.2328C1.77099 11.8062 2.18792 13.3543 2.99501 14.7052L1.70703 19.3496L6.48082 18.1025C7.79795 18.8249 9.2792 19.1953 10.7813 19.1777C12.5534 19.1855 14.2878 18.6668 15.7647 17.6874C17.2415 16.708 18.3941 15.312 19.0763 13.6765C19.7586 12.041 19.9396 10.2397 19.5966 8.50117C19.2535 6.76262 18.4018 5.16514 17.1494 3.91139ZM10.7813 17.6727C9.33061 17.6829 7.90927 17.2638 6.69618 16.4682L3.85812 17.2419L4.62857 14.494C3.77289 13.238 3.30818 11.7567 3.29301 10.2369C3.28458 8.75526 3.71624 7.30443 4.53328 6.06836C5.35033 4.83229 6.51596 3.86662 7.88244 3.29375C9.24892 2.72089 10.7547 2.56662 12.209 2.85051C13.6632 3.1344 15.0004 3.84366 16.0511 4.88838C17.1019 5.93311 17.8187 7.26627 18.1109 8.71888C18.4031 10.1715 18.2574 11.6781 17.6924 13.0479C17.1273 14.4176 16.1683 15.5887 14.9369 16.4128C13.7055 17.2369 12.2572 17.6768 10.7755 17.6768L10.7813 17.6727Z" fill="#252525"/>
<path d="M14.8661 12.1254C14.3678 11.8468 13.851 11.6025 13.3194 11.3942C13.1474 11.3107 12.9755 11.2648 12.8461 11.4777C12.7167 11.6905 12.2443 12.2089 12.1149 12.3808C12.0567 12.4476 11.9751 12.4894 11.8869 12.4975C11.7988 12.5055 11.7109 12.4793 11.6416 12.4242C10.9825 12.1524 10.3723 11.7746 9.83525 11.3057C9.34204 10.8571 8.92135 10.3348 8.58817 9.7573C8.5643 9.72398 8.54748 9.68614 8.53873 9.64609C8.52999 9.60604 8.52951 9.56463 8.53733 9.52439C8.54514 9.48415 8.56108 9.44592 8.58418 9.41206C8.60727 9.37819 8.63703 9.34939 8.67164 9.32742L9.01555 8.89754C9.10255 8.79317 9.175 8.67748 9.23091 8.55363C9.2649 8.49475 9.2828 8.42796 9.2828 8.35998C9.2828 8.29199 9.2649 8.2252 9.23091 8.16632C9.14743 8.03694 8.71505 6.96181 8.54309 6.48936C8.37114 6.0169 8.15578 6.10205 8.02723 6.10205H7.59735C7.48023 6.1004 7.36443 6.12691 7.2597 6.17935C7.15497 6.23179 7.06436 6.30862 6.99551 6.40338C6.73906 6.63613 6.53683 6.92236 6.40313 7.24184C6.26942 7.56132 6.2075 7.90626 6.22172 8.2523C6.29673 9.09629 6.60994 9.90161 7.1249 10.5745C8.09778 11.9972 9.41423 13.1511 10.9521 13.9293C11.3658 14.1287 11.798 14.2872 12.2426 14.4025C12.7002 14.554 13.1895 14.5828 13.6616 14.486C13.9723 14.4339 14.268 14.3148 14.528 14.1369C14.7881 13.959 15.0063 13.7267 15.1675 13.456C15.3224 13.1201 15.3676 12.7439 15.2968 12.3808C15.1808 12.256 15.0317 12.1666 14.867 12.1229L14.8661 12.1254Z" fill="#252525"/>
</svg>
