<svg width="20" height="20" viewBox="0 0 20 20" fill="none" xmlns="http://www.w3.org/2000/svg">
<path d="M15.3922 14.0251L15.7172 16.6584C15.8005 17.3501 15.0589 17.8334 14.4672 17.4751L10.9755 15.4001C10.5922 15.4001 10.2172 15.3751 9.85053 15.3251C10.4672 14.6001 10.8339 13.6834 10.8339 12.6917C10.8339 10.3251 8.78386 8.40844 6.25052 8.40844C5.28386 8.40844 4.39219 8.68341 3.65053 9.16675C3.62553 8.95841 3.61719 8.75007 3.61719 8.53341C3.61719 4.74174 6.90886 1.66675 10.9755 1.66675C15.0422 1.66675 18.3339 4.74174 18.3339 8.53341C18.3339 10.7834 17.1755 12.7751 15.3922 14.0251Z" stroke="white" stroke-linecap="round" stroke-linejoin="round"/>
<path d="M10.8327 12.6917C10.8327 13.6834 10.466 14.6001 9.84936 15.3251C9.02436 16.3251 7.71602 16.9667 6.24935 16.9667L4.07435 18.2584C3.70768 18.4834 3.24101 18.1751 3.29101 17.7501L3.49935 16.1084C2.38268 15.3334 1.66602 14.0917 1.66602 12.6917C1.66602 11.2251 2.44935 9.93342 3.64935 9.16676C4.39102 8.68342 5.28268 8.40845 6.24935 8.40845C8.78268 8.40845 10.8327 10.3251 10.8327 12.6917Z" stroke="white" stroke-linecap="round" stroke-linejoin="round"/>
</svg>
