<svg width="20" height="20" viewBox="0 0 20 20" fill="none" xmlns="http://www.w3.org/2000/svg">
<path d="M13.3333 18.9584H2.49996C1.69996 18.9584 1.04163 18.3001 1.04163 17.5001V6.66675C1.04163 2.98341 2.98329 1.04175 6.66663 1.04175H13.3333C17.0166 1.04175 18.9583 2.98341 18.9583 6.66675V13.3334C18.9583 17.0167 17.0166 18.9584 13.3333 18.9584ZM6.66663 2.29175C3.68329 2.29175 2.29163 3.68341 2.29163 6.66675V17.5001C2.29163 17.6167 2.38329 17.7084 2.49996 17.7084H13.3333C16.3166 17.7084 17.7083 16.3167 17.7083 13.3334V6.66675C17.7083 3.68341 16.3166 2.29175 13.3333 2.29175H6.66663Z" fill="#7E8285"/>
<path d="M14.1667 8.54175H5.83337C5.49171 8.54175 5.20837 8.25841 5.20837 7.91675C5.20837 7.57508 5.49171 7.29175 5.83337 7.29175H14.1667C14.5084 7.29175 14.7917 7.57508 14.7917 7.91675C14.7917 8.25841 14.5084 8.54175 14.1667 8.54175Z" fill="#7E8285"/>
<path d="M11.6667 12.7083H5.83337C5.49171 12.7083 5.20837 12.4249 5.20837 12.0833C5.20837 11.7416 5.49171 11.4583 5.83337 11.4583H11.6667C12.0084 11.4583 12.2917 11.7416 12.2917 12.0833C12.2917 12.4249 12.0084 12.7083 11.6667 12.7083Z" fill="#7E8285"/>
</svg>
