<svg width="20" height="20" viewBox="0 0 20 20" fill="none" xmlns="http://www.w3.org/2000/svg">
<path d="M10.1341 9.05842C10.0508 9.05008 9.95078 9.05008 9.85911 9.05842C7.87578 8.99175 6.30078 7.36675 6.30078 5.36675C6.30078 3.32508 7.95078 1.66675 10.0008 1.66675C12.0424 1.66675 13.7008 3.32508 13.7008 5.36675C13.6924 7.36675 12.1174 8.99175 10.1341 9.05842Z" stroke="white" stroke-linecap="round" stroke-linejoin="round"/>
<path d="M5.96758 12.1333C3.95091 13.4833 3.95091 15.6833 5.96758 17.0249C8.25924 18.5583 12.0176 18.5583 14.3092 17.0249C16.3259 15.6749 16.3259 13.4749 14.3092 12.1333C12.0259 10.6083 8.26758 10.6083 5.96758 12.1333Z" stroke="white" stroke-linecap="round" stroke-linejoin="round"/>
</svg>
