<svg width="14" height="14" viewBox="0 0 14 14" fill="none" xmlns="http://www.w3.org/2000/svg">
<path d="M7.00007 13.2768C6.36423 13.2768 5.73423 13.0901 5.2384 12.7226L2.73006 10.8501C2.06506 10.3543 1.5459 9.31592 1.5459 8.49342V4.15342C1.5459 3.25509 2.20507 2.29842 3.0509 1.98342L5.96173 0.892588C6.53923 0.676755 7.44923 0.676755 8.02673 0.892588L10.9376 1.98342C11.7834 2.29842 12.4426 3.25509 12.4426 4.15342V8.48759C12.4426 9.31592 11.9234 10.3484 11.2584 10.8443L8.75006 12.7168C8.2659 13.0901 7.6359 13.2768 7.00007 13.2768ZM6.2709 1.71509L3.36007 2.80592C2.86423 2.99259 2.42673 3.62259 2.42673 4.15925V8.49342C2.42673 9.04759 2.81756 9.82342 3.25506 10.1501L5.7634 12.0226C6.43423 12.5243 7.5659 12.5243 8.24256 12.0226L10.7509 10.1501C11.1942 9.81759 11.5792 9.04759 11.5792 8.49342V4.15342C11.5792 3.62259 11.1417 2.99259 10.6459 2.80009L7.73507 1.70925C7.3384 1.56925 6.66173 1.56925 6.2709 1.71509Z" fill="#D92626"/>
<path d="M6.21798 8.30082C6.10715 8.30082 5.99631 8.25999 5.90881 8.17249L4.96965 7.23332C4.80048 7.06415 4.80048 6.78415 4.96965 6.61499C5.13881 6.44582 5.41881 6.44582 5.58798 6.61499L6.21798 7.24499L8.41715 5.04582C8.58631 4.87665 8.86631 4.87665 9.03548 5.04582C9.20465 5.21499 9.20465 5.49499 9.03548 5.66415L6.52715 8.17249C6.43965 8.25999 6.32881 8.30082 6.21798 8.30082Z" fill="#D92626"/>
</svg>
