<svg width="14" height="14" viewBox="0 0 14 14" fill="none" xmlns="http://www.w3.org/2000/svg">
<path d="M10.3017 13.2242C9.9925 13.2242 9.59583 13.125 9.1 12.8334L7.35583 11.8009C7.175 11.6959 6.825 11.6959 6.65 11.8009L4.9 12.8334C3.8675 13.4459 3.26083 13.2009 2.98666 13.0025C2.71833 12.8042 2.29833 12.2967 2.5725 11.13L2.98666 9.33919C3.03333 9.15252 2.94 8.83169 2.8 8.69169L1.35333 7.24502C0.629997 6.52169 0.688331 5.90335 0.787498 5.60002C0.886664 5.29669 1.20166 4.76002 2.205 4.59085L4.06583 4.28169C4.24083 4.25252 4.49166 4.06585 4.5675 3.90835L5.6 1.84919C6.06667 0.910019 6.67916 0.77002 7 0.77002C7.32083 0.77002 7.93333 0.910019 8.4 1.84919L9.42667 3.90252C9.50833 4.06002 9.75916 4.24669 9.93417 4.27585L11.795 4.58502C12.8042 4.75419 13.1192 5.29085 13.2125 5.59419C13.3058 5.89752 13.3642 6.51585 12.6467 7.23919L11.2 8.69169C11.06 8.83169 10.9725 9.14669 11.0133 9.33919L11.4275 11.13C11.6958 12.2967 11.2817 12.8042 11.0133 13.0025C10.8675 13.1075 10.6342 13.2242 10.3017 13.2242Z" fill="#FAC712"/>
</svg>
