<svg width="14" height="14" viewBox="0 0 14 14" fill="none" xmlns="http://www.w3.org/2000/svg">
<path d="M7.58336 8.60425H7.00003C6.76086 8.60425 6.56253 8.40592 6.56253 8.16675C6.56253 7.92758 6.76086 7.72925 7.00003 7.72925H7.58336C7.98586 7.72925 8.31253 7.40258 8.31253 7.00008V1.60425H3.50003C2.8117 1.60425 2.18168 1.97757 1.84335 2.5784C1.72668 2.7884 1.45837 2.86426 1.24837 2.74759C1.03837 2.63093 0.962519 2.36258 1.07919 2.15258C1.56919 1.27758 2.4967 0.729248 3.50003 0.729248H8.75003C8.9892 0.729248 9.18753 0.927581 9.18753 1.16675V7.00008C9.18753 7.88675 8.47003 8.60425 7.58336 8.60425Z" fill="#D92626"/>
<path d="M11.0837 12.1042H10.5003C10.2612 12.1042 10.0628 11.9059 10.0628 11.6667C10.0628 11.2642 9.73616 10.9376 9.33366 10.9376C8.93116 10.9376 8.60449 11.2642 8.60449 11.6667C8.60449 11.9059 8.40616 12.1042 8.16699 12.1042H5.83366C5.59449 12.1042 5.39616 11.9059 5.39616 11.6667C5.39616 11.2642 5.06949 10.9376 4.66699 10.9376C4.26449 10.9376 3.93782 11.2642 3.93782 11.6667C3.93782 11.9059 3.73949 12.1042 3.50032 12.1042H2.91699C1.70949 12.1042 0.729492 11.1242 0.729492 9.91675C0.729492 9.67758 0.927825 9.47925 1.16699 9.47925C1.40616 9.47925 1.60449 9.67758 1.60449 9.91675C1.60449 10.6401 2.19366 11.2292 2.91699 11.2292H3.12114C3.31364 10.5584 3.93199 10.0626 4.66699 10.0626C5.40199 10.0626 6.02034 10.5584 6.21284 11.2292H7.79365C7.98615 10.5584 8.6045 10.0626 9.3395 10.0626C10.0745 10.0626 10.6928 10.5584 10.8853 11.2292H11.0837C11.807 11.2292 12.3962 10.6401 12.3962 9.91675V8.60425H11.0837C10.5237 8.60425 10.0628 8.14341 10.0628 7.58341V5.83341C10.0628 5.27341 10.5178 4.81258 11.0837 4.81258L10.4595 3.72175C10.3312 3.49425 10.0862 3.35425 9.82367 3.35425H9.18782V7.00008C9.18782 7.88675 8.47032 8.60425 7.58366 8.60425H7.00032C6.76116 8.60425 6.56282 8.40591 6.56282 8.16675C6.56282 7.92758 6.76116 7.72925 7.00032 7.72925H7.58366C7.98616 7.72925 8.31282 7.40258 8.31282 7.00008V2.91675C8.31282 2.67758 8.51116 2.47925 8.75032 2.47925H9.82367C10.4012 2.47925 10.932 2.78842 11.2178 3.29009L12.2153 5.03425C12.2912 5.16842 12.2912 5.33758 12.2153 5.47175C12.1395 5.60592 11.9936 5.68758 11.8361 5.68758H11.0837C11.002 5.68758 10.9378 5.75175 10.9378 5.83341V7.58341C10.9378 7.66508 11.002 7.72925 11.0837 7.72925H12.8337C13.0728 7.72925 13.2712 7.92758 13.2712 8.16675V9.91675C13.2712 11.1242 12.2912 12.1042 11.0837 12.1042Z" fill="#D92626"/>
<path d="M4.66667 13.2708C3.78 13.2708 3.0625 12.5533 3.0625 11.6667C3.0625 10.78 3.78 10.0625 4.66667 10.0625C5.55333 10.0625 6.27083 10.78 6.27083 11.6667C6.27083 12.5533 5.55333 13.2708 4.66667 13.2708ZM4.66667 10.9375C4.26417 10.9375 3.9375 11.2642 3.9375 11.6667C3.9375 12.0692 4.26417 12.3958 4.66667 12.3958C5.06917 12.3958 5.39583 12.0692 5.39583 11.6667C5.39583 11.2642 5.06917 10.9375 4.66667 10.9375Z" fill="#D92626"/>
<path d="M9.33366 13.2708C8.44699 13.2708 7.72949 12.5533 7.72949 11.6667C7.72949 10.78 8.44699 10.0625 9.33366 10.0625C10.2203 10.0625 10.9378 10.78 10.9378 11.6667C10.9378 12.5533 10.2203 13.2708 9.33366 13.2708ZM9.33366 10.9375C8.93116 10.9375 8.60449 11.2642 8.60449 11.6667C8.60449 12.0692 8.93116 12.3958 9.33366 12.3958C9.73616 12.3958 10.0628 12.0692 10.0628 11.6667C10.0628 11.2642 9.73616 10.9375 9.33366 10.9375Z" fill="#D92626"/>
<path d="M12.8333 8.60417H11.0833C10.5233 8.60417 10.0625 8.14333 10.0625 7.58333V5.83333C10.0625 5.27333 10.5233 4.8125 11.0833 4.8125H11.8358C11.9933 4.8125 12.1392 4.89417 12.215 5.03417L13.2125 6.78417C13.2475 6.84834 13.2708 6.92417 13.2708 7V8.16667C13.2708 8.40583 13.0725 8.60417 12.8333 8.60417ZM11.0833 5.6875C11.0017 5.6875 10.9375 5.75167 10.9375 5.83333V7.58333C10.9375 7.665 11.0017 7.72917 11.0833 7.72917H12.3958V7.11667L11.5792 5.6875H11.0833Z" fill="#D92626"/>
<path d="M4.66699 5.10425H1.16699C0.927826 5.10425 0.729492 4.90591 0.729492 4.66675C0.729492 4.42758 0.927826 4.22925 1.16699 4.22925H4.66699C4.90616 4.22925 5.10449 4.42758 5.10449 4.66675C5.10449 4.90591 4.90616 5.10425 4.66699 5.10425Z" fill="#D92626"/>
<path d="M3.50033 6.85425H1.16699C0.927826 6.85425 0.729492 6.65591 0.729492 6.41675C0.729492 6.17758 0.927826 5.97925 1.16699 5.97925H3.50033C3.73949 5.97925 3.93783 6.17758 3.93783 6.41675C3.93783 6.65591 3.73949 6.85425 3.50033 6.85425Z" fill="#D92626"/>
<path d="M2.33366 8.60425H1.16699C0.927826 8.60425 0.729492 8.40591 0.729492 8.16675C0.729492 7.92758 0.927826 7.72925 1.16699 7.72925H2.33366C2.57283 7.72925 2.77116 7.92758 2.77116 8.16675C2.77116 8.40591 2.57283 8.60425 2.33366 8.60425Z" fill="#D92626"/>
</svg>
