<svg width="12" height="12" viewBox="0 0 12 12" fill="none" xmlns="http://www.w3.org/2000/svg">
<path d="M6.5 7.375H1C0.795 7.375 0.625 7.205 0.625 7V3C0.625 1.69 1.69 0.625 3 0.625H7.5C7.705 0.625 7.875 0.795 7.875 1V6C7.875 6.76 7.26 7.375 6.5 7.375ZM1.375 6.625H6.5C6.845 6.625 7.125 6.345 7.125 6V1.375H3C2.105 1.375 1.375 2.105 1.375 3V6.625Z" fill="#D92626"/>
<path d="M9.5 10.375H9C8.795 10.375 8.625 10.205 8.625 10C8.625 9.655 8.345 9.375 8 9.375C7.655 9.375 7.375 9.655 7.375 10C7.375 10.205 7.205 10.375 7 10.375H5C4.795 10.375 4.625 10.205 4.625 10C4.625 9.655 4.345 9.375 4 9.375C3.655 9.375 3.375 9.655 3.375 10C3.375 10.205 3.205 10.375 3 10.375H2.5C1.465 10.375 0.625 9.535 0.625 8.5V7C0.625 6.795 0.795 6.625 1 6.625H6.5C6.845 6.625 7.125 6.345 7.125 6V2.5C7.125 2.295 7.295 2.125 7.5 2.125H8.42C8.915 2.125 9.37001 2.39001 9.61501 2.82001L10.47 4.315C10.535 4.43 10.535 4.575 10.47 4.69C10.405 4.805 10.28 4.875 10.145 4.875H9.5C9.43 4.875 9.375 4.93 9.375 5V6.5C9.375 6.57 9.43 6.625 9.5 6.625H11C11.205 6.625 11.375 6.795 11.375 7V8.5C11.375 9.535 10.535 10.375 9.5 10.375ZM9.325 9.625H9.5C10.12 9.625 10.625 9.12 10.625 8.5V7.375H9.5C9.02 7.375 8.625 6.98 8.625 6.5V5C8.625 4.52 9.015 4.125 9.5 4.125L8.965 3.19C8.855 2.995 8.645 2.875 8.42 2.875H7.875V6C7.875 6.76 7.26 7.375 6.5 7.375H1.375V8.5C1.375 9.12 1.88 9.625 2.5 9.625H2.675C2.84 9.05 3.37 8.625 4 8.625C4.63 8.625 5.16 9.05 5.325 9.625H6.67999C6.84499 9.05 7.37501 8.625 8.00501 8.625C8.63501 8.625 9.16 9.05 9.325 9.625Z" fill="#D92626"/>
<path d="M4 11.375C3.24 11.375 2.625 10.76 2.625 10C2.625 9.24 3.24 8.625 4 8.625C4.76 8.625 5.375 9.24 5.375 10C5.375 10.76 4.76 11.375 4 11.375ZM4 9.375C3.655 9.375 3.375 9.655 3.375 10C3.375 10.345 3.655 10.625 4 10.625C4.345 10.625 4.625 10.345 4.625 10C4.625 9.655 4.345 9.375 4 9.375Z" fill="#D92626"/>
<path d="M8 11.375C7.24 11.375 6.625 10.76 6.625 10C6.625 9.24 7.24 8.625 8 8.625C8.76 8.625 9.375 9.24 9.375 10C9.375 10.76 8.76 11.375 8 11.375ZM8 9.375C7.655 9.375 7.375 9.655 7.375 10C7.375 10.345 7.655 10.625 8 10.625C8.345 10.625 8.625 10.345 8.625 10C8.625 9.655 8.345 9.375 8 9.375Z" fill="#D92626"/>
<path d="M11 7.375H9.5C9.02 7.375 8.625 6.98 8.625 6.5V5C8.625 4.52 9.02 4.125 9.5 4.125H10.145C10.28 4.125 10.405 4.195 10.47 4.315L11.325 5.815C11.355 5.87 11.375 5.935 11.375 6V7C11.375 7.205 11.205 7.375 11 7.375ZM9.5 4.875C9.43 4.875 9.375 4.93 9.375 5V6.5C9.375 6.57 9.43 6.625 9.5 6.625H10.625V6.10001L9.925 4.875H9.5Z" fill="#D92626"/>
</svg>
