<svg width="20" height="20" viewBox="0 0 20 20" fill="none" xmlns="http://www.w3.org/2000/svg">
<path d="M5.74984 17.1665C6.99984 17.9165 8.49984 18.3332 9.99984 18.3332C14.5832 18.3332 18.3332 14.5832 18.3332 9.99984C18.3332 5.4165 14.5832 1.6665 9.99984 1.6665C5.4165 1.6665 1.6665 5.4165 1.6665 9.99984C1.6665 11.4998 2.08317 12.9165 2.74984 14.1665L2.10695 16.6392C1.91222 17.3881 2.60543 18.0649 3.34949 17.8523L5.74984 17.1665Z" stroke="#EDEDED" stroke-width="1.5" stroke-miterlimit="10" stroke-linecap="round" stroke-linejoin="round"/>
<path d="M13.75 12.3737C13.75 12.5087 13.72 12.6475 13.6561 12.7825C13.5923 12.9175 13.5096 13.045 13.4007 13.165C13.2167 13.3675 13.0139 13.5138 12.7848 13.6075C12.5595 13.7013 12.3153 13.75 12.0525 13.75C11.6694 13.75 11.26 13.66 10.8281 13.4763C10.3962 13.2925 9.96432 13.045 9.53618 12.7338C9.10428 12.4188 8.69492 12.07 8.30433 11.6837C7.9175 11.2937 7.56823 10.885 7.25651 10.4575C6.94855 10.03 6.70068 9.6025 6.52041 9.17875C6.34014 8.75125 6.25 8.3425 6.25 7.9525C6.25 7.6975 6.29507 7.45375 6.3852 7.22875C6.47534 7 6.61805 6.79 6.8171 6.6025C7.05746 6.36625 7.32036 6.25 7.59827 6.25C7.70343 6.25 7.80859 6.2725 7.90248 6.3175C8.00013 6.3625 8.0865 6.43 8.15411 6.5275L9.02541 7.75375C9.09301 7.8475 9.14184 7.93375 9.17564 8.01625C9.20944 8.095 9.22822 8.17375 9.22822 8.245C9.22822 8.335 9.20193 8.425 9.14935 8.51125C9.10053 8.5975 9.02917 8.6875 8.93903 8.7775L8.65361 9.07375C8.61229 9.115 8.59352 9.16375 8.59352 9.22375C8.59352 9.25375 8.59727 9.28 8.60478 9.31C8.61605 9.34 8.62732 9.3625 8.63483 9.385C8.70243 9.50875 8.81885 9.67 8.9841 9.865C9.1531 10.06 9.33337 10.2588 9.52867 10.4575C9.73147 10.6563 9.92677 10.84 10.1258 11.0087C10.3211 11.1737 10.4826 11.2862 10.6103 11.3537C10.6291 11.3612 10.6516 11.3725 10.6779 11.3837C10.7079 11.395 10.738 11.3987 10.7718 11.3987C10.8356 11.3987 10.8845 11.3763 10.9258 11.335L11.2112 11.0538C11.3051 10.96 11.3952 10.8887 11.4816 10.8438C11.568 10.7912 11.6544 10.765 11.7482 10.765C11.8196 10.765 11.8947 10.78 11.9773 10.8138C12.06 10.8475 12.1463 10.8963 12.2402 10.96L13.4834 11.8412C13.581 11.9087 13.6486 11.9875 13.6899 12.0812C13.7275 12.175 13.75 12.2687 13.75 12.3737Z" stroke="#EDEDED" stroke-miterlimit="10"/>
</svg>
