<?xml version="1.0" standalone="no"?>
<!DOCTYPE svg PUBLIC "-//W3C//DTD SVG 1.1//EN" "http://www.w3.org/Graphics/SVG/1.1/DTD/svg11.dtd" >
<svg xmlns="http://www.w3.org/2000/svg" xmlns:xlink="http://www.w3.org/1999/xlink" version="1.1">
<metadata>
Created by FontForge 20201107 at Tue May 10 09:13:04 2022
 By 
Copyright (c) 2022 by Reza Bakhtiarifard. All rights reserved.
</metadata>
<defs>
<font id="YekanBakhFaNum-Regular" horiz-adv-x="0" >
  <font-face 
    font-family="Yekan Bakh FaNum"
    font-weight="400"
    font-stretch="normal"
    units-per-em="1000"
    panose-1="0 0 5 0 0 0 0 0 0 0"
    ascent="800"
    descent="-200"
    x-height="450"
    cap-height="612"
    bbox="-206 -515 1590 983"
    underline-thickness="27"
    underline-position="-75"
    unicode-range="U+0020-FFFC"
  />
<missing-glyph horiz-adv-x="590" 
d="M80 0v647h430v-647h-430zM163 86h264v475h-264v-475z" />
    <glyph glyph-name="uni0622" unicode="&#x627;&#x653;" horiz-adv-x="264" 
d="M16 690.5q-12 -7.5 -18 -23.5l-26 -62l-56 25l30 77q15 37 38 51t65 14h245v-74h-245q-21 0 -33 -7.5zM173 556v-556h-83v556h83z" />
    <glyph glyph-name="uni0623" unicode="&#x627;&#x654;" horiz-adv-x="264" 
d="M24.5 645q-15.5 26 -15.5 55q0 50 31.5 81t83.5 31h50v-54h-49q-29 0 -46.5 -16.5t-17.5 -40.5q0 -26 18 -42.5t42 -16.5q15 0 33 8t62 32l22 -48l-208 -107l-26 49l66 33q-30 10 -45.5 36zM173 502v-502h-83v502h83z" />
    <glyph glyph-name="uni0625" unicode="&#x627;&#x655;" horiz-adv-x="264" 
d="M90 647h83v-647h-83v647zM43.5 -264.5q-15.5 25.5 -15.5 54.5q0 50 31.5 81.5t83.5 31.5h50v-54h-49q-29 0 -47 -16.5t-18 -40.5q0 -26 18.5 -42.5t42.5 -16.5q15 0 33 8t62 32l22 -48l-208 -107l-26 48l66 34q-30 10 -45.5 35.5z" />
    <glyph glyph-name="uniFE89" unicode="&#x64a;&#x654;" horiz-adv-x="773" 
d="M536 48h-190v182q0 83 50 134.5t135 51.5h127l7 -83h-136q-44 0 -71.5 -28.5t-27.5 -71.5v-99h120q72 0 107.5 -37.5t35.5 -106.5q0 -63 -36.5 -117t-99 -85.5t-138.5 -31.5h-77q-126 0 -194 73t-68 204v189h83v-187q0 -95 46 -144t135 -49h75q56 0 99.5 18.5t67.5 51
t24 73.5q0 63 -74 63zM99.5 442.5q-15.5 25.5 -15.5 55.5q0 50 31.5 81t83.5 31h50v-54h-49q-28 0 -46 -16.5t-18 -40.5q0 -26 18 -42.5t42 -16.5q13 0 30.5 7.5t38 18t27.5 14.5l21 -48l-208 -107l-25 49l65 33q-30 10 -45.5 35.5z" />
    <glyph glyph-name="uni06C0" unicode="&#x647;&#x654;" horiz-adv-x="554" 
d="M137 628.5q-25 21.5 -25 57.5q0 28 11.5 57.5t42.5 77.5h144l-8 -63h-105q-26 -37 -26 -58q0 -16 11 -23t36 -7h211l-8 -63h-211q-48 0 -73 21.5zM111.5 278.5q31.5 56.5 108.5 132.5l-44 45l59 63q100 -94 150.5 -152.5t69.5 -101t19 -90.5q0 -53 -26 -95t-72.5 -66
t-106.5 -24q-85 0 -137 48.5t-52 126.5q0 57 31.5 113.5zM366.5 257.5q-24.5 40.5 -89.5 100.5q-63 -61 -88.5 -103.5t-25.5 -84.5q0 -41 29.5 -67.5t79.5 -26.5q52 0 85.5 28t33.5 71q0 42 -24.5 82.5z" />
    <glyph glyph-name="uniFBA5" unicode="&#xfeea;&#x654;" horiz-adv-x="554" arabic-form="final" 
d="M162 563.5q-25 21.5 -25 57.5q0 28 11.5 57.5t42.5 77.5h144l-8 -63h-105q-26 -37 -26 -58q0 -16 11 -23t36 -7h211l-8 -63h-211q-48 0 -73 21.5zM474.5 109q18.5 -24 56.5 -24h23q10 0 10 -43q0 -42 -10 -42h-25q-51 0 -84 26t-43 77q-22 -26 -63 -39.5t-90 -13.5
q-80 0 -124.5 44.5t-44.5 131.5q0 56 23.5 103t66 74.5t97.5 27.5h189v-248q0 -50 18.5 -74zM260 130q53 0 85.5 20.5t32.5 53.5v147h-105q-53 0 -83.5 -31.5t-30.5 -88.5q0 -101 101 -101z" />
    <glyph glyph-name="uniFDF2" unicode="&#x627;&#xfedf;&#xfee0;&#xfeea;" horiz-adv-x="1441" arabic-form="isolated" 
d="M762 983v-200h-54v200h54zM834.5 592q16.5 16 16.5 57v83h54v-77q0 -68 -30 -100.5t-89 -32.5h-10q-15 0 -23.5 3t-18.5 12q-10 -9 -18 -12t-24 -3h-9q-59 0 -89 32.5t-30 100.5v77h53v-83q0 -41 16.5 -57t49.5 -16h25v136h53v-136h24q33 0 49.5 16zM957 105.5
q23 20.5 23 53.5v366h81v-368q0 -73 -44 -115t-118 -42h-51q-43 0 -74 16t-42 44q-35 -60 -123 -60h-78q-53 0 -87 25t-44 74q-21 -24 -61 -37t-88 -13q-80 0 -125.5 45t-45.5 132q0 57 24 104t68.5 74.5t101.5 27.5h102v71h82v-320q0 -50 18.5 -74t55.5 -24h80
q36 0 58.5 20.5t22.5 53.5v266h82v-261q0 -41 22 -60t54 -19h47q36 0 59 20.5zM261 133q53 0 84 20.5t31 53.5v142h-100q-53 0 -83.5 -31t-30.5 -87q0 -98 99 -98zM1267 647h83v-647h-83v647z" />
    <glyph glyph-name="uniFDFC" unicode="&#x631;&#xfbfe;&#xfe8e;&#x644;" horiz-adv-x="1670" arabic-form="isolated" 
d="M575 647h83v-612q0 -86 -34.5 -149t-96 -96.5t-141.5 -33.5h-44q-126 0 -194 73t-68 204v189h83v-187q0 -95 46 -144t135 -49h42q86 0 137.5 50t51.5 135v620zM1312 159q0 -74 -45 -116.5t-119 -42.5h-104q-4 0 -5 4q-2 -4 -6 -4h-26q-76 0 -115 45.5t-39 129.5v472h83
v-468q0 -47 18.5 -70t57.5 -23h21q3 0 6 -4q1 4 5 4h104q36 0 58.5 19.5t22.5 54.5v162h83v-163zM1590 322v-293q0 -83 -33 -145t-92.5 -95t-136.5 -33h-28l-8 86h34q85 0 132.5 49.5t47.5 137.5v293h84zM1092 -126v-80h-264v80h264z" />
    <glyph glyph-name="uniFE82" unicode="&#xfe8e;&#x653;" horiz-adv-x="271" arabic-form="final" 
d="M16 690.5q-12 -7.5 -18 -23.5l-26 -62l-56 25l30 77q15 37 38 51t65 14h245v-74h-245q-21 0 -33 -7.5zM278.5 77.5q2.5 -8.5 2.5 -35.5q0 -26 -2.5 -34t-7.5 -8h-26q-76 0 -115.5 45.5t-39.5 129.5v381h83v-377q0 -93 76 -93h22q5 0 7.5 -8.5z" />
    <glyph glyph-name="uniFE84" unicode="&#xfe8e;&#x654;" horiz-adv-x="271" arabic-form="final" 
d="M24.5 645q-15.5 26 -15.5 55q0 50 31.5 81t83.5 31h50v-54h-49q-29 0 -46.5 -16.5t-17.5 -40.5q0 -26 18 -42.5t42 -16.5q15 0 33 8t62 32l22 -48l-208 -107l-26 49l66 33q-30 10 -45.5 36zM278.5 77.5q2.5 -8.5 2.5 -35.5q0 -26 -2.5 -34t-7.5 -8h-26q-76 0 -115.5 45.5
t-39.5 129.5v327h83v-323q0 -93 76 -93h22q5 0 7.5 -8.5z" />
    <glyph glyph-name="uniFE88" unicode="&#xfe8e;&#x655;" horiz-adv-x="271" arabic-form="final" 
d="M278.5 77.5q2.5 -8.5 2.5 -35.5q0 -26 -2.5 -34t-7.5 -8h-26q-76 0 -115.5 45.5t-39.5 129.5v472h83v-468q0 -93 76 -93h22q5 0 7.5 -8.5zM69.5 -264.5q-15.5 25.5 -15.5 54.5q0 50 31.5 81.5t83.5 31.5h50v-54h-49q-29 0 -47 -16.5t-18 -40.5q0 -26 18.5 -42.5
t42.5 -16.5q15 0 33 8t62 32l22 -48l-208 -107l-26 48l66 34q-30 10 -45.5 35.5z" />
    <glyph glyph-name="uniFE8A" unicode="&#xfef2;&#x654;" horiz-adv-x="779" arabic-form="final" 
d="M779 86q10 0 10 -44q0 -42 -10 -42h-104q15 -15 15 -47q0 -58 -33.5 -102.5t-95 -69.5t-142.5 -25h-77q-126 0 -194 73t-68 204v189h83v-187q0 -95 46 -144t135 -49h75q91 0 139.5 29t48.5 80q0 27 -13.5 39.5t-42.5 12.5h-186l9 83h405zM295.5 304.5
q-15.5 25.5 -15.5 55.5q0 50 31.5 81t83.5 31h50v-54h-49q-28 0 -46 -16.5t-18 -40.5q0 -26 18 -42.5t42 -16.5q13 0 30.5 7.5t38 18t27.5 14.5l21 -48l-208 -107l-25 49l65 33q-30 10 -45.5 35.5z" />
    <glyph glyph-name="uniFEF5" unicode="&#xfedf;&#xfe82;" horiz-adv-x="560" arabic-form="isolated" 
d="M27.5 632.5q-11.5 -7.5 -18.5 -23.5l-26 -62l-55 25l30 77q14 37 37 51t65 14h207v-74h-207q-21 0 -32.5 -7.5zM173 502v-416h133q36 0 58.5 20t22.5 54v487h83v-488q0 -74 -45 -116.5t-119 -42.5h-216v502h83z" />
    <glyph glyph-name="uniFEF6" unicode="&#xfee0;&#xfe82;" horiz-adv-x="572" arabic-form="final" 
d="M27.5 632.5q-11.5 -7.5 -18.5 -23.5l-26 -62l-55 25l30 77q14 37 37 51t65 14h207v-74h-207q-21 0 -32.5 -7.5zM173 502v-416h133q36 0 58.5 20t22.5 54v487h83v-482q0 -41 21 -60t56 -19h25q10 0 10 -44q0 -42 -10 -42h-28q-44 0 -74 15.5t-42 44.5q-35 -60 -122 -60
h-216v502h83z" />
    <glyph glyph-name="uniFEF7" unicode="&#xfedf;&#xfe84;" horiz-adv-x="560" arabic-form="isolated" 
d="M173 502v-416h133q36 0 58.5 20t22.5 54v487h83v-488q0 -74 -45 -116.5t-119 -42.5h-216v502h83zM11.5 644.5q-15.5 25.5 -15.5 55.5q0 50 31.5 81t83.5 31h50v-54h-49q-28 0 -46 -16.5t-18 -40.5q0 -26 18 -42.5t42 -16.5q13 0 30.5 7.5t38 18t27.5 14.5l21 -48
l-208 -107l-25 49l65 33q-30 10 -45.5 35.5z" />
    <glyph glyph-name="uniFEF8" unicode="&#xfee0;&#xfe84;" horiz-adv-x="572" arabic-form="final" 
d="M173 502v-416h133q36 0 58.5 20t22.5 54v487h83v-482q0 -41 21 -60t56 -19h25q10 0 10 -44q0 -42 -10 -42h-28q-44 0 -74 15.5t-42 44.5q-35 -60 -122 -60h-216v502h83zM11.5 644.5q-15.5 25.5 -15.5 55.5q0 50 31.5 81t83.5 31h50v-54h-49q-28 0 -46 -16.5t-18 -40.5
q0 -26 18 -42.5t42 -16.5q13 0 30.5 7.5t38 18t27.5 14.5l21 -48l-208 -107l-25 49l65 33q-30 10 -45.5 35.5z" />
    <glyph glyph-name="uniFEF9" unicode="&#xfedf;&#xfe88;" horiz-adv-x="560" arabic-form="isolated" 
d="M173 647v-561h133q36 0 58.5 20t22.5 54v487h83v-488q0 -74 -45 -116.5t-119 -42.5h-216v647h83zM64.5 -264.5q-15.5 25.5 -15.5 54.5q0 50 31.5 81.5t83.5 31.5h50v-54h-49q-29 0 -47 -16.5t-18 -40.5q0 -26 18.5 -42.5t42.5 -16.5q15 0 33 8t62 32l22 -48l-208 -107
l-26 48l66 34q-30 10 -45.5 35.5z" />
    <glyph glyph-name="uniFEFA" unicode="&#xfee0;&#xfe88;" horiz-adv-x="572" arabic-form="final" 
d="M173 647v-561h133q36 0 58.5 20t22.5 54v487h83v-482q0 -41 21 -60t56 -19h25q10 0 10 -44q0 -42 -10 -42h-28q-44 0 -74 15.5t-42 44.5q-35 -60 -122 -60h-216v647h83zM64.5 -264.5q-15.5 25.5 -15.5 54.5q0 50 31.5 81.5t83.5 31.5h50v-54h-49q-29 0 -47 -16.5
t-18 -40.5q0 -26 18.5 -42.5t42.5 -16.5q15 0 33 8t62 32l22 -48l-208 -107l-26 48l66 34q-30 10 -45.5 35.5z" />
    <glyph glyph-name="uniFEFB" unicode="&#xfedf;&#xfe8e;" horiz-adv-x="560" arabic-form="isolated" 
d="M173 647v-561h133q36 0 58.5 20t22.5 54v487h83v-488q0 -74 -45 -116.5t-119 -42.5h-216v647h83z" />
    <glyph glyph-name="uniFEFC" unicode="&#xfee0;&#xfe8e;" horiz-adv-x="572" arabic-form="final" 
d="M173 647v-561h133q36 0 58.5 20t22.5 54v487h83v-482q0 -41 21 -60t56 -19h25q10 0 10 -44q0 -42 -10 -42h-28q-44 0 -74 15.5t-42 44.5q-35 -60 -122 -60h-216v647h83z" />
    <glyph glyph-name="aleffathatanar" unicode="&#x627;&#x64b;" horiz-adv-x="264" 
d="M248 788l-256 -108l-21 49l255 109zM271 650l-256 -108l-21 49l256 109zM173 502v-502h-83v502h83z" />
    <glyph glyph-name="aleffathatanar.fina" unicode="&#xfe8e;&#x64b;" horiz-adv-x="271" 
d="M248 788l-256 -108l-21 49l255 109zM271 650l-256 -108l-21 49l256 109zM278.5 77.5q2.5 -8.5 2.5 -35.5q0 -26 -2.5 -34t-7.5 -8h-26q-76 0 -115.5 45.5t-39.5 129.5v327h83v-323q0 -93 76 -93h22q5 0 7.5 -8.5z" />
    <glyph glyph-name="lellah" unicode="&#xfedf;&#x650;&#xfee0;&#x651;&#x64e;&#xfeea;" horiz-adv-x="1142" 
d="M762 983v-200h-54v200h54zM834.5 592q16.5 16 16.5 57v83h54v-77q0 -68 -30 -100.5t-89 -32.5h-10q-15 0 -23.5 3t-18.5 12q-10 -9 -18 -12t-24 -3h-9q-59 0 -89 32.5t-30 100.5v77h53v-83q0 -41 16.5 -57t49.5 -16h25v136h53v-136h24q33 0 49.5 16zM957 105.5
q23 20.5 23 53.5v366h81v-368q0 -73 -44 -115t-118 -42h-51q-43 0 -74 16t-42 44q-35 -60 -123 -60h-78q-53 0 -87 25t-44 74q-21 -24 -61 -37t-88 -13q-80 0 -125.5 45t-45.5 132q0 57 24 104t68.5 74.5t101.5 27.5h102v71h82v-320q0 -50 18.5 -74t55.5 -24h80
q36 0 58.5 20.5t22.5 53.5v266h82v-261q0 -41 22 -60t54 -19h47q36 0 59 20.5zM261 133q53 0 84 20.5t31 53.5v142h-100q-53 0 -83.5 -31t-30.5 -87q0 -98 99 -98z" />
    <glyph glyph-name="uni0621" unicode="&#x621;" horiz-adv-x="534" arabic-form="isolated" 
d="M109 171.5q-29 40.5 -29 93.5q0 52 24.5 94t64.5 66t86 24q55 0 107 -30l-25 -70q-45 17 -80 17q-43 0 -70 -28.5t-27 -70.5t30 -70t80 -28q20 0 51.5 12.5t98.5 46.5l34 -76l-331 -163l-37 75l104 51q-52 16 -81 56.5z" />
    <glyph glyph-name="uni0624" unicode="&#x624;" horiz-adv-x="541" arabic-form="isolated" 
d="M429 -115q-32 -62 -90.5 -95.5t-137.5 -33.5h-123l-8 86h132q80 0 127.5 42.5t48.5 115.5h-100q-103 0 -148.5 42.5t-45.5 132.5q0 62 24 110.5t67.5 75t98.5 26.5q87 0 137 -58t50 -159v-138q0 -85 -32 -147zM192.5 107.5q25.5 -21.5 90.5 -21.5h95v78q0 69 -28 104
t-81 35q-46 0 -74 -34t-28 -89q0 -51 25.5 -72.5zM169.5 579.5q-15.5 25.5 -15.5 55.5q0 50 31.5 81t83.5 31h50v-54h-49q-28 0 -46 -16.5t-18 -40.5q0 -26 18 -42.5t42 -16.5q13 0 30.5 7.5t38 18t27.5 14.5l21 -48l-208 -107l-25 49l65 33q-30 10 -45.5 35.5z" />
    <glyph glyph-name="uni0627" unicode="&#x627;" horiz-adv-x="264" arabic-form="isolated" 
d="M90 647h83v-647h-83v647z" />
    <glyph glyph-name="uni0628" unicode="&#x628;" horiz-adv-x="858" arabic-form="isolated" 
d="M673 106q22 20 22 53v163h83v-165q0 -73 -44.5 -115t-118.5 -42h-358q-88 0 -132.5 46t-44.5 127v149h83v-138q0 -98 99 -98h353q36 0 58 20zM375 -209v83h106v-83h-106z" />
    <glyph glyph-name="uni0629" unicode="&#x629;" horiz-adv-x="554" arabic-form="isolated" 
d="M111.5 278.5q31.5 56.5 108.5 132.5l-44 45l59 63q100 -94 150.5 -152.5t69.5 -101t19 -90.5q0 -53 -26 -95t-72.5 -66t-106.5 -24q-85 0 -137 48.5t-52 126.5q0 57 31.5 113.5zM366.5 257.5q-24.5 40.5 -89.5 100.5q-63 -61 -88.5 -103.5t-25.5 -84.5q0 -41 29.5 -67.5
t79.5 -26.5q52 0 85.5 28t33.5 71q0 42 -24.5 82.5zM406 690v-79h-264v79h264z" />
    <glyph glyph-name="uni062A" unicode="&#x62a;" horiz-adv-x="858" arabic-form="isolated" 
d="M673 106q22 20 22 53v163h83v-165q0 -73 -44.5 -115t-118.5 -42h-358q-88 0 -132.5 46t-44.5 127v149h83v-138q0 -98 99 -98h353q36 0 58 20zM560 485v-79h-264v79h264z" />
    <glyph glyph-name="uni062B" unicode="&#x62b;" horiz-adv-x="858" arabic-form="isolated" 
d="M673 106q22 20 22 53v163h83v-165q0 -73 -44.5 -115t-118.5 -42h-358q-88 0 -132.5 46t-44.5 127v149h83v-138q0 -98 99 -98h353q36 0 58 20zM474 622v-79h-91v79h91zM560 485v-79h-264v79h264z" />
    <glyph glyph-name="uni062C" unicode="&#x62c;" horiz-adv-x="656" arabic-form="isolated" 
d="M209 -227q46 -34 148 -34h213l-8 -86h-211q-271 0 -271 218q0 90 50 158t165 121l184 84q-13 37 -26 56t-33.5 27t-56.5 8h-236l11 87h239q59 0 96.5 -19t61.5 -65t41 -130l-248 -118q-93 -44 -129 -89.5t-36 -110.5q0 -73 46 -107zM368 -119v83h106v-83h-106z" />
    <glyph glyph-name="uni062D" unicode="&#x62d;" horiz-adv-x="656" arabic-form="isolated" 
d="M209 -227q46 -34 148 -34h213l-8 -86h-211q-271 0 -271 218q0 90 50 158t165 121l184 84q-13 37 -26 56t-33.5 27t-56.5 8h-236l11 87h239q59 0 96.5 -19t61.5 -65t41 -130l-248 -118q-93 -44 -129 -89.5t-36 -110.5q0 -73 46 -107z" />
    <glyph glyph-name="uni062E" unicode="&#x62e;" horiz-adv-x="656" arabic-form="isolated" 
d="M209 -227q46 -34 148 -34h213l-8 -86h-211q-271 0 -271 218q0 90 50 158t165 121l184 84q-13 37 -26 56t-33.5 27t-56.5 8h-236l11 87h239q59 0 96.5 -19t61.5 -65t41 -130l-248 -118q-93 -44 -129 -89.5t-36 -110.5q0 -73 46 -107zM255 529v83h106v-83h-106z" />
    <glyph glyph-name="uni062F" unicode="&#x62f;" horiz-adv-x="600" arabic-form="isolated" 
d="M460 283q32 -37 46 -69.5t14 -65.5q0 -66 -46 -107t-129 -41h-285l-8 86h293q44 0 68 17t24 46q0 18 -9.5 36.5t-31.5 44.5l-187 215l59 59z" />
    <glyph glyph-name="uni0630" unicode="&#x630;" horiz-adv-x="600" arabic-form="isolated" 
d="M460 283q32 -37 46 -69.5t14 -65.5q0 -66 -46 -107t-129 -41h-285l-8 86h293q44 0 68 17t24 46q0 18 -9.5 36.5t-31.5 44.5l-187 215l59 59zM207 614v83h106v-83h-106z" />
    <glyph glyph-name="uni0631" unicode="&#x631;" horiz-adv-x="368" arabic-form="isolated" 
d="M255 -116q-33 -62 -92.5 -95t-136.5 -33h-28l-8 86h34q85 0 133 49.5t48 137.5v293h83v-293q0 -83 -33 -145z" />
    <glyph glyph-name="uni0632" unicode="&#x632;" horiz-adv-x="368" arabic-form="isolated" 
d="M255 -116q-33 -62 -92.5 -95t-136.5 -33h-28l-8 86h34q85 0 133 49.5t48 137.5v293h83v-293q0 -83 -33 -145zM186 442v83h106v-83h-106z" />
    <glyph glyph-name="uni0633" unicode="&#x633;" horiz-adv-x="1258" arabic-form="isolated" 
d="M945.5 106.5q21.5 -20.5 62.5 -20.5q42 0 64.5 20.5t22.5 58.5v157h83v-155q0 -78 -45.5 -122.5t-124.5 -44.5q-101 0 -129 62q-39 -62 -132 -62q-65 0 -89 29v-12q-1 -76 -36 -135.5t-96 -92.5t-140 -33h-44q-126 0 -194 73t-68 204v189h83v-187q0 -95 46 -144t135 -49
h42q86 0 137.5 50t51.5 135v295h83v-159q0 -36 22.5 -56.5t66.5 -20.5q45 0 69.5 21t24.5 58v157h83v-157q0 -38 21.5 -58.5z" />
    <glyph glyph-name="uni0634" unicode="&#x634;" horiz-adv-x="1258" arabic-form="isolated" 
d="M945.5 106.5q21.5 -20.5 62.5 -20.5q42 0 64.5 20.5t22.5 58.5v157h83v-155q0 -78 -45.5 -122.5t-124.5 -44.5q-101 0 -129 62q-39 -62 -132 -62q-65 0 -89 29v-12q-1 -76 -36 -135.5t-96 -92.5t-140 -33h-44q-126 0 -194 73t-68 204v189h83v-187q0 -95 46 -144t135 -49
h42q86 0 137.5 50t51.5 135v295h83v-159q0 -36 22.5 -56.5t66.5 -20.5q45 0 69.5 21t24.5 58v157h83v-157q0 -38 21.5 -58.5zM928 658v-79h-91v79h91zM1014 521v-79h-264v79h264z" />
    <glyph glyph-name="uni0635" unicode="&#x635;" horiz-adv-x="1306" arabic-form="isolated" 
d="M702 98q93 167 172 240t163 73q53 0 96 -26.5t67.5 -73t24.5 -106.5q0 -92 -56.5 -148.5t-152.5 -56.5h-241q-46 0 -75.5 9t-41.5 23v-12q-1 -78 -36 -138t-96 -93t-140 -33h-44q-126 0 -194 73t-68 204v189h83v-187q0 -95 46 -144t135 -49h42q86 0 137.5 50t51.5 135
v295h83v-159q0 -50 44 -65zM1109 118q33 32 33 87q0 54 -31.5 88.5t-79.5 34.5q-57 0 -115.5 -58t-132.5 -184h233q60 0 93 32z" />
    <glyph glyph-name="uni0636" unicode="&#x636;" horiz-adv-x="1306" arabic-form="isolated" 
d="M702 98q93 167 172 240t163 73q53 0 96 -26.5t67.5 -73t24.5 -106.5q0 -92 -56.5 -148.5t-152.5 -56.5h-241q-46 0 -75.5 9t-41.5 23v-12q-1 -78 -36 -138t-96 -93t-140 -33h-44q-126 0 -194 73t-68 204v189h83v-187q0 -95 46 -144t135 -49h42q86 0 137.5 50t51.5 135
v295h83v-159q0 -50 44 -65zM1109 118q33 32 33 87q0 54 -31.5 88.5t-79.5 34.5q-57 0 -115.5 -58t-132.5 -184h233q60 0 93 32zM979 518v83h106v-83h-106z" />
    <glyph glyph-name="uni0637" unicode="&#x637;" horiz-adv-x="737" arabic-form="isolated" 
d="M345 366q61 45 123 45q54 0 97 -26.5t67.5 -73t24.5 -106.5q0 -92 -57 -148.5t-153 -56.5h-387l-8 86h86v561h83v-425q63 99 124 144zM540.5 118q33.5 32 33.5 87q0 54 -32 88.5t-80 34.5q-57 0 -115.5 -58t-132.5 -184h233q60 0 93.5 32z" />
    <glyph glyph-name="uni0638" unicode="&#x638;" horiz-adv-x="737" arabic-form="isolated" 
d="M345 366q61 45 123 45q54 0 97 -26.5t67.5 -73t24.5 -106.5q0 -92 -57 -148.5t-153 -56.5h-387l-8 86h86v561h83v-425q63 99 124 144zM540.5 118q33.5 32 33.5 87q0 54 -32 88.5t-80 34.5q-57 0 -115.5 -58t-132.5 -184h233q60 0 93.5 32zM413 518v83h106v-83h-106z" />
    <glyph glyph-name="uniFEC9" unicode="&#x639;" horiz-adv-x="605" arabic-form="isolated" 
d="M135 200q0 56 24.5 101t69 70.5t101.5 25.5q38 0 72.5 -10t72.5 -34l-28 -68q-61 28 -117 28q-48 0 -80 -31t-32 -77q0 -49 29 -80.5t77 -31.5h179l-8 -86h-189q-63 0 -103 -40.5t-40 -101.5q0 -65 41 -95.5t134 -30.5h187l-8 -86h-184q-131 0 -192 51.5t-61 157.5
q0 65 32.5 119.5t87.5 80.5q-65 47 -65 138z" />
    <glyph glyph-name="uni063A" unicode="&#x63a;" horiz-adv-x="605" arabic-form="isolated" 
d="M135 200q0 56 24.5 101t69 70.5t101.5 25.5q38 0 72.5 -10t72.5 -34l-28 -68q-61 28 -117 28q-48 0 -80 -31t-32 -77q0 -49 29 -80.5t77 -31.5h179l-8 -86h-189q-63 0 -103 -40.5t-40 -101.5q0 -65 41 -95.5t134 -30.5h187l-8 -86h-184q-131 0 -192 51.5t-61 157.5
q0 65 32.5 119.5t87.5 80.5q-65 47 -65 138zM271 523v83h106v-83h-106z" />
    <glyph glyph-name="uni0641" unicode="&#x641;" horiz-adv-x="949" arabic-form="isolated" 
d="M124.5 46q-44.5 46 -44.5 127v149h83v-138q0 -98 99 -98h314q34 0 51 4q-80 30 -111 64.5t-31 92.5q0 53 24.5 96.5t68 68.5t98.5 25q92 0 142.5 -56.5t50.5 -158.5v-34q0 -93 -62 -140.5t-182 -47.5h-368q-88 0 -132.5 46zM786 193v24q0 136 -112 136q-44 0 -75 -30.5
t-31 -73.5q0 -33 16 -56t55 -43.5t112 -44.5q35 29 35 88zM621 542v83h106v-83h-106z" />
    <glyph glyph-name="uni0642" unicode="&#x642;" horiz-adv-x="799" arabic-form="isolated" 
d="M586.5 -114.5q47.5 43.5 49.5 114.5h-100q-102 0 -147.5 42.5t-45.5 132.5q0 62 24 110.5t67 75t98 26.5q87 0 137 -58t50 -159v-138q0 -84 -33.5 -146.5t-94 -96t-138.5 -33.5h-111q-126 0 -194 73t-68 204v189h83v-187q0 -95 46 -144t135 -49h109q86 0 133.5 43.5z
M451 107q25 -21 90 -21h95v78q0 69 -28 104t-81 35q-46 0 -73.5 -34t-27.5 -89q0 -52 25 -73zM664 566v-79h-264v79h264z" />
    <glyph glyph-name="uni0643" unicode="&#x643;" horiz-adv-x="892" arabic-form="isolated" 
d="M689 103q24 17 24 46q0 20 -9.5 39.5t-31.5 41.5l-234 233v72l364 145l25 -80l-292 -115l201 -201q60 -61 60 -136q0 -66 -46 -107t-129 -41h-364q-88 0 -132.5 46t-44.5 127v149h83v-138q0 -98 99 -98h359q44 0 68 17z" />
    <glyph glyph-name="uni0644" unicode="&#x644;" horiz-adv-x="748" arabic-form="isolated" 
d="M148 -171q-68 73 -68 204v189h83v-187q0 -95 46 -144t135 -49h42q86 0 137.5 50t51.5 135v620h83v-612q0 -86 -34.5 -149t-96 -96.5t-141.5 -33.5h-44q-126 0 -194 73z" />
    <glyph glyph-name="uni0645" unicode="&#x645;" horiz-adv-x="748" arabic-form="isolated" 
d="M331 318h-45q-58 0 -90.5 -30.5t-32.5 -85.5v-446h-83v446q0 91 57 145.5t154 54.5h205q84 0 127.5 -42.5t43.5 -119.5v-69q0 -83 -48 -127t-139 -44q-90 0 -136.5 43t-46.5 120v62q0 62 34 93zM584 172v60q0 40 -23.5 63t-64.5 23h-32q-41 0 -62.5 -24t-21.5 -64v-51
q0 -49 25.5 -71t77.5 -22q101 0 101 86z" />
    <glyph glyph-name="uni0646" unicode="&#x646;" horiz-adv-x="738" arabic-form="isolated" 
d="M148 -171q-68 73 -68 204v189h83v-187q0 -95 46 -144t135 -49h42q86 0 137.5 50t51.5 135v295h83v-287q0 -86 -34.5 -149t-96 -96.5t-141.5 -33.5h-44q-126 0 -194 73zM296 352v83h106v-83h-106z" />
    <glyph glyph-name="uniFEE9" unicode="&#x647;" horiz-adv-x="554" arabic-form="isolated" 
d="M111.5 278.5q31.5 56.5 108.5 132.5l-44 45l59 63q100 -94 150.5 -152.5t69.5 -101t19 -90.5q0 -53 -26 -95t-72.5 -66t-106.5 -24q-85 0 -137 48.5t-52 126.5q0 57 31.5 113.5zM366.5 257.5q-24.5 40.5 -89.5 100.5q-63 -61 -88.5 -103.5t-25.5 -84.5q0 -41 29.5 -67.5
t79.5 -26.5q52 0 85.5 28t33.5 71q0 42 -24.5 82.5z" />
    <glyph glyph-name="uni0648" unicode="&#x648;" horiz-adv-x="541" arabic-form="isolated" 
d="M429 -115q-32 -62 -90.5 -95.5t-137.5 -33.5h-123l-8 86h132q80 0 127.5 42.5t48.5 115.5h-100q-103 0 -148.5 42.5t-45.5 132.5q0 62 24 110.5t67.5 75t98.5 26.5q87 0 137 -58t50 -159v-138q0 -85 -32 -147zM192.5 107.5q25.5 -21.5 90.5 -21.5h95v78q0 69 -28 104
t-81 35q-46 0 -74 -34t-28 -89q0 -51 25.5 -72.5z" />
    <glyph glyph-name="uni0649" unicode="&#x649;" horiz-adv-x="773" arabic-form="isolated" 
d="M536 48h-190v182q0 83 50 134.5t135 51.5h127l7 -83h-136q-44 0 -71.5 -28.5t-27.5 -71.5v-99h120q72 0 107.5 -37.5t35.5 -106.5q0 -63 -36.5 -117t-99 -85.5t-138.5 -31.5h-77q-126 0 -194 73t-68 204v189h83v-187q0 -95 46 -144t135 -49h75q56 0 99.5 18.5t67.5 51
t24 73.5q0 63 -74 63z" />
    <glyph glyph-name="uni064A" unicode="&#x64a;" horiz-adv-x="773" arabic-form="isolated" 
d="M536 48h-190v182q0 83 50 134.5t135 51.5h127l7 -83h-136q-44 0 -71.5 -28.5t-27.5 -71.5v-99h120q72 0 107.5 -37.5t35.5 -106.5q0 -63 -36.5 -117t-99 -85.5t-138.5 -31.5h-77q-126 0 -194 73t-68 204v189h83v-187q0 -95 46 -144t135 -49h75q56 0 99.5 18.5t67.5 51
t24 73.5q0 63 -74 63z" />
    <glyph glyph-name="uni066E.fina" unicode="&#x66e;" horiz-adv-x="886" 
d="M672 105.5q23 19.5 23 53.5v163h83v-160q0 -37 20.5 -56.5t60.5 -19.5h27q10 0 10 -44q0 -42 -10 -42h-30q-92 0 -120 59q-35 -59 -126 -59h-353q-88 0 -132.5 46t-44.5 127v149h83v-138q0 -98 99 -98h348q39 0 62 19.5z" />
    <glyph glyph-name="uni066F.fina" unicode="&#x66f;" horiz-adv-x="813" 
d="M586.5 -114.5q47.5 43.5 49.5 114.5h-100q-102 0 -147.5 42.5t-45.5 132.5q0 62 24 110.5t67 75t98 26.5q87 0 137 -58t50 -159v-84h94q5 0 7.5 -8.5t2.5 -35.5q0 -26 -2.5 -34t-7.5 -8h-95q-10 -114 -82 -179t-183 -65h-111q-126 0 -194 73t-68 204v189h83v-187
q0 -95 46 -144t135 -49h109q86 0 133.5 43.5zM451 107q25 -21 90 -21h95v78q0 69 -28 104t-81 35q-46 0 -73.5 -34t-27.5 -89q0 -52 25 -73z" />
    <glyph glyph-name="uni0671" unicode="&#x671;" horiz-adv-x="264" arabic-form="isolated" 
d="M55 672q27 49 59 75.5t68 26.5q37 0 62 -26t25 -66q0 -44 -30.5 -73t-90.5 -29h-138v140h45v-48zM200.5 643.5q17.5 12.5 17.5 36.5q0 19 -12 31t-30 12q-23 0 -48 -24.5t-45 -67.5h67q33 0 50.5 12.5zM173 502v-502h-83v502h83z" />
    <glyph glyph-name="uni067E" unicode="&#x67e;" horiz-adv-x="858" arabic-form="isolated" 
d="M673 106q22 20 22 53v163h83v-165q0 -73 -44.5 -115t-118.5 -42h-358q-88 0 -132.5 46t-44.5 127v149h83v-138q0 -98 99 -98h353q36 0 58 20zM560 -126v-79h-264v79h264zM384 -342v79h88v-79h-88z" />
    <glyph glyph-name="uni0686" unicode="&#x686;" horiz-adv-x="656" arabic-form="isolated" 
d="M209 -227q46 -34 148 -34h213l-8 -86h-211q-271 0 -271 218q0 90 50 158t165 121l184 84q-13 37 -26 56t-33.5 27t-56.5 8h-236l11 87h239q59 0 96.5 -19t61.5 -65t41 -130l-248 -118q-93 -44 -129 -89.5t-36 -110.5q0 -73 46 -107zM529 0v-66h-230v66h230zM376 -184v66
h75v-66h-75z" />
    <glyph glyph-name="uni0695.fina" unicode="&#x695;" horiz-adv-x="385" 
d="M157 -108.5q48 49.5 48 137.5v293h83v-159q0 -37 21.5 -57t62.5 -20h13q10 0 10 -44q0 -42 -10 -42h-13q-27 0 -50 9.5t-34 24.5v-12q-1 -80 -34 -140.5t-92 -93t-136 -32.5h-28l-8 86h34q85 0 133 49.5zM271 -315l-96 -200h-48l-96 200l49 22l71 -155l71 155z" />
    <glyph glyph-name="uni0698" unicode="&#x698;" horiz-adv-x="368" arabic-form="isolated" 
d="M255 -116q-33 -62 -92.5 -95t-136.5 -33h-28l-8 86h34q85 0 133 49.5t48 137.5v293h83v-293q0 -83 -33 -145zM285 658v-79h-91v79h91zM371 521v-79h-264v79h264z" />
    <glyph glyph-name="uni06A0.init" unicode="&#x6a0;" horiz-adv-x="532" 
d="M84 193q0 56 24.5 101t69 70.5t101.5 25.5q38 0 73 -10t73 -34l-29 -68q-61 28 -117 28q-48 0 -80 -31t-32 -77q0 -49 29 -80.5t77 -31.5h179l-8 -86h-444q-10 0 -10 42q0 44 10 44h125q-41 40 -41 107zM314 736v-79h-91v79h91zM400 599v-79h-264v79h264z" />
    <glyph glyph-name="uni06A0.medi" unicode="&#x6a0;" horiz-adv-x="601" 
d="M161.5 91q35.5 5 57.5 17l-135 195l46 84h256q58 0 94.5 -26.5t36.5 -78.5q0 -40 -26.5 -77.5t-102.5 -102.5q15 -9 39.5 -12.5t75.5 -3.5h98q5 0 7.5 -8.5t2.5 -35.5q0 -26 -2.5 -34t-7.5 -8h-98q-65 0 -102.5 4.5t-61 15.5t-44.5 31q-45 -29 -97.5 -40t-135.5 -11h-62
q-10 0 -10 42q0 44 10 44h65q61 0 96.5 5zM420.5 296q-16.5 11 -46.5 11h-198l128 -187q80 66 106.5 95.5t26.5 49.5t-16.5 31zM356 742v-79h-91v79h91zM442 605v-79h-264v79h264z" />
    <glyph glyph-name="uni06A0.fina" unicode="&#x6a0;" horiz-adv-x="600" 
d="M385 387q58 0 94.5 -26.5t36.5 -78.5q0 -40 -26.5 -77.5t-102.5 -102.5q15 -9 39.5 -12.5t75.5 -3.5h98q5 0 7.5 -8.5t2.5 -35.5q0 -26 -2.5 -34t-7.5 -8h-98q-65 0 -102.5 4.5t-61 15.5t-44.5 31q-70 -43 -100.5 -88t-30.5 -96q0 -66 41 -97t134 -31h195l-8 -86h-192
q-131 0 -192 52t-61 159q0 68 34.5 127t107.5 111l-139 201l46 84h256zM419 296q-16 11 -46 11h-198l128 -187q79 66 105.5 95.5t26.5 49.5t-16 31zM355 742v-79h-91v79h91zM441 605v-79h-264v79h264z" />
    <glyph glyph-name="uni06A1.init" unicode="&#x6a1;" horiz-adv-x="550" 
d="M228 90q-81 30 -112 64.5t-31 92.5q0 53 25 96.5t68.5 68.5t98.5 25q92 0 142.5 -56.5t50.5 -158.5v-34q0 -93 -62 -140.5t-183 -47.5h-225q-10 0 -10 42q0 44 10 44h177q34 0 51 4zM387 193v24q0 68 -28.5 102t-83.5 34q-44 0 -75.5 -30.5t-31.5 -73.5q0 -33 16 -56
t55 -43.5t112 -44.5q36 30 36 88z" />
    <glyph glyph-name="uni06A1.medi" unicode="&#x6a1;" horiz-adv-x="556" 
d="M106.5 146.5q-19.5 37.5 -19.5 78.5q0 52 25.5 95.5t69 69t97.5 25.5q55 0 98.5 -23.5t67.5 -65.5t24 -96q0 -91 -78 -144h165q10 0 10 -44q0 -42 -10 -42h-133q-61 0 -92 3.5t-50 12.5q-18 -9 -51.5 -12.5t-94.5 -3.5h-135q-10 0 -10 42q0 44 10 44h160
q-34 23 -53.5 60.5zM200.5 301q-30.5 -30 -30.5 -76q0 -43 28 -78.5t81 -58.5q54 24 80.5 60t26.5 77q0 48 -29 77t-78 29q-48 0 -78.5 -30z" />
    <glyph glyph-name="uni06A1.fina" unicode="&#x6a1;" horiz-adv-x="953" 
d="M504 146.5q-19 37.5 -19 78.5q0 52 25 95.5t69 69t97 25.5q55 0 98.5 -23.5t67.5 -65.5t24 -96q0 -91 -78 -144h165q10 0 10 -44q0 -42 -10 -42h-133q-61 0 -92 3.5t-50 12.5q-19 -9 -52 -12.5t-94 -3.5h-275q-88 0 -132.5 46t-44.5 127v149h83v-138q0 -98 99 -98h295
q-34 23 -53 60.5zM756.5 148q26.5 36 26.5 77q0 48 -28.5 77t-78.5 29q-48 0 -78 -30t-30 -76q0 -43 27.5 -78.5t80.5 -58.5q54 24 80.5 60z" />
    <glyph glyph-name="uni06A4" unicode="&#x6a4;" horiz-adv-x="949" arabic-form="isolated" 
d="M124.5 46q-44.5 46 -44.5 127v149h83v-138q0 -98 99 -98h314q34 0 51 4q-80 30 -111 64.5t-31 92.5q0 53 24.5 96.5t68 68.5t98.5 25q92 0 142.5 -56.5t50.5 -158.5v-34q0 -93 -62 -140.5t-182 -47.5h-368q-88 0 -132.5 46zM786 193v24q0 136 -112 136q-44 0 -75 -30.5
t-31 -73.5q0 -33 16 -56t55 -43.5t112 -44.5q35 29 35 88zM720 758v-79h-91v79h91zM806 621v-79h-264v79h264z" />
    <glyph glyph-name="uni06A9" unicode="&#x6a9;" horiz-adv-x="892" arabic-form="isolated" 
d="M689 103q24 17 24 46q0 20 -9.5 39.5t-31.5 41.5l-234 233v72l364 145l25 -80l-292 -115l201 -201q60 -61 60 -136q0 -66 -46 -107t-129 -41h-364q-88 0 -132.5 46t-44.5 127v149h83v-138q0 -98 99 -98h359q44 0 68 17z" />
    <glyph glyph-name="uni06AA.init" unicode="&#x6aa;" horiz-adv-x="1050" 
d="M859.5 109q27.5 23 27.5 80t-27 81t-96 24h-657v81l330 242l45 -69l-242 -171h529q103 0 152 -45.5t49 -142.5q0 -189 -204 -189h-766q-10 0 -10 42q0 44 10 44h766q66 0 93.5 23z" />
    <glyph glyph-name="uni06AA.medi" unicode="&#x6aa;" horiz-adv-x="1066" 
d="M859.5 109q27.5 23 27.5 80t-27 81t-96 24h-657v81l330 242l45 -69l-242 -171h529q103 0 152 -45.5t49 -142.5q0 -50 -14 -79q13 -13 34 -18.5t58 -5.5h18q10 0 10 -44q0 -42 -10 -42h-18q-99 0 -134 44q-50 -44 -148 -44h-766q-10 0 -10 42q0 44 10 44h766q66 0 93.5 23
z" />
    <glyph glyph-name="uni06AA.fina" unicode="&#x6aa;" horiz-adv-x="1152" 
d="M944.5 109q27.5 23 27.5 80t-27 81t-96 24h-657v81l331 242l44 -69l-242 -171h529q103 0 152 -45.5t49 -142.5q0 -49 -13 -79q12 -13 33 -18.5t58 -5.5h19q10 0 10 -44q0 -42 -10 -42h-19q-98 0 -134 44q-50 -44 -148 -44h-763l-8 86h771q66 0 93.5 23z" />
    <glyph glyph-name="uni06AC.init" unicode="&#x6ac;" horiz-adv-x="548" 
d="M344.5 103q24.5 17 24.5 46q0 20 -9.5 39.5t-31.5 41.5l-235 233v72l365 145l25 -80l-292 -115l200 -201q61 -61 61 -136q0 -66 -46 -107t-129 -41h-277q-10 0 -10 42q0 44 10 44h277q43 0 67.5 17zM93 678v83h106v-83h-106z" />
    <glyph glyph-name="uni06AC.medi" unicode="&#x6ac;" horiz-adv-x="659" 
d="M344.5 103q24.5 17 24.5 46q0 20 -9.5 39.5t-31.5 41.5l-235 233v72l365 145l25 -80l-292 -115l198 -199q95 -96 140 -136t71 -52t59 -12q10 0 10 -44q0 -42 -10 -42q-43 0 -71.5 8.5t-61 33t-85.5 77.5q-4 -53 -47.5 -86t-116.5 -33h-277q-10 0 -10 42q0 44 10 44h277
q43 0 67.5 17zM93 678v83h106v-83h-106z" />
    <glyph glyph-name="uni06AC.fina" unicode="&#x6ac;" horiz-adv-x="1003" 
d="M124.5 46q-44.5 46 -44.5 127v149h83v-138q0 -98 99 -98h359q44 0 68 17t24 46q0 20 -9.5 39.5t-31.5 41.5l-234 233v72l364 145l25 -80l-292 -115l198 -199q96 -96 141 -136t70.5 -52t58.5 -12q10 0 10 -44q0 -42 -10 -42q-43 0 -71 8.5t-60.5 33t-85.5 77.5
q-5 -53 -48.5 -86t-116.5 -33h-364q-88 0 -132.5 46zM159 468v83h106v-83h-106z" />
    <glyph glyph-name="uni06AF" unicode="&#x6af;" horiz-adv-x="892" arabic-form="isolated" 
d="M764 809l17 -54l-343 -142v60zM689 103q24 17 24 46q0 20 -9.5 39.5t-31.5 41.5l-234 233v72l364 145l25 -80l-292 -115l201 -201q60 -61 60 -136q0 -66 -46 -107t-129 -41h-364q-88 0 -132.5 46t-44.5 127v149h83v-138q0 -98 99 -98h359q44 0 68 17z" />
    <glyph glyph-name="uni06B5.init" unicode="&#x6b5;" horiz-adv-x="285" 
d="M270 745l-96 -199h-48l-96 199l49 23l71 -155l71 155zM89 106q22 20 22 53v331h84v-333q0 -73 -45 -115t-119 -42h-31q-10 0 -10 42q0 44 10 44h31q36 0 58 20z" />
    <glyph glyph-name="uni06B5.medi" unicode="&#x6b5;" horiz-adv-x="292" 
d="M267 745l-96 -199h-49l-95 199l48 23l72 -155l71 155zM84 106q22 20 22 53v331h84v-325q0 -41 21 -60t56 -19h25q10 0 10 -42q0 -44 -10 -44h-28q-44 0 -74 15.5t-42 44.5q-35 -60 -122 -60h-31q-3 0 -4 9.5t-1 32.5q0 24 1 34t4 10h31q36 0 58 20z" />
    <glyph glyph-name="uni06B5.fina" unicode="&#x6b5;" horiz-adv-x="755" 
d="M148 -171q-68 73 -68 204v189h83v-187q0 -95 46 -144t135 -49h42q86 0 137.5 50t51.5 135v620h83v-490q0 -33 20.5 -52t57.5 -19h19q10 0 10 -44q0 -42 -10 -42h-16q-26 0 -48 8t-33 21v-12q-1 -76 -36 -135.5t-96 -92.5t-140 -33h-44q-126 0 -194 73zM455 622l-96 -200
h-48l-96 200l49 22l71 -155l71 155z" />
    <glyph glyph-name="uni06BA" unicode="&#x6ba;" horiz-adv-x="738" arabic-form="isolated" 
d="M148 -171q-68 73 -68 204v189h83v-187q0 -95 46 -144t135 -49h42q86 0 137.5 50t51.5 135v295h83v-287q0 -86 -34.5 -149t-96 -96.5t-141.5 -33.5h-44q-126 0 -194 73z" />
    <glyph glyph-name="uni06BD.init" unicode="&#x6bd;" horiz-adv-x="348" 
d="M223 42.5q-45 -42.5 -119 -42.5h-104q-10 0 -10 42q0 44 10 44h104q36 0 58.5 19.5t22.5 54.5v162h83v-163q0 -74 -45 -116.5zM212 -126v-79h-264v79h264zM36 -342v79h88v-79h-88z" />
    <glyph glyph-name="uni06BD.medi" unicode="&#x6bd;" horiz-adv-x="396" 
d="M182 106q23 20 23 54v162h83v-160q0 -37 20.5 -56.5t59.5 -19.5h28q10 0 10 -43t-10 -43h-31q-92 0 -120 59q-35 -59 -125 -59h-120q-10 0 -10 42q0 44 10 44h120q39 0 62 20zM206 -126v-79h-264v79h264zM30 -342v79h88v-79h-88z" />
    <glyph glyph-name="uni06BD.fina" unicode="&#x6bd;" horiz-adv-x="755" 
d="M678.5 105q20.5 -19 57.5 -19h19q10 0 10 -44q0 -42 -10 -42h-16q-26 0 -48 8t-33 21v-12q-1 -76 -36 -135.5t-96 -92.5t-140 -33h-44q-126 0 -194 73t-68 204v189h83v-187q0 -95 46 -144t135 -49h42q86 0 137.5 50t51.5 135v295h83v-165q0 -33 20.5 -52zM374 568v-79
h-91v79h91zM460 431v-79h-264v79h264z" />
    <glyph glyph-name="uni06C1" unicode="&#x6c1;" horiz-adv-x="554" arabic-form="isolated" 
d="M111.5 278.5q31.5 56.5 108.5 132.5l-44 45l59 63q100 -94 150.5 -152.5t69.5 -101t19 -90.5q0 -53 -26 -95t-72.5 -66t-106.5 -24q-85 0 -137 48.5t-52 126.5q0 57 31.5 113.5zM366.5 257.5q-24.5 40.5 -89.5 100.5q-63 -61 -88.5 -103.5t-25.5 -84.5q0 -41 29.5 -67.5
t79.5 -26.5q52 0 85.5 28t33.5 71q0 42 -24.5 82.5z" />
    <glyph glyph-name="uni06C2.fina" unicode="&#x6c2;" horiz-adv-x="594" 
d="M80 62l251 307h94l62 -209q12 -40 32 -57t54 -17h21q10 0 10 -44q0 -42 -10 -42h-21q-63 0 -101.5 29.5t-59.5 94.5l-49 153l-221 -270zM241.5 548.5q-15.5 25.5 -15.5 55.5q0 50 31.5 81t83.5 31h50v-54h-49q-28 0 -46 -16.5t-18 -40.5q0 -26 18 -42.5t42 -16.5
q13 0 30.5 7.5t38 18t27.5 14.5l21 -48l-208 -107l-25 49l65 33q-30 10 -45.5 35.5z" />
    <glyph glyph-name="uni06C3.fina" unicode="&#x6c3;" horiz-adv-x="594" 
d="M80 62l251 307h94l62 -209q12 -40 32 -57t54 -17h21q10 0 10 -44q0 -42 -10 -42h-21q-63 0 -101.5 29.5t-59.5 94.5l-49 153l-221 -270zM484 553v-79h-264v79h264z" />
    <glyph glyph-name="uni06C6" unicode="&#x6c6;" horiz-adv-x="541" arabic-form="isolated" 
d="M429 -115q-32 -62 -90.5 -95.5t-137.5 -33.5h-123l-8 86h132q80 0 127.5 42.5t48.5 115.5h-100q-103 0 -148.5 42.5t-45.5 132.5q0 62 24 110.5t67.5 75t98.5 26.5q87 0 137 -58t50 -159v-138q0 -85 -32 -147zM192.5 107.5q25.5 -21.5 90.5 -21.5h95v78q0 69 -28 104
t-81 35q-46 0 -74 -34t-28 -89q0 -51 25.5 -72.5zM394 687l-96 -200h-48l-96 200l49 22l71 -155l71 155z" />
    <glyph glyph-name="uni06C9" unicode="&#x6c9;" horiz-adv-x="541" arabic-form="isolated" 
d="M274 625l-71 -156l-49 23l96 200h48l96 -200l-48 -23zM429 -115q-32 -62 -90.5 -95.5t-137.5 -33.5h-123l-8 86h132q80 0 127.5 42.5t48.5 115.5h-100q-103 0 -148.5 42.5t-45.5 132.5q0 62 24 110.5t67.5 75t98.5 26.5q87 0 137 -58t50 -159v-138q0 -85 -32 -147z
M192.5 107.5q25.5 -21.5 90.5 -21.5h95v78q0 69 -28 104t-81 35q-46 0 -74 -34t-28 -89q0 -51 25.5 -72.5z" />
    <glyph glyph-name="uni06CC" unicode="&#x6cc;" horiz-adv-x="773" arabic-form="isolated" 
d="M536 48h-190v182q0 83 50 134.5t135 51.5h127l7 -83h-136q-44 0 -71.5 -28.5t-27.5 -71.5v-99h120q72 0 107.5 -37.5t35.5 -106.5q0 -63 -36.5 -117t-99 -85.5t-138.5 -31.5h-77q-126 0 -194 73t-68 204v189h83v-187q0 -95 46 -144t135 -49h75q56 0 99.5 18.5t67.5 51
t24 73.5q0 63 -74 63z" />
    <glyph glyph-name="uni06CE.init" unicode="&#x6ce;" horiz-adv-x="348" 
d="M223 42.5q-45 -42.5 -119 -42.5h-104q-10 0 -10 42q0 44 10 44h104q36 0 58.5 19.5t22.5 54.5v162h83v-163q0 -74 -45 -116.5zM212 -121v-79h-264v79h264zM287 636l-96 -200h-48l-96 200l49 22l71 -155l71 155z" />
    <glyph glyph-name="uni06CE.medi" unicode="&#x6ce;" horiz-adv-x="396" 
d="M182 106q23 20 23 54v162h83v-160q0 -37 20.5 -56.5t59.5 -19.5h28q10 0 10 -43t-10 -43h-31q-92 0 -120 59q-35 -59 -125 -59h-120q-10 0 -10 42q0 44 10 44h120q39 0 62 20zM206 -126v-79h-264v79h264zM338 636l-96 -200h-48l-96 200l49 22l71 -155l71 155z" />
    <glyph glyph-name="uni06CE.fina" unicode="&#x6ce;" horiz-adv-x="779" 
d="M779 86q10 0 10 -44q0 -42 -10 -42h-104q15 -15 15 -47q0 -58 -33.5 -102.5t-95 -69.5t-142.5 -25h-77q-126 0 -194 73t-68 204v189h83v-187q0 -95 46 -144t135 -49h75q91 0 139.5 29t48.5 80q0 27 -13.5 39.5t-42.5 12.5h-186l9 83h405zM500 415l-96 -200h-48l-96 200
l49 22l71 -155l71 155z" />
    <glyph glyph-name="uni06CF.fina" unicode="&#x6cf;" horiz-adv-x="555" 
d="M562.5 77.5q2.5 -8.5 2.5 -35.5q0 -26 -2.5 -34t-7.5 -8h-96q-9 -114 -78 -179t-180 -65h-123l-8 86h132q80 0 127.5 42.5t48.5 115.5h-100q-103 0 -148.5 42.5t-45.5 132.5q0 62 24 110.5t67.5 75t98.5 26.5q87 0 137 -58t50 -159v-84h94q5 0 7.5 -8.5zM192.5 107.5
q25.5 -21.5 90.5 -21.5h95v78q0 69 -28 104t-81 35q-46 0 -74 -34t-28 -89q0 -51 25.5 -72.5zM221 487v83h106v-83h-106z" />
    <glyph glyph-name="uni06D2" unicode="&#x6d2;" horiz-adv-x="894" arabic-form="isolated" 
d="M126.5 39q-46.5 39 -46.5 109q0 99 107 229h239l-8 -83h-192q-30 -32 -46.5 -66t-16.5 -66q0 -34 28 -55t79 -21h543l-10 -86h-541q-89 0 -135.5 39z" />
    <glyph glyph-name="uniFBB0" unicode="&#x6d3;" horiz-adv-x="894" arabic-form="isolated" 
d="M126.5 39q-46.5 39 -46.5 109q0 99 107 229h239l-8 -83h-192q-30 -32 -46.5 -66t-16.5 -66q0 -34 28 -55t79 -21h543l-10 -86h-541q-89 0 -135.5 39zM199.5 568.5q-15.5 25.5 -15.5 55.5q0 50 31.5 81t83.5 31h50v-54h-49q-28 0 -46 -16.5t-18 -40.5q0 -26 18 -42.5
t42 -16.5q13 0 30.5 7.5t38 18t27.5 14.5l21 -48l-208 -107l-25 49l65 33q-30 10 -45.5 35.5z" />
    <glyph glyph-name="uni06D5.fina" unicode="&#x6d5;" horiz-adv-x="556" 
d="M477.5 109.5q18.5 -23.5 54.5 -23.5h24q5 0 7.5 -8.5t2.5 -35.5q0 -26 -2.5 -34t-7.5 -8h-24q-111 0 -134 95q-21 -23 -60 -34.5t-83 -11.5q-85 0 -130 46t-45 135q0 56 24.5 102.5t69 74t101.5 27.5h101v69h83v-317q0 -53 18.5 -76.5zM260 135q53 0 84.5 19.5t31.5 52.5
v143h-101q-52 0 -82 -31t-30 -87q0 -97 97 -97z" />
    <glyph glyph-name="uniFB51" unicode="&#x671;" horiz-adv-x="271" arabic-form="final" 
d="M55 672q27 49 59 75.5t68 26.5q37 0 62 -26t25 -66q0 -44 -30.5 -73t-90.5 -29h-138v140h45v-48zM200.5 643.5q17.5 12.5 17.5 36.5q0 19 -12 31t-30 12q-23 0 -48 -24.5t-45 -67.5h67q33 0 50.5 12.5zM278.5 77.5q2.5 -8.5 2.5 -35.5q0 -26 -2.5 -34t-7.5 -8h-26
q-76 0 -115.5 45.5t-39.5 129.5v327h83v-323q0 -93 76 -93h22q5 0 7.5 -8.5z" />
    <glyph glyph-name="uniFB57" unicode="&#x67e;" horiz-adv-x="886" arabic-form="final" 
d="M672 105.5q23 19.5 23 53.5v163h83v-160q0 -37 20.5 -56.5t60.5 -19.5h27q10 0 10 -44q0 -42 -10 -42h-30q-92 0 -120 59q-35 -59 -126 -59h-353q-88 0 -132.5 46t-44.5 127v149h83v-138q0 -98 99 -98h348q39 0 62 19.5zM560 -126v-79h-264v79h264zM384 -342v79h88v-79
h-88z" />
    <glyph glyph-name="uniFB58" unicode="&#x67e;" horiz-adv-x="348" arabic-form="initial" 
d="M223 42.5q-45 -42.5 -119 -42.5h-104q-10 0 -10 42q0 44 10 44h104q36 0 58.5 19.5t22.5 54.5v162h83v-163q0 -74 -45 -116.5zM212 -126v-79h-264v79h264zM36 -342v79h88v-79h-88z" />
    <glyph glyph-name="uniFB59" unicode="&#x67e;" horiz-adv-x="396" arabic-form="medial" 
d="M182 106q23 20 23 54v162h83v-160q0 -37 20.5 -56.5t59.5 -19.5h28q10 0 10 -43t-10 -43h-31q-92 0 -120 59q-35 -59 -125 -59h-120q-10 0 -10 42q0 44 10 44h120q39 0 62 20zM206 -126v-79h-264v79h264zM30 -342v79h88v-79h-88z" />
    <glyph glyph-name="uniFB67" unicode="&#x679;" horiz-adv-x="886" arabic-form="final" 
d="M672 105.5q23 19.5 23 53.5v163h83v-160q0 -37 20.5 -56.5t60.5 -19.5h27q10 0 10 -44q0 -42 -10 -42h-30q-92 0 -120 59q-35 -59 -126 -59h-353q-88 0 -132.5 46t-44.5 127v149h83v-138q0 -98 99 -98h348q39 0 62 19.5zM359 637v-117q24 39 53 59.5t60 20.5q37 0 62 -26
t25 -66q0 -44 -30.5 -73t-90.5 -29h-124v231h45zM490.5 469.5q17.5 12.5 17.5 36.5q0 19 -12 31t-30 12q-24 0 -48.5 -24.5t-44.5 -67.5h67q33 0 50.5 12.5z" />
    <glyph glyph-name="uniFB68" unicode="&#x679;" horiz-adv-x="348" arabic-form="initial" 
d="M223 42.5q-45 -42.5 -119 -42.5h-104q-10 0 -10 42q0 44 10 44h104q36 0 58.5 19.5t22.5 54.5v162h83v-163q0 -74 -45 -116.5zM93 673v-117q24 39 53 59.5t60 20.5q37 0 62 -26t25 -66q0 -44 -30.5 -73t-90.5 -29h-124v231h45zM224.5 505.5q17.5 12.5 17.5 36.5
q0 19 -12 31t-30 12q-24 0 -48.5 -24.5t-44.5 -67.5h67q33 0 50.5 12.5z" />
    <glyph glyph-name="uniFB69" unicode="&#x679;" horiz-adv-x="396" arabic-form="medial" 
d="M182 106q23 20 23 54v162h83v-160q0 -37 20.5 -56.5t59.5 -19.5h28q10 0 10 -43t-10 -43h-31q-92 0 -120 59q-35 -59 -125 -59h-120q-10 0 -10 42q0 44 10 44h120q39 0 62 20zM126 673v-117q24 39 53 59.5t60 20.5q37 0 62 -26t25 -66q0 -44 -30.5 -73t-90.5 -29h-124
v231h45zM257.5 505.5q17.5 12.5 17.5 36.5q0 19 -12 31t-30 12q-24 0 -48.5 -24.5t-44.5 -67.5h67q33 0 50.5 12.5z" />
    <glyph glyph-name="uniFB6B" unicode="&#x6a4;" horiz-adv-x="953" arabic-form="final" 
d="M504 146.5q-19 37.5 -19 78.5q0 52 25 95.5t69 69t97 25.5q55 0 98.5 -23.5t67.5 -65.5t24 -96q0 -91 -78 -144h165q10 0 10 -44q0 -42 -10 -42h-133q-61 0 -92 3.5t-50 12.5q-19 -9 -52 -12.5t-94 -3.5h-275q-88 0 -132.5 46t-44.5 127v149h83v-138q0 -98 99 -98h295
q-34 23 -53 60.5zM756.5 148q26.5 36 26.5 77q0 48 -28.5 77t-78.5 29q-48 0 -78 -30t-30 -76q0 -43 27.5 -78.5t80.5 -58.5q54 24 80.5 60zM720 748v-79h-91v79h91zM806 611v-79h-264v79h264z" />
    <glyph glyph-name="uniFB6C" unicode="&#x6a4;" horiz-adv-x="550" arabic-form="initial" 
d="M228 90q-81 30 -112 64.5t-31 92.5q0 53 25 96.5t68.5 68.5t98.5 25q92 0 142.5 -56.5t50.5 -158.5v-34q0 -93 -62 -140.5t-183 -47.5h-225q-10 0 -10 42q0 44 10 44h177q34 0 51 4zM387 193v24q0 68 -28.5 102t-83.5 34q-44 0 -75.5 -30.5t-31.5 -73.5q0 -33 16 -56
t55 -43.5t112 -44.5q36 30 36 88zM318 758v-79h-91v79h91zM404 621v-79h-264v79h264z" />
    <glyph glyph-name="uniFB6D" unicode="&#x6a4;" horiz-adv-x="556" arabic-form="medial" 
d="M106.5 146.5q-19.5 37.5 -19.5 78.5q0 52 25.5 95.5t69 69t97.5 25.5q55 0 98.5 -23.5t67.5 -65.5t24 -96q0 -91 -78 -144h165q10 0 10 -44q0 -42 -10 -42h-133q-61 0 -92 3.5t-50 12.5q-18 -9 -51.5 -12.5t-94.5 -3.5h-135q-10 0 -10 42q0 44 10 44h160
q-34 23 -53.5 60.5zM200.5 301q-30.5 -30 -30.5 -76q0 -43 28 -78.5t81 -58.5q54 24 80.5 60t26.5 77q0 48 -29 77t-78 29q-48 0 -78.5 -30zM325 748v-79h-91v79h91zM411 611v-79h-264v79h264z" />
    <glyph glyph-name="uniFB7B" unicode="&#x686;" horiz-adv-x="650" arabic-form="final" 
d="M660 42q0 -27 -3 -34.5t-7 -7.5h-69q-61 0 -97.5 26.5t-65.5 96.5l-90 -43q-93 -44 -129 -89.5t-36 -110.5q0 -73 46 -107t148 -34h213l-8 -86h-211q-271 0 -271 218q0 90 50 158t165 121l184 84q-13 37 -26 56t-33.5 27t-56.5 8h-236l11 87h239q59 0 96.5 -19t61.5 -65
t41 -130l-94 -41q17 -40 39.5 -55.5t62.5 -15.5h66q10 0 10 -44zM475 -27v-59h-222v59h222zM328 -195v59h71v-59h-71z" />
    <glyph glyph-name="uniFB7C" unicode="&#x686;" horiz-adv-x="597" arabic-form="initial" 
d="M195 98q50 12 103 42l152 89q-16 54 -43.5 75t-82.5 21h-234l11 87h237q60 0 99 -20t65 -65.5t45 -125.5l-210 -130q-64 -40 -123 -55.5t-147 -15.5h-67q-10 0 -10 42q0 44 10 44h70q75 0 125 12zM370 -126v-79h-264v79h264zM194 -342v79h88v-79h-88z" />
    <glyph glyph-name="uniFB7D" unicode="&#x686;" horiz-adv-x="634" arabic-form="medial" 
d="M338 412q60 0 99 -20t65 -65.5t45 -125.5l-79 -48q16 -38 38 -52.5t62 -14.5h66q10 0 10 -44q0 -27 -3 -34.5t-7 -7.5h-69q-60 0 -95 24.5t-64 89.5l-69 -43q-64 -40 -123 -55.5t-147 -15.5h-67q-10 0 -10 42q0 44 10 44h70q75 0 125 12t103 42l152 89q-16 54 -43.5 75
t-82.5 21h-234l11 87h237zM370 -126v-79h-264v79h264zM194 -342v79h88v-79h-88z" />
    <glyph glyph-name="uniFB89" unicode="&#x688;" horiz-adv-x="567" arabic-form="final" 
d="M350.5 101q21.5 15 21.5 39q0 20 -16 66t-84 232q-3 8 -6 15.5t-5 13.5l77 35l117 -332q16 -46 36 -65t55 -19h21q10 0 10 -44q0 -27 -2.5 -34.5t-7.5 -7.5h-24q-46 0 -76 15t-47 48q-19 -33 -49.5 -48t-76.5 -15h-234l-8 86h242q35 0 56.5 15zM230 840v-117
q24 39 53 59.5t60 20.5q37 0 62 -26t25 -66q0 -44 -30.5 -73t-90.5 -29h-124v231h45zM361.5 672.5q17.5 12.5 17.5 36.5q0 19 -12 31t-30 12q-24 0 -48.5 -24.5t-44.5 -67.5h67q33 0 50.5 12.5z" />
    <glyph glyph-name="uniFB8B" unicode="&#x698;" horiz-adv-x="385" arabic-form="final" 
d="M157 -108.5q48 49.5 48 137.5v293h83v-159q0 -37 21.5 -57t62.5 -20h13q10 0 10 -44q0 -42 -10 -42h-13q-27 0 -50 9.5t-34 24.5v-12q-1 -80 -34 -140.5t-92 -93t-136 -32.5h-28l-8 86h34q85 0 133 49.5zM285 658v-79h-91v79h91zM371 521v-79h-264v79h264z" />
    <glyph glyph-name="uniFB8D" unicode="&#x691;" horiz-adv-x="385" arabic-form="final" 
d="M157 -108.5q48 49.5 48 137.5v293h83v-159q0 -37 21.5 -57t62.5 -20h13q10 0 10 -44q0 -42 -10 -42h-13q-27 0 -50 9.5t-34 24.5v-12q-1 -80 -34 -140.5t-92 -93t-136 -32.5h-28l-8 86h34q85 0 133 49.5zM162 673v-117q24 39 53 59.5t60 20.5q37 0 62 -26t25 -66
q0 -44 -30.5 -73t-90.5 -29h-124v231h45zM293.5 505.5q17.5 12.5 17.5 36.5q0 19 -12 31t-30 12q-24 0 -48.5 -24.5t-44.5 -67.5h67q33 0 50.5 12.5z" />
    <glyph glyph-name="uniFB8F" unicode="&#x6a9;" horiz-adv-x="1003" arabic-form="final" 
d="M124.5 46q-44.5 46 -44.5 127v149h83v-138q0 -98 99 -98h359q44 0 68 17t24 46q0 20 -9.5 39.5t-31.5 41.5l-234 233v72l364 145l25 -80l-292 -115l198 -199q96 -96 141 -136t70.5 -52t58.5 -12q10 0 10 -44q0 -42 -10 -42q-43 0 -71 8.5t-60.5 33t-85.5 77.5
q-5 -53 -48.5 -86t-116.5 -33h-364q-88 0 -132.5 46z" />
    <glyph glyph-name="uniFB90" unicode="&#x6a9;" horiz-adv-x="548" arabic-form="initial" 
d="M344.5 103q24.5 17 24.5 46q0 20 -9.5 39.5t-31.5 41.5l-235 233v72l365 145l25 -80l-292 -115l200 -201q61 -61 61 -136q0 -66 -46 -107t-129 -41h-277q-10 0 -10 42q0 44 10 44h277q43 0 67.5 17z" />
    <glyph glyph-name="uniFB91" unicode="&#x6a9;" horiz-adv-x="659" arabic-form="medial" 
d="M344.5 103q24.5 17 24.5 46q0 20 -9.5 39.5t-31.5 41.5l-235 233v72l365 145l25 -80l-292 -115l198 -199q95 -96 140 -136t71 -52t59 -12q10 0 10 -44q0 -42 -10 -42q-43 0 -71.5 8.5t-61 33t-85.5 77.5q-4 -53 -47.5 -86t-116.5 -33h-277q-10 0 -10 42q0 44 10 44h277
q43 0 67.5 17z" />
    <glyph glyph-name="uniFB93" unicode="&#x6af;" horiz-adv-x="1003" arabic-form="final" 
d="M764 809l17 -54l-343 -142v60zM124.5 46q-44.5 46 -44.5 127v149h83v-138q0 -98 99 -98h359q44 0 68 17t24 46q0 20 -9.5 39.5t-31.5 41.5l-234 233v72l364 145l25 -80l-292 -115l198 -199q96 -96 141 -136t70.5 -52t58.5 -12q10 0 10 -44q0 -42 -10 -42q-43 0 -71 8.5
t-60.5 33t-85.5 77.5q-5 -53 -48.5 -86t-116.5 -33h-364q-88 0 -132.5 46z" />
    <glyph glyph-name="uniFB94" unicode="&#x6af;" horiz-adv-x="548" arabic-form="initial" 
d="M419 809l17 -54l-342 -142v60zM344.5 103q24.5 17 24.5 46q0 20 -9.5 39.5t-31.5 41.5l-235 233v72l365 145l25 -80l-292 -115l200 -201q61 -61 61 -136q0 -66 -46 -107t-129 -41h-277q-10 0 -10 42q0 44 10 44h277q43 0 67.5 17z" />
    <glyph glyph-name="uniFB95" unicode="&#x6af;" horiz-adv-x="659" arabic-form="medial" 
d="M419 809l17 -54l-342 -142v60zM344.5 103q24.5 17 24.5 46q0 20 -9.5 39.5t-31.5 41.5l-235 233v72l365 145l25 -80l-292 -115l198 -199q95 -96 140 -136t71 -52t59 -12q10 0 10 -44q0 -42 -10 -42q-43 0 -71.5 8.5t-61 33t-85.5 77.5q-4 -53 -47.5 -86t-116.5 -33h-277
q-10 0 -10 42q0 44 10 44h277q43 0 67.5 17z" />
    <glyph glyph-name="uniFB9F" unicode="&#x6ba;" horiz-adv-x="755" arabic-form="final" 
d="M678.5 105q20.5 -19 57.5 -19h19q10 0 10 -44q0 -42 -10 -42h-16q-26 0 -48 8t-33 21v-12q-1 -76 -36 -135.5t-96 -92.5t-140 -33h-44q-126 0 -194 73t-68 204v189h83v-187q0 -95 46 -144t135 -49h42q86 0 137.5 50t51.5 135v295h83v-165q0 -33 20.5 -52z" />
    <glyph glyph-name="uniFBA7" unicode="&#x6c1;" horiz-adv-x="594" arabic-form="final" 
d="M80 62l251 307h94l62 -209q12 -40 32 -57t54 -17h21q10 0 10 -44q0 -42 -10 -42h-21q-63 0 -101.5 29.5t-59.5 94.5l-49 153l-221 -270z" />
    <glyph glyph-name="uniFBA8" unicode="&#x6c1;" horiz-adv-x="348" arabic-form="initial" 
d="M61 -300.5q-13 14.5 -13 51.5q0 76 7 108.5t28 46.5t71 24v-56q-29 -6 -39.5 -12t-13.5 -18t-3 -43q31 0 45 -12.5t14 -43.5q0 -32 -13.5 -46t-41.5 -14t-41 14.5zM223 42.5q-45 -42.5 -119 -42.5h-104q-10 0 -10 42q0 44 10 44h104q36 0 58.5 19.5t22.5 54.5v162h83
v-163q0 -74 -45 -116.5z" />
    <glyph glyph-name="uniFBA9" unicode="&#x6c1;" horiz-adv-x="429" arabic-form="medial" 
d="M404 86h25q10 0 10 -42q0 -44 -10 -44h-25q-74 0 -112 -43.5t-38 -126.5v-74h-82v322q-20 -37 -62 -57.5t-96 -20.5h-19q-3 0 -4 9.5t-1 32.5q0 24 1 34t4 10h19q74 0 116 42t42 123v71h83v-316q42 80 149 80z" />
    <glyph glyph-name="uniFBAB" unicode="&#x6be;" horiz-adv-x="728" arabic-form="final" 
d="M738 43q0 -43 -10 -43q-67 0 -100 -18t-61 -71l-82 -151h-45q-94 0 -150.5 44t-72.5 130l-134 -55l-31 79l162 62v173q0 100 49.5 159t134.5 59q81 0 128.5 -47.5t47.5 -129.5q0 -86 -66 -151.5t-211 -123.5q8 -60 42.5 -88t100.5 -28l60 112q30 54 58.5 81.5t67.5 38.5
t102 11q10 0 10 -43zM466 302q-25 26 -70 26q-48 0 -73.5 -35.5t-25.5 -99.5v-144q105 42 149.5 82t44.5 98q0 47 -25 73z" />
    <glyph glyph-name="uniFBAC" unicode="&#x6be;" horiz-adv-x="782" arabic-form="initial" 
d="M106.5 145.5q-19.5 37.5 -19.5 76.5q0 54 25.5 97.5t69.5 68t99 24.5q51 0 93 -24t66.5 -65.5t24.5 -92.5q0 -44 -21.5 -81.5t-61.5 -62.5h148q43 0 66 17t23 46q0 19 -9.5 38.5t-34.5 45.5l-203 213l60 61l207 -221q63 -67 63 -138q0 -67 -46 -107.5t-126 -40.5h-113
q-65 0 -94.5 3t-47.5 13q-18 -9 -50.5 -12.5t-95.5 -3.5h-129q-10 0 -10 42q0 44 10 44h157q-31 22 -50.5 59.5zM355.5 146q29.5 35 29.5 76q0 47 -30.5 76.5t-78.5 29.5t-78.5 -29.5t-30.5 -76.5q0 -43 26.5 -77t77.5 -57q55 23 84.5 58z" />
    <glyph glyph-name="uniFBAD" unicode="&#x6be;" horiz-adv-x="612" arabic-form="medial" 
d="M622 42q0 -42 -10 -42q-66 0 -99 -18t-61 -71l-82 -151h-46q-108 0 -169 59.5t-61 168.5v12h-94q-10 0 -10 42q0 44 10 44h94v107q0 100 50 158t136 58q83 0 131 -47.5t48 -129.5q0 -64 -36 -116t-100.5 -82t-145.5 -31v-12q0 -75 36.5 -111.5t110.5 -36.5l61 112
q30 54 58.5 81.5t67.5 38.5t101 11q10 0 10 -44zM350.5 299.5q-25.5 25.5 -71.5 25.5q-49 0 -75.5 -34t-26.5 -98v-107q92 0 145.5 38t53.5 103q0 47 -25.5 72.5z" />
    <glyph glyph-name="uniFBAF" unicode="&#x6d2;" horiz-adv-x="683" arabic-form="final" 
d="M693 42q0 -42 -10 -42h-483q-17 -26 -27 -52t-10 -46q0 -32 27 -50.5t78 -18.5h343l-11 -86h-340q-89 0 -134.5 37t-45.5 105q0 79 79 197h524q10 0 10 -44z" />
    <glyph glyph-name="uniFBB1" unicode="&#x6d3;" horiz-adv-x="683" arabic-form="final" 
d="M693 42q0 -42 -10 -42h-483q-17 -26 -27 -52t-10 -46q0 -32 27 -50.5t78 -18.5h343l-11 -86h-340q-89 0 -134.5 37t-45.5 105q0 79 79 197h524q10 0 10 -44zM185.5 280.5q-15.5 25.5 -15.5 55.5q0 50 31.5 81t83.5 31h50v-54h-49q-28 0 -46 -16.5t-18 -40.5
q0 -26 18 -42.5t42 -16.5q13 0 30.5 7.5t38 18t27.5 14.5l21 -48l-208 -107l-25 49l65 33q-30 10 -45.5 35.5z" />
    <glyph glyph-name="uniFBDA" unicode="&#x6c6;" horiz-adv-x="555" arabic-form="final" 
d="M562.5 77.5q2.5 -8.5 2.5 -35.5q0 -26 -2.5 -34t-7.5 -8h-96q-9 -114 -78 -179t-180 -65h-123l-8 86h132q80 0 127.5 42.5t48.5 115.5h-100q-103 0 -148.5 42.5t-45.5 132.5q0 62 24 110.5t67.5 75t98.5 26.5q87 0 137 -58t50 -159v-84h94q5 0 7.5 -8.5zM192.5 107.5
q25.5 -21.5 90.5 -21.5h95v78q0 69 -28 104t-81 35q-46 0 -74 -34t-28 -89q0 -51 25.5 -72.5zM394 687l-96 -200h-48l-96 200l49 22l71 -155l71 155z" />
    <glyph glyph-name="uniFBE3" unicode="&#x6c9;" horiz-adv-x="555" arabic-form="final" 
d="M274 625l-71 -156l-49 23l96 200h48l96 -200l-48 -23zM562.5 77.5q2.5 -8.5 2.5 -35.5q0 -26 -2.5 -34t-7.5 -8h-96q-9 -114 -78 -179t-180 -65h-123l-8 86h132q80 0 127.5 42.5t48.5 115.5h-100q-103 0 -148.5 42.5t-45.5 132.5q0 62 24 110.5t67.5 75t98.5 26.5
q87 0 137 -58t50 -159v-84h94q5 0 7.5 -8.5zM192.5 107.5q25.5 -21.5 90.5 -21.5h95v78q0 69 -28 104t-81 35q-46 0 -74 -34t-28 -89q0 -51 25.5 -72.5z" />
    <glyph glyph-name="uniFBE8" unicode="&#x649;" horiz-adv-x="348" arabic-form="initial" 
d="M223 42.5q-45 -42.5 -119 -42.5h-104q-10 0 -10 42q0 44 10 44h104q36 0 58.5 19.5t22.5 54.5v162h83v-163q0 -74 -45 -116.5z" />
    <glyph glyph-name="uniFBE9" unicode="&#x649;" horiz-adv-x="396" arabic-form="medial" 
d="M182 106q23 20 23 54v162h83v-160q0 -37 20.5 -56.5t59.5 -19.5h28q10 0 10 -43t-10 -43h-31q-92 0 -120 59q-35 -59 -125 -59h-120q-10 0 -10 42q0 44 10 44h120q39 0 62 20z" />
    <glyph glyph-name="uniFBFD" unicode="&#x6cc;" horiz-adv-x="779" arabic-form="final" 
d="M779 86q10 0 10 -44q0 -42 -10 -42h-104q15 -15 15 -47q0 -58 -33.5 -102.5t-95 -69.5t-142.5 -25h-77q-126 0 -194 73t-68 204v189h83v-187q0 -95 46 -144t135 -49h75q91 0 139.5 29t48.5 80q0 27 -13.5 39.5t-42.5 12.5h-186l9 83h405z" />
    <glyph glyph-name="uniFBFE" unicode="&#x6cc;" horiz-adv-x="348" arabic-form="initial" 
d="M223 42.5q-45 -42.5 -119 -42.5h-104q-10 0 -10 42q0 44 10 44h104q36 0 58.5 19.5t22.5 54.5v162h83v-163q0 -74 -45 -116.5zM212 -126v-79h-264v79h264z" />
    <glyph glyph-name="uniFBFF" unicode="&#x6cc;" horiz-adv-x="396" arabic-form="medial" 
d="M182 106q23 20 23 54v162h83v-160q0 -37 20.5 -56.5t59.5 -19.5h28q10 0 10 -43t-10 -43h-31q-92 0 -120 59q-35 -59 -125 -59h-120q-10 0 -10 42q0 44 10 44h120q39 0 62 20zM206 -126v-79h-264v79h264z" />
    <glyph glyph-name="uniFC5E" unicode="&#xfc5e;" arabic-form="isolated" 
d="M100 70q16 16 16 57v83h54v-77q0 -68 -30 -100.5t-89 -32.5h-9q-15 0 -23.5 3t-18.5 12q-10 -9 -18.5 -12t-23.5 -3h-9q-59 0 -89 32.5t-30 100.5v77h53v-83q0 -41 16.5 -57t49.5 -16h24v136h54v-136h24q33 0 49 16zM-135 398.5q-5 5.5 -14 5.5h-44v51h54q28 0 41 -12.5
t13 -41.5v-94l88 37q-26 16 -39.5 41t-13.5 49q0 45 31.5 78.5t78.5 33.5t78 -31.5t31 -76.5q0 -40 -24 -71t-78 -54l-167 -70l-30 47v92q0 11 -5 16.5zM16 395.5q15 -18.5 40 -28.5q62 24 62 67q0 25 -16 43t-42 18q-27 0 -43 -17.5t-16 -41.5q0 -22 15 -40.5z" />
    <glyph glyph-name="uniFC5F" unicode="&#xfc5f;" arabic-form="isolated" 
d="M126 237l-256 -108l-21 49l256 109zM149 100l-256 -109l-21 50l256 108zM100 402q16 16 16 57v83h54v-77q0 -68 -30 -100.5t-89 -32.5h-9q-15 0 -23.5 3t-18.5 12q-10 -9 -18.5 -12t-23.5 -3h-9q-59 0 -89 32.5t-30 100.5v77h53v-83q0 -41 16.5 -57t49.5 -16h24v136h54
v-136h24q33 0 49 16z" />
    <glyph glyph-name="uniFC60" unicode="&#xfc60;" arabic-form="isolated" 
d="M100 70q16 16 16 57v83h54v-77q0 -68 -30 -100.5t-89 -32.5h-9q-15 0 -23.5 3t-18.5 12q-10 -9 -18.5 -12t-23.5 -3h-9q-59 0 -89 32.5t-30 100.5v77h53v-83q0 -41 16.5 -57t49.5 -16h24v136h54v-136h24q33 0 49 16zM139 353l-256 -108l-22 49l256 109z" />
    <glyph glyph-name="uniFC61" unicode="&#xfc61;" arabic-form="isolated" 
d="M100 70q16 16 16 57v83h54v-77q0 -68 -30 -100.5t-89 -32.5h-9q-15 0 -23.5 3t-18.5 12q-10 -9 -18.5 -12t-23.5 -3h-9q-59 0 -89 32.5t-30 100.5v77h53v-83q0 -41 16.5 -57t49.5 -16h24v136h54v-136h24q33 0 49 16zM-58.5 387q-13.5 25 -13.5 49q0 45 31.5 78.5
t78.5 33.5q46 0 77 -31.5t31 -76.5q0 -40 -23.5 -71t-77.5 -54l-167 -70l-21 49l124 52q-26 16 -39.5 41zM-6.5 397.5q14.5 -18.5 39.5 -28.5q62 24 62 67q0 25 -15.5 43t-41.5 18q-27 0 -43 -17.5t-16 -41.5q0 -22 14.5 -40.5z" />
    <glyph glyph-name="uniFC62" unicode="&#xfc62;" arabic-form="isolated" 
d="M139 102l-256 -108l-22 49l256 109zM100 259q16 16 16 57v83h54v-77q0 -68 -30 -100.5t-89 -32.5h-9q-15 0 -23.5 3t-18.5 12q-10 -9 -18.5 -12t-23.5 -3h-9q-59 0 -89 32.5t-30 100.5v77h53v-83q0 -41 16.5 -57t49.5 -16h24v136h54v-136h24q33 0 49 16z" />
    <glyph glyph-name="uniFC63" unicode="&#xfc63;" arabic-form="isolated" 
d="M100 70q16 16 16 57v83h54v-77q0 -68 -30 -100.5t-89 -32.5h-9q-15 0 -23.5 3t-18.5 12q-10 -9 -18.5 -12t-23.5 -3h-9q-59 0 -89 32.5t-30 100.5v77h53v-83q0 -41 16.5 -57t49.5 -16h24v136h54v-136h24q33 0 49 16zM27 460v-200h-54v200h54z" />
    <glyph glyph-name="uniFE86" unicode="&#x624;" horiz-adv-x="555" arabic-form="final" 
d="M562.5 77.5q2.5 -8.5 2.5 -35.5q0 -26 -2.5 -34t-7.5 -8h-96q-9 -114 -78 -179t-180 -65h-123l-8 86h132q80 0 127.5 42.5t48.5 115.5h-100q-103 0 -148.5 42.5t-45.5 132.5q0 62 24 110.5t67.5 75t98.5 26.5q87 0 137 -58t50 -159v-84h94q5 0 7.5 -8.5zM192.5 107.5
q25.5 -21.5 90.5 -21.5h95v78q0 69 -28 104t-81 35q-46 0 -74 -34t-28 -89q0 -51 25.5 -72.5zM169.5 579.5q-15.5 25.5 -15.5 55.5q0 50 31.5 81t83.5 31h50v-54h-49q-28 0 -46 -16.5t-18 -40.5q0 -26 18 -42.5t42 -16.5q13 0 30.5 7.5t38 18t27.5 14.5l21 -48l-208 -107
l-25 49l65 33q-30 10 -45.5 35.5z" />
    <glyph glyph-name="uniFE8B" unicode="&#x626;" horiz-adv-x="348" arabic-form="initial" 
d="M223 42.5q-45 -42.5 -119 -42.5h-104q-10 0 -10 42q0 44 10 44h104q36 0 58.5 19.5t22.5 54.5v162h83v-163q0 -74 -45 -116.5zM65.5 522.5q-15.5 25.5 -15.5 55.5q0 50 31.5 81t83.5 31h50v-54h-49q-28 0 -46 -16.5t-18 -40.5q0 -26 18 -42.5t42 -16.5q13 0 30.5 7.5
t38 18t27.5 14.5l21 -48l-208 -107l-25 49l65 33q-30 10 -45.5 35.5z" />
    <glyph glyph-name="uniFE8C" unicode="&#x626;" horiz-adv-x="396" arabic-form="medial" 
d="M182 106q23 20 23 54v162h83v-160q0 -37 20.5 -56.5t59.5 -19.5h28q10 0 10 -43t-10 -43h-31q-92 0 -120 59q-35 -59 -125 -59h-120q-10 0 -10 42q0 44 10 44h120q39 0 62 20zM113.5 522.5q-15.5 25.5 -15.5 55.5q0 50 31.5 81t83.5 31h50v-54h-49q-28 0 -46 -16.5
t-18 -40.5q0 -26 18 -42.5t42 -16.5q13 0 30.5 7.5t38 18t27.5 14.5l21 -48l-208 -107l-25 49l65 33q-30 10 -45.5 35.5z" />
    <glyph glyph-name="uniFE8E" unicode="&#x627;" horiz-adv-x="271" arabic-form="final" 
d="M278.5 77.5q2.5 -8.5 2.5 -35.5q0 -26 -2.5 -34t-7.5 -8h-26q-76 0 -115.5 45.5t-39.5 129.5v472h83v-468q0 -93 76 -93h22q5 0 7.5 -8.5z" />
    <glyph glyph-name="uniFE90" unicode="&#x628;" horiz-adv-x="886" arabic-form="final" 
d="M672 105.5q23 19.5 23 53.5v163h83v-160q0 -37 20.5 -56.5t60.5 -19.5h27q10 0 10 -44q0 -42 -10 -42h-30q-92 0 -120 59q-35 -59 -126 -59h-353q-88 0 -132.5 46t-44.5 127v149h83v-138q0 -98 99 -98h348q39 0 62 19.5zM375 -209v83h106v-83h-106z" />
    <glyph glyph-name="uniFE91" unicode="&#x628;" horiz-adv-x="348" arabic-form="initial" 
d="M223 42.5q-45 -42.5 -119 -42.5h-104q-10 0 -10 42q0 44 10 44h104q36 0 58.5 19.5t22.5 54.5v162h83v-163q0 -74 -45 -116.5zM27 -209v83h106v-83h-106z" />
    <glyph glyph-name="uniFE92" unicode="&#x628;" horiz-adv-x="396" arabic-form="medial" 
d="M182 106q23 20 23 54v162h83v-160q0 -37 20.5 -56.5t59.5 -19.5h28q10 0 10 -43t-10 -43h-31q-92 0 -120 59q-35 -59 -125 -59h-120q-10 0 -10 42q0 44 10 44h120q39 0 62 20zM51 -209v83h106v-83h-106z" />
    <glyph glyph-name="uniFE94" unicode="&#x629;" horiz-adv-x="556" arabic-form="final" 
d="M477.5 109.5q18.5 -23.5 54.5 -23.5h24q5 0 7.5 -8.5t2.5 -35.5q0 -26 -2.5 -34t-7.5 -8h-24q-111 0 -134 95q-21 -23 -60 -34.5t-83 -11.5q-85 0 -130 46t-45 135q0 56 24.5 102.5t69 74t101.5 27.5h101v69h83v-317q0 -53 18.5 -76.5zM260 135q53 0 84.5 19.5t31.5 52.5
v143h-101q-52 0 -82 -31t-30 -87q0 -97 97 -97zM461 669v-79h-264v79h264z" />
    <glyph glyph-name="uniFE96" unicode="&#x62a;" horiz-adv-x="886" arabic-form="final" 
d="M672 105.5q23 19.5 23 53.5v163h83v-160q0 -37 20.5 -56.5t60.5 -19.5h27q10 0 10 -44q0 -42 -10 -42h-30q-92 0 -120 59q-35 -59 -126 -59h-353q-88 0 -132.5 46t-44.5 127v149h83v-138q0 -98 99 -98h348q39 0 62 19.5zM560 485v-79h-264v79h264z" />
    <glyph glyph-name="uniFE97" unicode="&#x62a;" horiz-adv-x="348" arabic-form="initial" 
d="M223 42.5q-45 -42.5 -119 -42.5h-104q-10 0 -10 42q0 44 10 44h104q36 0 58.5 19.5t22.5 54.5v162h83v-163q0 -74 -45 -116.5zM299 521v-79h-264v79h264z" />
    <glyph glyph-name="uniFE98" unicode="&#x62a;" horiz-adv-x="396" arabic-form="medial" 
d="M182 106q23 20 23 54v162h83v-160q0 -37 20.5 -56.5t59.5 -19.5h28q10 0 10 -43t-10 -43h-31q-92 0 -120 59q-35 -59 -125 -59h-120q-10 0 -10 42q0 44 10 44h120q39 0 62 20zM309 521v-79h-264v79h264z" />
    <glyph glyph-name="uniFE9A" unicode="&#x62b;" horiz-adv-x="886" arabic-form="final" 
d="M672 105.5q23 19.5 23 53.5v163h83v-160q0 -37 20.5 -56.5t60.5 -19.5h27q10 0 10 -44q0 -42 -10 -42h-30q-92 0 -120 59q-35 -59 -126 -59h-353q-88 0 -132.5 46t-44.5 127v149h83v-138q0 -98 99 -98h348q39 0 62 19.5zM474 622v-79h-91v79h91zM560 485v-79h-264v79h264
z" />
    <glyph glyph-name="uniFE9B" unicode="&#x62b;" horiz-adv-x="348" arabic-form="initial" 
d="M223 42.5q-45 -42.5 -119 -42.5h-104q-10 0 -10 42q0 44 10 44h104q36 0 58.5 19.5t22.5 54.5v162h83v-163q0 -74 -45 -116.5zM213 658v-79h-91v79h91zM299 521v-79h-264v79h264z" />
    <glyph glyph-name="uniFE9C" unicode="&#x62b;" horiz-adv-x="396" arabic-form="medial" 
d="M182 106q23 20 23 54v162h83v-160q0 -37 20.5 -56.5t59.5 -19.5h28q10 0 10 -43t-10 -43h-31q-92 0 -120 59q-35 -59 -125 -59h-120q-10 0 -10 42q0 44 10 44h120q39 0 62 20zM223 658v-79h-91v79h91zM309 521v-79h-264v79h264z" />
    <glyph glyph-name="uniFE9E" unicode="&#x62c;" horiz-adv-x="650" arabic-form="final" 
d="M521.5 101.5q22.5 -15.5 62.5 -15.5h66q10 0 10 -44q0 -27 -3 -34.5t-7 -7.5h-69q-61 0 -97.5 26.5t-65.5 96.5l-90 -43q-93 -44 -129 -89.5t-36 -110.5q0 -73 46 -107t148 -34h213l-8 -86h-211q-271 0 -271 218q0 90 50 158t165 121l184 84q-13 37 -26 56t-33.5 27
t-56.5 8h-236l11 87h239q59 0 96.5 -19t61.5 -65t41 -130l-94 -41q17 -40 39.5 -55.5zM318 -139v83h106v-83h-106z" />
    <glyph glyph-name="uniFE9F" unicode="&#x62c;" horiz-adv-x="597" arabic-form="initial" 
d="M195 98q50 12 103 42l152 89q-16 54 -43.5 75t-82.5 21h-234l11 87h237q60 0 99 -20t65 -65.5t45 -125.5l-210 -130q-64 -40 -123 -55.5t-147 -15.5h-67q-10 0 -10 42q0 44 10 44h70q75 0 125 12zM185 -209v83h106v-83h-106z" />
    <glyph glyph-name="uniFEA0" unicode="&#x62c;" horiz-adv-x="634" arabic-form="medial" 
d="M338 412q60 0 99 -20t65 -65.5t45 -125.5l-79 -48q16 -38 38 -52.5t62 -14.5h66q10 0 10 -44q0 -27 -3 -34.5t-7 -7.5h-69q-60 0 -95 24.5t-64 89.5l-69 -43q-64 -40 -123 -55.5t-147 -15.5h-67q-10 0 -10 42q0 44 10 44h70q75 0 125 12t103 42l152 89q-16 54 -43.5 75
t-82.5 21h-234l11 87h237zM185 -209v83h106v-83h-106z" />
    <glyph glyph-name="uniFEA2" unicode="&#x62d;" horiz-adv-x="650" arabic-form="final" 
d="M521.5 101.5q22.5 -15.5 62.5 -15.5h66q10 0 10 -44q0 -27 -3 -34.5t-7 -7.5h-69q-61 0 -97.5 26.5t-65.5 96.5l-90 -43q-93 -44 -129 -89.5t-36 -110.5q0 -73 46 -107t148 -34h213l-8 -86h-211q-271 0 -271 218q0 90 50 158t165 121l184 84q-13 37 -26 56t-33.5 27
t-56.5 8h-236l11 87h239q59 0 96.5 -19t61.5 -65t41 -130l-94 -41q17 -40 39.5 -55.5z" />
    <glyph glyph-name="uniFEA3" unicode="&#x62d;" horiz-adv-x="597" arabic-form="initial" 
d="M195 98q50 12 103 42l152 89q-16 54 -43.5 75t-82.5 21h-234l11 87h237q60 0 99 -20t65 -65.5t45 -125.5l-210 -130q-64 -40 -123 -55.5t-147 -15.5h-67q-10 0 -10 42q0 44 10 44h70q75 0 125 12z" />
    <glyph glyph-name="uniFEA4" unicode="&#x62d;" horiz-adv-x="634" arabic-form="medial" 
d="M338 412q60 0 99 -20t65 -65.5t45 -125.5l-79 -48q16 -38 38 -52.5t62 -14.5h66q10 0 10 -44q0 -27 -3 -34.5t-7 -7.5h-69q-60 0 -95 24.5t-64 89.5l-69 -43q-64 -40 -123 -55.5t-147 -15.5h-67q-10 0 -10 42q0 44 10 44h70q75 0 125 12t103 42l152 89q-16 54 -43.5 75
t-82.5 21h-234l11 87h237z" />
    <glyph glyph-name="uniFEA6" unicode="&#x62e;" horiz-adv-x="650" arabic-form="final" 
d="M521.5 101.5q22.5 -15.5 62.5 -15.5h66q10 0 10 -44q0 -27 -3 -34.5t-7 -7.5h-69q-61 0 -97.5 26.5t-65.5 96.5l-90 -43q-93 -44 -129 -89.5t-36 -110.5q0 -73 46 -107t148 -34h213l-8 -86h-211q-271 0 -271 218q0 90 50 158t165 121l184 84q-13 37 -26 56t-33.5 27
t-56.5 8h-236l11 87h239q59 0 96.5 -19t61.5 -65t41 -130l-94 -41q17 -40 39.5 -55.5zM255 529v83h106v-83h-106z" />
    <glyph glyph-name="uniFEA7" unicode="&#x62e;" horiz-adv-x="597" arabic-form="initial" 
d="M195 98q50 12 103 42l152 89q-16 54 -43.5 75t-82.5 21h-234l11 87h237q60 0 99 -20t65 -65.5t45 -125.5l-210 -130q-64 -40 -123 -55.5t-147 -15.5h-67q-10 0 -10 42q0 44 10 44h70q75 0 125 12zM216 529v83h106v-83h-106z" />
    <glyph glyph-name="uniFEA8" unicode="&#x62e;" horiz-adv-x="634" arabic-form="medial" 
d="M338 412q60 0 99 -20t65 -65.5t45 -125.5l-79 -48q16 -38 38 -52.5t62 -14.5h66q10 0 10 -44q0 -27 -3 -34.5t-7 -7.5h-69q-60 0 -95 24.5t-64 89.5l-69 -43q-64 -40 -123 -55.5t-147 -15.5h-67q-10 0 -10 42q0 44 10 44h70q75 0 125 12t103 42l152 89q-16 54 -43.5 75
t-82.5 21h-234l11 87h237zM216 529v83h106v-83h-106z" />
    <glyph glyph-name="uniFEAA" unicode="&#x62f;" horiz-adv-x="567" arabic-form="final" 
d="M350.5 101q21.5 15 21.5 39q0 20 -16 66t-84 232q-3 8 -6 15.5t-5 13.5l77 35l117 -332q16 -46 36 -65t55 -19h21q10 0 10 -44q0 -27 -2.5 -34.5t-7.5 -7.5h-24q-46 0 -76 15t-47 48q-19 -33 -49.5 -48t-76.5 -15h-234l-8 86h242q35 0 56.5 15z" />
    <glyph glyph-name="uniFEAC" unicode="&#x630;" horiz-adv-x="567" arabic-form="final" 
d="M350.5 101q21.5 15 21.5 39q0 20 -16 66t-84 232q-3 8 -6 15.5t-5 13.5l77 35l117 -332q16 -46 36 -65t55 -19h21q10 0 10 -44q0 -27 -2.5 -34.5t-7.5 -7.5h-24q-46 0 -76 15t-47 48q-19 -33 -49.5 -48t-76.5 -15h-234l-8 86h242q35 0 56.5 15zM242 609v83h106v-83h-106z
" />
    <glyph glyph-name="uniFEAE" unicode="&#x631;" horiz-adv-x="385" arabic-form="final" 
d="M157 -108.5q48 49.5 48 137.5v293h83v-159q0 -37 21.5 -57t62.5 -20h13q10 0 10 -44q0 -42 -10 -42h-13q-27 0 -50 9.5t-34 24.5v-12q-1 -80 -34 -140.5t-92 -93t-136 -32.5h-28l-8 86h34q85 0 133 49.5z" />
    <glyph glyph-name="uniFEB0" unicode="&#x632;" horiz-adv-x="385" arabic-form="final" 
d="M157 -108.5q48 49.5 48 137.5v293h83v-159q0 -37 21.5 -57t62.5 -20h13q10 0 10 -44q0 -42 -10 -42h-13q-27 0 -50 9.5t-34 24.5v-12q-1 -80 -34 -140.5t-92 -93t-136 -32.5h-28l-8 86h34q85 0 133 49.5zM186 442v83h106v-83h-106z" />
    <glyph glyph-name="uniFEB2" unicode="&#x633;" horiz-adv-x="1286" arabic-form="final" 
d="M945.5 106.5q21.5 -20.5 62.5 -20.5t64 21t23 58v157h83v-157q0 -39 20 -59t58 -20h30q10 0 10 -44q0 -42 -10 -42h-30q-96 0 -124 59q-35 -59 -124 -59q-101 0 -129 62q-39 -62 -132 -62q-65 0 -89 29v-12q-1 -76 -36 -135.5t-96 -92.5t-140 -33h-44q-126 0 -194 73
t-68 204v189h83v-187q0 -95 46 -144t135 -49h42q86 0 137.5 50t51.5 135v295h83v-159q0 -36 22.5 -56.5t66.5 -20.5q45 0 69.5 21t24.5 58v157h83v-157q0 -38 21.5 -58.5z" />
    <glyph glyph-name="uniFEB3" unicode="&#x633;" horiz-adv-x="855" arabic-form="initial" 
d="M146.5 107q24.5 21 24.5 58v157h84v-157q0 -79 89 -79q44 0 68.5 21t24.5 58v157h83v-157q0 -38 21.5 -58.5t63.5 -20.5t64 20.5t22 58.5v157h83v-155q0 -78 -45.5 -122.5t-123.5 -44.5q-101 0 -130 62q-37 -62 -131 -62q-106 0 -135 62q-37 -62 -131 -62h-78
q-10 0 -10 42q0 44 10 44h78q44 0 68.5 21z" />
    <glyph glyph-name="uniFEB4" unicode="&#x633;" horiz-adv-x="883" arabic-form="medial" 
d="M146.5 107q24.5 21 24.5 58v157h84v-157q0 -79 89 -79q44 0 68.5 21t24.5 58v157h83v-157q0 -38 21.5 -58.5t63.5 -20.5q41 0 63.5 21t22.5 58v157h83v-157q0 -79 79 -79h29q11 0 11 -44q0 -26 -3 -34t-8 -8h-29q-96 0 -124 59q-35 -59 -124 -59q-101 0 -130 62
q-37 -62 -131 -62q-106 0 -135 62q-37 -62 -131 -62h-78q-10 0 -10 42q0 44 10 44h78q44 0 68.5 21z" />
    <glyph glyph-name="uniFEB6" unicode="&#x634;" horiz-adv-x="1286" arabic-form="final" 
d="M945.5 106.5q21.5 -20.5 62.5 -20.5t64 21t23 58v157h83v-157q0 -39 20 -59t58 -20h30q10 0 10 -44q0 -42 -10 -42h-30q-96 0 -124 59q-35 -59 -124 -59q-101 0 -129 62q-39 -62 -132 -62q-65 0 -89 29v-12q-1 -76 -36 -135.5t-96 -92.5t-140 -33h-44q-126 0 -194 73
t-68 204v189h83v-187q0 -95 46 -144t135 -49h42q86 0 137.5 50t51.5 135v295h83v-159q0 -36 22.5 -56.5t66.5 -20.5q45 0 69.5 21t24.5 58v157h83v-157q0 -38 21.5 -58.5zM928 658v-79h-91v79h91zM1014 521v-79h-264v79h264z" />
    <glyph glyph-name="uniFEB7" unicode="&#x634;" horiz-adv-x="855" arabic-form="initial" 
d="M146.5 107q24.5 21 24.5 58v157h84v-157q0 -79 89 -79q44 0 68.5 21t24.5 58v157h83v-157q0 -38 21.5 -58.5t63.5 -20.5t64 20.5t22 58.5v157h83v-155q0 -78 -45.5 -122.5t-123.5 -44.5q-101 0 -130 62q-37 -62 -131 -62q-106 0 -135 62q-37 -62 -131 -62h-78
q-10 0 -10 42q0 44 10 44h78q44 0 68.5 21zM522 658v-79h-91v79h91zM608 521v-79h-264v79h264z" />
    <glyph glyph-name="uniFEB8" unicode="&#x634;" horiz-adv-x="883" arabic-form="medial" 
d="M146.5 107q24.5 21 24.5 58v157h84v-157q0 -79 89 -79q44 0 68.5 21t24.5 58v157h83v-157q0 -38 21.5 -58.5t63.5 -20.5q41 0 63.5 21t22.5 58v157h83v-157q0 -79 79 -79h29q11 0 11 -44q0 -26 -3 -34t-8 -8h-29q-96 0 -124 59q-35 -59 -124 -59q-101 0 -130 62
q-37 -62 -131 -62q-106 0 -135 62q-37 -62 -131 -62h-78q-10 0 -10 42q0 44 10 44h78q44 0 68.5 21zM522 658v-79h-91v79h91zM608 521v-79h-264v79h264z" />
    <glyph glyph-name="uniFEBA" unicode="&#x635;" horiz-adv-x="1316" arabic-form="final" 
d="M702 98q93 167 172 240t163 73q53 0 96 -26.5t67.5 -73t24.5 -106.5q0 -57 -23 -97q14 -12 35.5 -17t55.5 -5h23q10 0 10 -44q0 -42 -10 -42h-23q-52 0 -82.5 9.5t-54.5 35.5q-56 -45 -140 -45h-241q-46 0 -75.5 9t-41.5 23v-12q-1 -78 -36 -138t-96 -93t-140 -33h-44
q-126 0 -194 73t-68 204v189h83v-187q0 -95 46 -144t135 -49h42q86 0 137.5 50t51.5 135v295h83v-159q0 -50 44 -65zM1109 118q33 32 33 87q0 54 -31.5 88.5t-79.5 34.5q-57 0 -115.5 -58t-132.5 -184h233q60 0 93 32z" />
    <glyph glyph-name="uniFEBB" unicode="&#x635;" horiz-adv-x="864" arabic-form="initial" 
d="M108.5 107q24.5 21 24.5 58v157h83v-154q0 -30 10.5 -46.5t32.5 -24.5q94 167 173 240.5t163 73.5q54 0 97 -26.5t67.5 -73t24.5 -106.5q0 -92 -57 -148.5t-153 -56.5h-267q-104 0 -136 59q-35 -59 -131 -59h-40q-10 0 -10 42q0 44 10 44h40q44 0 68.5 21zM667.5 118
q33.5 32 33.5 87q0 54 -32 88.5t-80 34.5q-56 0 -115 -58.5t-133 -183.5h233q60 0 93.5 32z" />
    <glyph glyph-name="uniFEBC" unicode="&#x635;" horiz-adv-x="874" arabic-form="medial" 
d="M108.5 107q24.5 21 24.5 58v157h83v-154q0 -30 10.5 -46.5t32.5 -24.5q94 167 173 240.5t163 73.5q54 0 97 -26.5t67.5 -73t24.5 -106.5q0 -55 -24 -97q14 -12 35.5 -17t55.5 -5h23q10 0 10 -44q0 -42 -10 -42h-23q-52 0 -82.5 9.5t-54.5 35.5q-54 -45 -140 -45h-267
q-104 0 -136 59q-35 -59 -131 -59h-40q-10 0 -10 42q0 44 10 44h40q44 0 68.5 21zM667.5 118q33.5 32 33.5 87q0 54 -32 88.5t-80 34.5q-56 0 -115 -58.5t-133 -183.5h233q60 0 93.5 32z" />
    <glyph glyph-name="uniFEBE" unicode="&#x636;" horiz-adv-x="1316" arabic-form="final" 
d="M702 98q93 167 172 240t163 73q53 0 96 -26.5t67.5 -73t24.5 -106.5q0 -57 -23 -97q14 -12 35.5 -17t55.5 -5h23q10 0 10 -44q0 -42 -10 -42h-23q-52 0 -82.5 9.5t-54.5 35.5q-56 -45 -140 -45h-241q-46 0 -75.5 9t-41.5 23v-12q-1 -78 -36 -138t-96 -93t-140 -33h-44
q-126 0 -194 73t-68 204v189h83v-187q0 -95 46 -144t135 -49h42q86 0 137.5 50t51.5 135v295h83v-159q0 -50 44 -65zM1109 118q33 32 33 87q0 54 -31.5 88.5t-79.5 34.5q-57 0 -115.5 -58t-132.5 -184h233q60 0 93 32zM979 518v83h106v-83h-106z" />
    <glyph glyph-name="uniFEBF" unicode="&#x636;" horiz-adv-x="864" arabic-form="initial" 
d="M108.5 107q24.5 21 24.5 58v157h83v-154q0 -30 10.5 -46.5t32.5 -24.5q94 167 173 240.5t163 73.5q54 0 97 -26.5t67.5 -73t24.5 -106.5q0 -92 -57 -148.5t-153 -56.5h-267q-104 0 -136 59q-35 -59 -131 -59h-40q-10 0 -10 42q0 44 10 44h40q44 0 68.5 21zM667.5 118
q33.5 32 33.5 87q0 54 -32 88.5t-80 34.5q-56 0 -115 -58.5t-133 -183.5h233q60 0 93.5 32zM537 518v83h106v-83h-106z" />
    <glyph glyph-name="uniFEC0" unicode="&#x636;" horiz-adv-x="874" arabic-form="medial" 
d="M108.5 107q24.5 21 24.5 58v157h83v-154q0 -30 10.5 -46.5t32.5 -24.5q94 167 173 240.5t163 73.5q54 0 97 -26.5t67.5 -73t24.5 -106.5q0 -55 -24 -97q14 -12 35.5 -17t55.5 -5h23q10 0 10 -44q0 -42 -10 -42h-23q-52 0 -82.5 9.5t-54.5 35.5q-54 -45 -140 -45h-267
q-104 0 -136 59q-35 -59 -131 -59h-40q-10 0 -10 42q0 44 10 44h40q44 0 68.5 21zM667.5 118q33.5 32 33.5 87q0 54 -32 88.5t-80 34.5q-56 0 -115 -58.5t-133 -183.5h233q60 0 93.5 32zM537 518v83h106v-83h-106z" />
    <glyph glyph-name="uniFEC2" unicode="&#x637;" horiz-adv-x="747" arabic-form="final" 
d="M345 366q61 45 123 45q54 0 97 -26.5t67.5 -73t24.5 -106.5q0 -55 -24 -97q14 -12 35.5 -17t55.5 -5h23q10 0 10 -44q0 -42 -10 -42h-23q-52 0 -82.5 9.5t-54.5 35.5q-56 -45 -140 -45h-387l-8 86h86v561h83v-425q63 99 124 144zM540.5 118q33.5 32 33.5 87
q0 54 -32 88.5t-80 34.5q-57 0 -115.5 -58t-132.5 -184h233q60 0 93.5 32z" />
    <glyph glyph-name="uniFEC3" unicode="&#x637;" horiz-adv-x="694" arabic-form="initial" 
d="M177 647v-425q64 99 125 144t123 45q53 0 96 -26.5t67.5 -73t24.5 -106.5q0 -92 -56.5 -148.5t-152.5 -56.5h-404q-10 0 -10 42q0 44 10 44h94v561h83zM497 118q33 32 33 87q0 54 -31.5 88.5t-79.5 34.5q-57 0 -115.5 -58t-132.5 -184h233q60 0 93 32z" />
    <glyph glyph-name="uniFEC4" unicode="&#x637;" horiz-adv-x="704" arabic-form="medial" 
d="M177 647v-425q64 99 125 144t123 45q53 0 96 -26.5t67.5 -73t24.5 -106.5q0 -57 -23 -97q14 -12 35.5 -17t55.5 -5h23q10 0 10 -44q0 -42 -10 -42h-23q-52 0 -82.5 9.5t-54.5 35.5q-56 -45 -140 -45h-404q-10 0 -10 42q0 44 10 44h94v561h83zM497 118q33 32 33 87
q0 54 -31.5 88.5t-79.5 34.5q-57 0 -115.5 -58t-132.5 -184h233q60 0 93 32z" />
    <glyph glyph-name="uniFEC6" unicode="&#x638;" horiz-adv-x="747" arabic-form="final" 
d="M345 366q61 45 123 45q54 0 97 -26.5t67.5 -73t24.5 -106.5q0 -55 -24 -97q14 -12 35.5 -17t55.5 -5h23q10 0 10 -44q0 -42 -10 -42h-23q-52 0 -82.5 9.5t-54.5 35.5q-56 -45 -140 -45h-387l-8 86h86v561h83v-425q63 99 124 144zM540.5 118q33.5 32 33.5 87
q0 54 -32 88.5t-80 34.5q-57 0 -115.5 -58t-132.5 -184h233q60 0 93.5 32zM413 518v83h106v-83h-106z" />
    <glyph glyph-name="uniFEC7" unicode="&#x638;" horiz-adv-x="694" arabic-form="initial" 
d="M177 647v-425q64 99 125 144t123 45q53 0 96 -26.5t67.5 -73t24.5 -106.5q0 -92 -56.5 -148.5t-152.5 -56.5h-404q-10 0 -10 42q0 44 10 44h94v561h83zM497 118q33 32 33 87q0 54 -31.5 88.5t-79.5 34.5q-57 0 -115.5 -58t-132.5 -184h233q60 0 93 32zM372 518v83h106
v-83h-106z" />
    <glyph glyph-name="uniFEC8" unicode="&#x638;" horiz-adv-x="704" arabic-form="medial" 
d="M177 647v-425q64 99 125 144t123 45q53 0 96 -26.5t67.5 -73t24.5 -106.5q0 -57 -23 -97q14 -12 35.5 -17t55.5 -5h23q10 0 10 -44q0 -42 -10 -42h-23q-52 0 -82.5 9.5t-54.5 35.5q-56 -45 -140 -45h-404q-10 0 -10 42q0 44 10 44h94v561h83zM497 118q33 32 33 87
q0 54 -31.5 88.5t-79.5 34.5q-57 0 -115.5 -58t-132.5 -184h233q60 0 93 32zM372 518v83h106v-83h-106z" />
    <glyph glyph-name="uniFECA" unicode="&#x639;" horiz-adv-x="600" arabic-form="final" 
d="M385 387q58 0 94.5 -26.5t36.5 -78.5q0 -40 -26.5 -77.5t-102.5 -102.5q15 -9 39.5 -12.5t75.5 -3.5h98q5 0 7.5 -8.5t2.5 -35.5q0 -26 -2.5 -34t-7.5 -8h-98q-65 0 -102.5 4.5t-61 15.5t-44.5 31q-70 -43 -100.5 -88t-30.5 -96q0 -66 41 -97t134 -31h195l-8 -86h-192
q-131 0 -192 52t-61 159q0 68 34.5 127t107.5 111l-139 201l46 84h256zM419 296q-16 11 -46 11h-198l128 -187q79 66 105.5 95.5t26.5 49.5t-16 31z" />
    <glyph glyph-name="uniFECB" unicode="&#x639;" horiz-adv-x="532" arabic-form="initial" 
d="M84 193q0 56 24.5 101t69 70.5t101.5 25.5q38 0 73 -10t73 -34l-29 -68q-61 28 -117 28q-48 0 -80 -31t-32 -77q0 -49 29 -80.5t77 -31.5h179l-8 -86h-444q-10 0 -10 42q0 44 10 44h125q-41 40 -41 107z" />
    <glyph glyph-name="uniFECC" unicode="&#x639;" horiz-adv-x="601" arabic-form="medial" 
d="M161.5 91q35.5 5 57.5 17l-135 195l46 84h256q58 0 94.5 -26.5t36.5 -78.5q0 -40 -26.5 -77.5t-102.5 -102.5q15 -9 39.5 -12.5t75.5 -3.5h98q5 0 7.5 -8.5t2.5 -35.5q0 -26 -2.5 -34t-7.5 -8h-98q-65 0 -102.5 4.5t-61 15.5t-44.5 31q-45 -29 -97.5 -40t-135.5 -11h-62
q-10 0 -10 42q0 44 10 44h65q61 0 96.5 5zM420.5 296q-16.5 11 -46.5 11h-198l128 -187q80 66 106.5 95.5t26.5 49.5t-16.5 31z" />
    <glyph glyph-name="uniFECE" unicode="&#x63a;" horiz-adv-x="600" arabic-form="final" 
d="M385 387q58 0 94.5 -26.5t36.5 -78.5q0 -40 -26.5 -77.5t-102.5 -102.5q15 -9 39.5 -12.5t75.5 -3.5h98q5 0 7.5 -8.5t2.5 -35.5q0 -26 -2.5 -34t-7.5 -8h-98q-65 0 -102.5 4.5t-61 15.5t-44.5 31q-70 -43 -100.5 -88t-30.5 -96q0 -66 41 -97t134 -31h195l-8 -86h-192
q-131 0 -192 52t-61 159q0 68 34.5 127t107.5 111l-139 201l46 84h256zM419 296q-16 11 -46 11h-198l128 -187q79 66 105.5 95.5t26.5 49.5t-16 31zM256 526v83h106v-83h-106z" />
    <glyph glyph-name="uniFECF" unicode="&#x63a;" horiz-adv-x="532" arabic-form="initial" 
d="M84 193q0 56 24.5 101t69 70.5t101.5 25.5q38 0 73 -10t73 -34l-29 -68q-61 28 -117 28q-48 0 -80 -31t-32 -77q0 -49 29 -80.5t77 -31.5h179l-8 -86h-444q-10 0 -10 42q0 44 10 44h125q-41 40 -41 107zM215 520v83h106v-83h-106z" />
    <glyph glyph-name="uniFED0" unicode="&#x63a;" horiz-adv-x="601" arabic-form="medial" 
d="M161.5 91q35.5 5 57.5 17l-135 195l46 84h256q58 0 94.5 -26.5t36.5 -78.5q0 -40 -26.5 -77.5t-102.5 -102.5q15 -9 39.5 -12.5t75.5 -3.5h98q5 0 7.5 -8.5t2.5 -35.5q0 -26 -2.5 -34t-7.5 -8h-98q-65 0 -102.5 4.5t-61 15.5t-44.5 31q-45 -29 -97.5 -40t-135.5 -11h-62
q-10 0 -10 42q0 44 10 44h65q61 0 96.5 5zM420.5 296q-16.5 11 -46.5 11h-198l128 -187q80 66 106.5 95.5t26.5 49.5t-16.5 31zM257 526v83h106v-83h-106z" />
    <glyph glyph-name="uniFED2" unicode="&#x641;" horiz-adv-x="953" arabic-form="final" 
d="M504 146.5q-19 37.5 -19 78.5q0 52 25 95.5t69 69t97 25.5q55 0 98.5 -23.5t67.5 -65.5t24 -96q0 -91 -78 -144h165q10 0 10 -44q0 -42 -10 -42h-133q-61 0 -92 3.5t-50 12.5q-19 -9 -52 -12.5t-94 -3.5h-275q-88 0 -132.5 46t-44.5 127v149h83v-138q0 -98 99 -98h295
q-34 23 -53 60.5zM756.5 148q26.5 36 26.5 77q0 48 -28.5 77t-78.5 29q-48 0 -78 -30t-30 -76q0 -43 27.5 -78.5t80.5 -58.5q54 24 80.5 60zM621 532v83h106v-83h-106z" />
    <glyph glyph-name="uniFED3" unicode="&#x641;" horiz-adv-x="550" arabic-form="initial" 
d="M228 90q-81 30 -112 64.5t-31 92.5q0 53 25 96.5t68.5 68.5t98.5 25q92 0 142.5 -56.5t50.5 -158.5v-34q0 -93 -62 -140.5t-183 -47.5h-225q-10 0 -10 42q0 44 10 44h177q34 0 51 4zM387 193v24q0 68 -28.5 102t-83.5 34q-44 0 -75.5 -30.5t-31.5 -73.5q0 -33 16 -56
t55 -43.5t112 -44.5q36 30 36 88zM219 542v83h106v-83h-106z" />
    <glyph glyph-name="uniFED4" unicode="&#x641;" horiz-adv-x="556" arabic-form="medial" 
d="M106.5 146.5q-19.5 37.5 -19.5 78.5q0 52 25.5 95.5t69 69t97.5 25.5q55 0 98.5 -23.5t67.5 -65.5t24 -96q0 -91 -78 -144h165q10 0 10 -44q0 -42 -10 -42h-133q-61 0 -92 3.5t-50 12.5q-18 -9 -51.5 -12.5t-94.5 -3.5h-135q-10 0 -10 42q0 44 10 44h160
q-34 23 -53.5 60.5zM200.5 301q-30.5 -30 -30.5 -76q0 -43 28 -78.5t81 -58.5q54 24 80.5 60t26.5 77q0 48 -29 77t-78 29q-48 0 -78.5 -30zM226 532v83h106v-83h-106z" />
    <glyph glyph-name="uniFED6" unicode="&#x642;" horiz-adv-x="813" arabic-form="final" 
d="M586.5 -114.5q47.5 43.5 49.5 114.5h-100q-102 0 -147.5 42.5t-45.5 132.5q0 62 24 110.5t67 75t98 26.5q87 0 137 -58t50 -159v-84h94q5 0 7.5 -8.5t2.5 -35.5q0 -26 -2.5 -34t-7.5 -8h-95q-10 -114 -82 -179t-183 -65h-111q-126 0 -194 73t-68 204v189h83v-187
q0 -95 46 -144t135 -49h109q86 0 133.5 43.5zM451 107q25 -21 90 -21h95v78q0 69 -28 104t-81 35q-46 0 -73.5 -34t-27.5 -89q0 -52 25 -73zM664 566v-79h-264v79h264z" />
    <glyph glyph-name="uniFED7" unicode="&#x642;" horiz-adv-x="550" arabic-form="initial" 
d="M228 90q-81 30 -112 64.5t-31 92.5q0 53 25 96.5t68.5 68.5t98.5 25q92 0 142.5 -56.5t50.5 -158.5v-34q0 -93 -62 -140.5t-183 -47.5h-225q-10 0 -10 42q0 44 10 44h177q34 0 51 4zM387 193v24q0 68 -28.5 102t-83.5 34q-44 0 -75.5 -30.5t-31.5 -73.5q0 -33 16 -56
t55 -43.5t112 -44.5q36 30 36 88zM404 621v-79h-264v79h264z" />
    <glyph glyph-name="uniFED8" unicode="&#x642;" horiz-adv-x="556" arabic-form="medial" 
d="M106.5 146.5q-19.5 37.5 -19.5 78.5q0 52 25.5 95.5t69 69t97.5 25.5q55 0 98.5 -23.5t67.5 -65.5t24 -96q0 -91 -78 -144h165q10 0 10 -44q0 -42 -10 -42h-133q-61 0 -92 3.5t-50 12.5q-18 -9 -51.5 -12.5t-94.5 -3.5h-135q-10 0 -10 42q0 44 10 44h160
q-34 23 -53.5 60.5zM200.5 301q-30.5 -30 -30.5 -76q0 -43 28 -78.5t81 -58.5q54 24 80.5 60t26.5 77q0 48 -29 77t-78 29q-48 0 -78.5 -30zM411 611v-79h-264v79h264z" />
    <glyph glyph-name="uniFEDA" unicode="&#x643;" horiz-adv-x="1003" arabic-form="final" 
d="M124.5 46q-44.5 46 -44.5 127v149h83v-138q0 -98 99 -98h359q44 0 68 17t24 46q0 20 -9.5 39.5t-31.5 41.5l-234 233v72l364 145l25 -80l-292 -115l198 -199q96 -96 141 -136t70.5 -52t58.5 -12q10 0 10 -44q0 -42 -10 -42q-43 0 -71 8.5t-60.5 33t-85.5 77.5
q-5 -53 -48.5 -86t-116.5 -33h-364q-88 0 -132.5 46z" />
    <glyph glyph-name="uniFEDB" unicode="&#x643;" horiz-adv-x="548" arabic-form="initial" 
d="M344.5 103q24.5 17 24.5 46q0 20 -9.5 39.5t-31.5 41.5l-235 233v72l365 145l25 -80l-292 -115l200 -201q61 -61 61 -136q0 -66 -46 -107t-129 -41h-277q-10 0 -10 42q0 44 10 44h277q43 0 67.5 17z" />
    <glyph glyph-name="uniFEDC" unicode="&#x643;" horiz-adv-x="659" arabic-form="medial" 
d="M344.5 103q24.5 17 24.5 46q0 20 -9.5 39.5t-31.5 41.5l-235 233v72l365 145l25 -80l-292 -115l198 -199q95 -96 140 -136t71 -52t59 -12q10 0 10 -44q0 -42 -10 -42q-43 0 -71.5 8.5t-61 33t-85.5 77.5q-4 -53 -47.5 -86t-116.5 -33h-277q-10 0 -10 42q0 44 10 44h277
q43 0 67.5 17z" />
    <glyph glyph-name="uniFEDE" unicode="&#x644;" horiz-adv-x="755" arabic-form="final" 
d="M148 -171q-68 73 -68 204v189h83v-187q0 -95 46 -144t135 -49h42q86 0 137.5 50t51.5 135v620h83v-490q0 -33 20.5 -52t57.5 -19h19q10 0 10 -44q0 -42 -10 -42h-16q-26 0 -48 8t-33 21v-12q-1 -76 -36 -135.5t-96 -92.5t-140 -33h-44q-126 0 -194 73z" />
    <glyph glyph-name="uniFEDF" unicode="&#x644;" horiz-adv-x="285" arabic-form="initial" 
d="M89 106q22 20 22 54v487h84v-488q0 -74 -45 -116.5t-119 -42.5h-31q-10 0 -10 42q0 44 10 44h31q36 0 58 20z" />
    <glyph glyph-name="uniFEE0" unicode="&#x644;" horiz-adv-x="297" arabic-form="medial" 
d="M89 106q22 20 22 54v487h84v-482q0 -41 21 -60t56 -19h25q10 0 10 -43t-10 -43h-28q-44 0 -74 15.5t-42 44.5q-35 -60 -122 -60h-31q-10 0 -10 42q0 44 10 44h31q36 0 58 20z" />
    <glyph glyph-name="uniFEE2" unicode="&#x645;" horiz-adv-x="765" arabic-form="final" 
d="M625 61q-35 -61 -145 -61q-90 0 -136.5 43t-46.5 120v62q0 62 34 93h-45q-58 0 -90.5 -30.5t-32.5 -85.5v-446h-83v446q0 91 57 145.5t154 54.5h205q84 0 127.5 -42.5t43.5 -119.5v-69q0 -85 72 -85h26q10 0 10 -44q0 -42 -10 -42h-26q-86 0 -114 61zM584 172v60
q0 40 -23.5 63t-64.5 23h-32q-41 0 -62.5 -24t-21.5 -64v-51q0 -49 25.5 -71t77.5 -22q101 0 101 86z" />
    <glyph glyph-name="uniFEE3" unicode="&#x645;" horiz-adv-x="550" arabic-form="initial" 
d="M94 150v41q0 96 51 151t140 55t137 -52t48 -150q0 -93 -50 -144t-138 -51q-104 0 -140 62q-17 -32 -45 -47t-74 -15h-23q-10 0 -10 42q0 44 10 44h23q71 0 71 64zM282 313q-53 0 -79 -30t-26 -92q0 -49 27.5 -77t77.5 -28q105 0 105 109q0 118 -105 118z" />
    <glyph glyph-name="uniFEE4" unicode="&#x645;" horiz-adv-x="564" arabic-form="medial" 
d="M94 150v41q0 96 51 151t140 55t137 -52t48 -150v-28q0 -43 17 -62t52 -19h25q10 0 10 -44q0 -42 -10 -42h-25q-87 0 -113 64q-20 -31 -58.5 -47.5t-85.5 -16.5q-104 0 -140 62q-17 -32 -45 -47t-74 -15h-23q-10 0 -10 42q0 44 10 44h23q71 0 71 64zM282 313
q-53 0 -79 -30t-26 -92q0 -49 27.5 -77t77.5 -28q105 0 105 109q0 118 -105 118z" />
    <glyph glyph-name="uniFEE6" unicode="&#x646;" horiz-adv-x="755" arabic-form="final" 
d="M678.5 105q20.5 -19 57.5 -19h19q10 0 10 -44q0 -42 -10 -42h-16q-26 0 -48 8t-33 21v-12q-1 -76 -36 -135.5t-96 -92.5t-140 -33h-44q-126 0 -194 73t-68 204v189h83v-187q0 -95 46 -144t135 -49h42q86 0 137.5 50t51.5 135v295h83v-165q0 -33 20.5 -52zM296 352v83h106
v-83h-106z" />
    <glyph glyph-name="uniFEE7" unicode="&#x646;" horiz-adv-x="348" arabic-form="initial" 
d="M223 42.5q-45 -42.5 -119 -42.5h-104q-10 0 -10 42q0 44 10 44h104q36 0 58.5 19.5t22.5 54.5v162h83v-163q0 -74 -45 -116.5zM116 442v83h106v-83h-106z" />
    <glyph glyph-name="uniFEE8" unicode="&#x646;" horiz-adv-x="396" arabic-form="medial" 
d="M182 106q23 20 23 54v162h83v-160q0 -37 20.5 -56.5t59.5 -19.5h28q10 0 10 -43t-10 -43h-31q-92 0 -120 59q-35 -59 -125 -59h-120q-10 0 -10 42q0 44 10 44h120q39 0 62 20zM175 442v83h106v-83h-106z" />
    <glyph glyph-name="uniFEEA" unicode="&#x647;" horiz-adv-x="556" arabic-form="final" 
d="M477.5 109.5q18.5 -23.5 54.5 -23.5h24q5 0 7.5 -8.5t2.5 -35.5q0 -26 -2.5 -34t-7.5 -8h-24q-111 0 -134 95q-21 -23 -60 -34.5t-83 -11.5q-85 0 -130 46t-45 135q0 56 24.5 102.5t69 74t101.5 27.5h101v69h83v-317q0 -53 18.5 -76.5zM260 135q53 0 84.5 19.5t31.5 52.5
v143h-101q-52 0 -82 -31t-30 -87q0 -97 97 -97z" />
    <glyph glyph-name="uniFEEB" unicode="&#x647;" horiz-adv-x="782" arabic-form="initial" 
d="M106.5 145.5q-19.5 37.5 -19.5 76.5q0 54 25.5 97.5t69.5 68t99 24.5q51 0 93 -24t66.5 -65.5t24.5 -92.5q0 -44 -21.5 -81.5t-61.5 -62.5h148q43 0 66 17t23 46q0 19 -9.5 38.5t-34.5 45.5l-203 213l60 61l207 -221q63 -67 63 -138q0 -67 -46 -107.5t-126 -40.5h-113
q-65 0 -94.5 3t-47.5 13q-18 -9 -50.5 -12.5t-95.5 -3.5h-129q-10 0 -10 42q0 44 10 44h157q-31 22 -50.5 59.5zM355.5 146q29.5 35 29.5 76q0 47 -30.5 76.5t-78.5 29.5t-78.5 -29.5t-30.5 -76.5q0 -43 26.5 -77t77.5 -57q55 23 84.5 58z" />
    <glyph glyph-name="uniFEEC" unicode="&#x647;" horiz-adv-x="612" arabic-form="medial" 
d="M622 42q0 -42 -10 -42q-66 0 -99 -18t-61 -71l-82 -151h-46q-108 0 -169 59.5t-61 168.5v12h-94q-10 0 -10 42q0 44 10 44h94v107q0 100 50 158t136 58q83 0 131 -47.5t48 -129.5q0 -64 -36 -116t-100.5 -82t-145.5 -31v-12q0 -75 36.5 -111.5t110.5 -36.5l61 112
q30 54 58.5 81.5t67.5 38.5t101 11q10 0 10 -44zM350.5 299.5q-25.5 25.5 -71.5 25.5q-49 0 -75.5 -34t-26.5 -98v-107q92 0 145.5 38t53.5 103q0 47 -25.5 72.5z" />
    <glyph glyph-name="uniFEEE" unicode="&#x648;" horiz-adv-x="555" arabic-form="final" 
d="M562.5 77.5q2.5 -8.5 2.5 -35.5q0 -26 -2.5 -34t-7.5 -8h-96q-9 -114 -78 -179t-180 -65h-123l-8 86h132q80 0 127.5 42.5t48.5 115.5h-100q-103 0 -148.5 42.5t-45.5 132.5q0 62 24 110.5t67.5 75t98.5 26.5q87 0 137 -58t50 -159v-84h94q5 0 7.5 -8.5zM192.5 107.5
q25.5 -21.5 90.5 -21.5h95v78q0 69 -28 104t-81 35q-46 0 -74 -34t-28 -89q0 -51 25.5 -72.5z" />
    <glyph glyph-name="uniFEF0" unicode="&#x649;" horiz-adv-x="779" arabic-form="final" 
d="M779 86q10 0 10 -44q0 -42 -10 -42h-104q15 -15 15 -47q0 -58 -33.5 -102.5t-95 -69.5t-142.5 -25h-77q-126 0 -194 73t-68 204v189h83v-187q0 -95 46 -144t135 -49h75q91 0 139.5 29t48.5 80q0 27 -13.5 39.5t-42.5 12.5h-186l9 83h405z" />
    <glyph glyph-name="uniFEF2" unicode="&#x64a;" horiz-adv-x="779" arabic-form="final" 
d="M779 86q10 0 10 -44q0 -42 -10 -42h-104q15 -15 15 -47q0 -58 -33.5 -102.5t-95 -69.5t-142.5 -25h-77q-126 0 -194 73t-68 204v189h83v-187q0 -95 46 -144t135 -49h75q91 0 139.5 29t48.5 80q0 27 -13.5 39.5t-42.5 12.5h-186l9 83h405z" />
    <glyph glyph-name="uniFEF3" unicode="&#x64a;" horiz-adv-x="348" arabic-form="initial" 
d="M223 42.5q-45 -42.5 -119 -42.5h-104q-10 0 -10 42q0 44 10 44h104q36 0 58.5 19.5t22.5 54.5v162h83v-163q0 -74 -45 -116.5zM212 -126v-79h-264v79h264z" />
    <glyph glyph-name="uniFEF4" unicode="&#x64a;" horiz-adv-x="396" arabic-form="medial" 
d="M182 106q23 20 23 54v162h83v-160q0 -37 20.5 -56.5t59.5 -19.5h28q10 0 10 -43t-10 -43h-31q-92 0 -120 59q-35 -59 -125 -59h-120q-10 0 -10 42q0 44 10 44h120q39 0 62 20zM206 -126v-79h-264v79h264z" />
    <glyph glyph-name=".notdef" horiz-adv-x="590" 
d="M80 0v647h430v-647h-430zM163 86h264v475h-264v-475z" />
    <glyph glyph-name=".null" horiz-adv-x="914" 
 />
    <glyph glyph-name="nonmarkingreturn" horiz-adv-x="914" 
 />
    <glyph glyph-name="space" unicode=" " horiz-adv-x="238" 
 />
    <glyph glyph-name="exclam" unicode="!" horiz-adv-x="269" 
d="M94 352q-3 59 -3 148v147h88v-147q0 -92 -3 -152t-11 -156h-59q-9 101 -12 160zM93 10.5q-13 13.5 -13 44.5q0 30 13 43t41 13t41.5 -13t13.5 -43q0 -31 -13.5 -44.5t-41.5 -13.5t-41 13.5z" />
    <glyph glyph-name="quotedbl" unicode="&#x22;" horiz-adv-x="396" 
d="M163 637v-258h-83v258h83zM316 637v-258h-84v258h84z" />
    <glyph glyph-name="quotedbl" unicode="&#x2033;" horiz-adv-x="396" 
d="M163 637v-258h-83v258h83zM316 637v-258h-84v258h84z" />
    <glyph glyph-name="numbersign" unicode="#" horiz-adv-x="792" 
d="M105 403v77h166l29 162l76 -10l-28 -152h150l30 162l76 -9l-28 -153h136v-77h-148l-31 -172h153v-77h-164l-30 -162l-76 9l28 153h-150l-30 -162l-76 9l28 153h-136v77h148l32 172h-155zM490 404h-156l-32 -175h156z" />
    <glyph glyph-name="dollar" unicode="$" horiz-adv-x="539" 
d="M437.5 48.5q43.5 41.5 43.5 113.5q0 49 -16.5 82.5t-58 58t-116.5 42.5q-57 13 -88.5 27t-45 33t-13.5 47q0 59 44.5 79.5t110.5 20.5q77 0 148 -27v72q-21 8 -58.5 14t-78.5 8v75h-76v-76q-88 -9 -131.5 -52t-43.5 -115q0 -48 16.5 -79t55.5 -52.5t108 -40.5
q59 -15 92.5 -30t49 -36t15.5 -52q0 -51 -37.5 -76.5t-108.5 -25.5q-91 0 -178 34v-72q63 -26 162 -30v-73h76v78q85 11 128.5 52.5z" />
    <glyph glyph-name="percent" unicode="%" horiz-adv-x="688" 
d="M280.5 380q32.5 36 32.5 97q0 68 -32.5 106t-95.5 38t-95 -38t-32 -106q0 -61 32.5 -97t94.5 -36q63 0 95.5 36zM541 612h-81l-314 -612h80zM109 479q0 46 18.5 68t57.5 22q40 0 58.5 -22t18.5 -68q0 -83 -77 -83q-76 0 -76 83zM598 26.5q33 36.5 33 96.5
q0 68 -32.5 106.5t-95.5 38.5t-95.5 -38.5t-32.5 -106.5q0 -60 33 -96.5t95 -36.5t95 36.5zM427 125q0 46 18.5 68t57.5 22q40 0 58.5 -22t18.5 -68q0 -82 -77 -82q-76 0 -76 82z" />
    <glyph glyph-name="ampersand" unicode="&#x26;" horiz-adv-x="641" 
d="M380 10.5q51 20.5 82 57.5l74 -76l52 52l-71 73q15 25 24 58t9 66v22h-66v-21q0 -42 -16 -74l-154 160q52 38 76 72.5t24 82.5q0 63 -39.5 100.5t-108.5 37.5q-65 0 -107.5 -36t-42.5 -102q0 -40 20 -69.5t64 -74.5q-65 -39 -103.5 -83.5t-38.5 -107.5q0 -76 59 -117
t146 -41q66 0 117 20.5zM231 395q-24 23 -34 42.5t-10 42.5q0 34 20 56t60 22q39 0 58 -21t19 -57q0 -39 -18.5 -61t-65.5 -52q-5 5 -29 28zM176.5 79.5q-36.5 23.5 -36.5 70.5q0 44 26.5 72.5t85.5 60.5l158 -163q-44 -64 -147 -64q-50 0 -86.5 23.5z" />
    <glyph glyph-name="quotesingle" unicode="'" horiz-adv-x="244" 
d="M163 637v-258h-83v258h83z" />
    <glyph glyph-name="quotesingle" unicode="&#x2032;" horiz-adv-x="244" 
d="M163 637v-258h-83v258h83z" />
    <glyph glyph-name="parenleft" unicode="(" horiz-adv-x="372" 
d="M191.5 150.5q28.5 -69.5 99.5 -137.5l-49 -48q-87 74 -124.5 158t-37.5 200q0 117 37.5 201t124.5 158l49 -48q-71 -68 -99.5 -137.5t-28.5 -173.5q0 -103 28.5 -172.5z" />
    <glyph glyph-name="parenright" unicode=")" horiz-adv-x="372" 
d="M180 497q-28 70 -100 137l50 48q86 -74 123.5 -158.5t37.5 -200.5t-37.5 -200t-123.5 -158l-50 48q72 67 100 136.5t28 173.5t-28 174z" />
    <glyph glyph-name="asterisk" unicode="*" horiz-adv-x="600" 
d="M141 44l103 140l-164 55l20 69l164 -58l-1 175h71l-1 -175l166 58l20 -69l-164 -55l103 -140l-57 -44l-101 146l-102 -146z" />
    <glyph glyph-name="asterisk" unicode="&#x66d;" horiz-adv-x="600" 
d="M141 44l103 140l-164 55l20 69l164 -58l-1 175h71l-1 -175l166 58l20 -69l-164 -55l103 -140l-57 -44l-101 146l-102 -146z" />
    <glyph glyph-name="plus" unicode="+" horiz-adv-x="598" 
d="M80 244h178v172h83v-172h177v-84h-177v-173h-83v173h-178v84z" />
    <glyph glyph-name="comma" unicode="," horiz-adv-x="217" 
d="M160 61h-77l-25 -175h62z" />
    <glyph glyph-name="hyphen" unicode="-" horiz-adv-x="598" 
d="M80 244h438v-84h-438v84z" />
    <glyph glyph-name="hyphen" unicode="&#x2010;" horiz-adv-x="598" 
d="M80 244h438v-84h-438v84z" />
    <glyph glyph-name="period" unicode="." horiz-adv-x="269" 
d="M93 14q-13 14 -13 46q0 31 13 44t41 13t41.5 -13t13.5 -44q0 -32 -13.5 -46t-41.5 -14t-41 14z" />
    <glyph glyph-name="slash" unicode="/" horiz-adv-x="569" 
d="M488 601l-337 -609l-71 41l338 609z" />
    <glyph glyph-name="zero" unicode="0" horiz-adv-x="551" 
d="M370.5 460.5q45.5 -27.5 73 -72t27.5 -93.5t-27.5 -94t-73 -72.5t-94.5 -27.5t-94.5 28t-73.5 72.5t-28 93.5t28 93.5t73.5 72t94.5 27.5t94.5 -27.5zM330.5 197.5q26.5 16.5 43.5 43t17 54.5q0 27 -17 53.5t-43.5 43t-54.5 16.5t-55 -16.5t-44 -43t-17 -53.5
q0 -28 17 -54.5t44 -43t55 -16.5t54.5 16.5z" />
    <glyph glyph-name="one" unicode="1" horiz-adv-x="284" 
d="M100 434q-10 72 -40 175l81 28q31 -102 41.5 -177.5t10.5 -194.5v-265h-83v264q0 98 -10 170z" />
    <glyph glyph-name="two" unicode="2" horiz-adv-x="495" 
d="M222.5 318q-20.5 8 -30.5 23q1 -22 1 -76v-265h-83v264q0 98 -10 170t-40 175l80 28l45 -175q18 -66 79 -66q32 0 54.5 20t22.5 50q0 38 -19 153l83 18q20 -123 20 -172q0 -44 -20 -79.5t-55.5 -55.5t-79.5 -20q-27 0 -47.5 8z" />
    <glyph glyph-name="three" unicode="3" horiz-adv-x="718" 
d="M424 465q0 -13 -4 -33q26 -36 69 -36q31 0 53 20t22 50q0 38 -19 153l82 18q20 -114 20 -172q0 -44 -20 -79.5t-54.5 -55.5t-77.5 -20q-36 0 -65.5 13t-46.5 36q-16 -23 -46 -36t-67 -13q-27 0 -47.5 8t-30.5 23q1 -22 1 -76v-265h-83v264q0 98 -10 170t-40 175l80 28
l45 -175q18 -66 79 -66q32 0 54.5 20t22.5 50q0 38 -19 153l83 18q19 -117 19 -172z" />
    <glyph glyph-name="four" unicode="4" horiz-adv-x="642" 
d="M240 407.5q-8 26.5 -8 53.5q0 48 24.5 88.5t67 64t94.5 23.5q59 0 125 -30l-23 -76q-54 23 -99 23q-47 0 -76.5 -29t-29.5 -71q0 -44 24.5 -73.5t58.5 -29.5q66 0 152 38l22 -76q-103 -48 -205 -48q-57 0 -102.5 13.5t-72.5 35.5q1 -18 1 -58v-256h-83v264q0 98 -10 170
t-40 175l80 28q25 -90 44 -199q5 -27 22.5 -46t56.5 -29q-15 18 -23 44.5z" />
    <glyph glyph-name="five" unicode="5" horiz-adv-x="689" 
d="M120 340.5q50 87.5 165 199.5l-48 42l52 63q125 -98 196.5 -174t102.5 -143t31 -138q0 -57 -22 -100.5t-59.5 -66.5t-82.5 -23q-40 0 -69.5 12t-46.5 33q-17 -21 -46.5 -33t-65.5 -12q-74 0 -115.5 46t-41.5 127q0 80 50 167.5zM490.5 332q-45.5 70 -146.5 156
q-98 -90 -144.5 -164.5t-46.5 -145.5q0 -46 20.5 -69t59.5 -23t60.5 23t21.5 63v69h75v-67q0 -34 -8 -58q23 -30 73 -30q35 0 58 27.5t23 74.5q0 74 -45.5 144z" />
    <glyph glyph-name="six" unicode="6" horiz-adv-x="528" 
d="M193 -8l-70 39q36 65 83 132.5t92 116.5q-20 -7 -46 -7q-81 0 -126.5 46t-45.5 123q0 52 24 97t65.5 71.5t90.5 26.5q33 0 61.5 -7.5t61.5 -24.5l-29 -69q-45 18 -91 18q-42 0 -71 -30.5t-29 -73.5q0 -46 27 -70t79 -24q69 0 150 39l39 -60q-135 -112 -265 -343z" />
    <glyph glyph-name="seven" unicode="7" horiz-adv-x="619" 
d="M189 316q-53 142 -139 277l69 49q72 -113 121 -236.5t71 -248.5q46 269 186 485l71 -49q-81 -124 -133.5 -266.5t-86.5 -326.5h-78q-28 174 -81 316z" />
    <glyph glyph-name="eight" unicode="8" horiz-adv-x="619" 
d="M430.5 317.5q52.5 -142.5 137.5 -275.5l-68 -50q-73 114 -122 237.5t-70 247.5q-49 -273 -186 -485l-72 50q81 123 134 265.5t87 326.5h78q29 -174 81.5 -316.5z" />
    <glyph glyph-name="nine" unicode="9" horiz-adv-x="525" 
d="M239 260q-81 0 -125 42.5t-44 119.5q0 56 25 105.5t68.5 79.5t96.5 30q89 0 137 -69.5t48 -199.5v-368h-83v283q-50 -23 -123 -23zM336 509q-26 45 -81 45q-43 0 -72.5 -36t-29.5 -90q0 -40 24.5 -61t70.5 -21q71 0 114 24q0 94 -26 139z" />
    <glyph glyph-name="colon" unicode=":" horiz-adv-x="269" 
d="M93 268q-13 14 -13 46q0 31 13 44t41 13t41.5 -13t13.5 -44q0 -32 -13.5 -46t-41.5 -14t-41 14zM93 14q-13 14 -13 46q0 31 13 44t41 13t41.5 -13t13.5 -44q0 -32 -13.5 -46t-41.5 -14t-41 14z" />
    <glyph glyph-name="semicolon" unicode=";" horiz-adv-x="219" 
d="M160 386h-74v-75h74v75zM160 84h-77l-25 -176h62z" />
    <glyph glyph-name="less" unicode="&#x3c;" horiz-adv-x="544" 
d="M436 -13l-356 161v104l356 161l28 -77l-306 -136l306 -136z" />
    <glyph glyph-name="equal" unicode="=" horiz-adv-x="598" 
d="M80 342h438v-83h-438v83zM80 145h438v-83h-438v83z" />
    <glyph glyph-name="greater" unicode="&#x3e;" horiz-adv-x="544" 
d="M108 413l356 -161v-104l-356 -161l-28 77l306 136l-306 136z" />
    <glyph glyph-name="question" unicode="?" horiz-adv-x="482" 
d="M254.5 218.5q10.5 19.5 25 32.5t54.5 44q46 41 68 73.5t22 82.5q0 82 -50.5 126t-148.5 44q-50 0 -94 -9.5t-73 -26.5v-68q67 36 146 36q134 0 134 -110q0 -28 -10.5 -48t-25 -33.5t-53.5 -46.5q-31 -26 -47 -42.5t-26.5 -41t-10.5 -58.5v-21h79v18q0 29 10.5 48.5z
M250 72h-91v-72h91v72z" />
    <glyph glyph-name="at" unicode="@" horiz-adv-x="732" 
d="M530 -108v56q-58 -18 -159 -18q-116 0 -184 58.5t-68 189.5q0 137 66.5 201t200.5 64q115 0 170.5 -51.5t55.5 -153.5q0 -75 -21.5 -107.5t-68.5 -32.5v142q0 72 -33 103.5t-109 31.5q-78 0 -126 -21v-45q51 20 112 20q43 0 65 -8t29.5 -26t7.5 -51v-29h-120
q-138 0 -138 -113q0 -54 35 -80t91 -26q92 0 141 52h32q83 0 124 50.5t41 143.5q0 123 -73.5 190t-214.5 67q-159 0 -243.5 -78.5t-84.5 -241.5q0 -159 85 -231.5t230 -72.5q85 0 157 17zM269 102q0 36 20 53t71 17h108v-81q-22 -27 -49 -39.5t-64 -12.5q-86 0 -86 63z" />
    <glyph glyph-name="A" unicode="A" horiz-adv-x="664" 
d="M208 165h248l60 -165h91l-225 612h-100l-225 -612h91zM442 233h-221l111 293z" />
    <glyph glyph-name="B" unicode="B" horiz-adv-x="605" 
d="M549 176q0 60 -24.5 93.5t-71.5 46.5q35 17 54 51t19 82q0 163 -171 163h-280v-612h294q180 0 180 176zM420 519q24 -25 24 -77q0 -96 -98 -96h-188v198h176q62 0 86 -25zM431 260q30 -23 30 -80q0 -59 -26 -85.5t-83 -26.5h-194v215h183q60 0 90 -23z" />
    <glyph glyph-name="C" unicode="C" horiz-adv-x="576" 
d="M519 17v84q-37 -14 -80 -22t-84 -8q-105 0 -157 56.5t-52 164.5q0 121 48 185t158 64q93 0 166 -32v84q-71 28 -172 28q-289 0 -289 -329q0 -143 72 -222.5t217 -79.5q90 0 173 27z" />
    <glyph glyph-name="D" unicode="D" horiz-adv-x="619" 
d="M503.5 72q60.5 72 60.5 230q0 164 -61 237t-193 73h-235v-612h235q133 0 193.5 72zM409 506.5q39 -26.5 52.5 -75.5t13.5 -129q0 -92 -19.5 -141t-57.5 -67.5t-102 -18.5h-133v458h133q74 0 113 -26.5z" />
    <glyph glyph-name="E" unicode="E" horiz-adv-x="528" 
d="M481 72h-318v198h284v73h-284v197h318v72h-406v-612h406v72z" />
    <glyph glyph-name="F" unicode="F" horiz-adv-x="504" 
d="M163 270h272v73h-272v197h307v72h-395v-612h88v270z" />
    <glyph glyph-name="G" unicode="G" horiz-adv-x="619" 
d="M559 40v294h-228v-63h153v-176q-28 -11 -64.5 -17.5t-72.5 -6.5q-201 0 -201 221q0 121 50 185t160 64q91 0 166 -26v82q-69 24 -174 24q-149 0 -220 -86t-71 -243q0 -143 72 -222.5t215 -79.5q138 0 215 50z" />
    <glyph glyph-name="H" unicode="H" horiz-adv-x="624" 
d="M163 263h299v-263h86v612h-86v-262h-299v262h-88v-612h88v263z" />
    <glyph glyph-name="I" unicode="I" horiz-adv-x="239" 
d="M163 612h-88v-612h88v612z" />
    <glyph glyph-name="J" unicode="J" horiz-adv-x="411" 
d="M340 165v447h-87v-428q0 -59 -26.5 -85.5t-89.5 -26.5q-62 0 -109 22v-82q56 -22 126 -22q186 0 186 175z" />
    <glyph glyph-name="K" unicode="K" horiz-adv-x="590" 
d="M163 206l92 99l188 -305h93l-227 366l220 246h-103l-263 -288v288h-88v-612h88v206z" />
    <glyph glyph-name="L" unicode="L" horiz-adv-x="512" 
d="M471 75h-308v537h-88v-612h396v75z" />
    <glyph glyph-name="M" unicode="M" horiz-adv-x="722" 
d="M163 458l170 -352h56l170 352v-458h87v612h-92l-192 -405l-195 405h-92v-612h88v458z" />
    <glyph glyph-name="N" unicode="N" horiz-adv-x="639" 
d="M163 463l323 -463h78v612h-88v-463l-323 463h-78v-612h88v463z" />
    <glyph glyph-name="O" unicode="O" horiz-adv-x="667" 
d="M541 69.5q69 79.5 69 232.5q0 166 -67.5 242.5t-208.5 76.5t-209 -76.5t-68 -242.5q0 -153 69.5 -232.5t207.5 -79.5t207 79.5zM192.5 128.5q-46.5 57.5 -46.5 173.5q0 129 45 184t143 55q97 0 142.5 -55t45.5 -184q0 -231 -188 -231q-95 0 -141.5 57.5z" />
    <glyph glyph-name="P" unicode="P" horiz-adv-x="566" 
d="M328 211q92 0 145.5 53.5t53.5 144.5q0 93 -48.5 148t-146.5 55h-257v-612h88v211h165zM409 503q31 -32 31 -94q0 -57 -33 -89.5t-94 -32.5h-150v248h155q60 0 91 -32z" />
    <glyph glyph-name="Q" unicode="Q" horiz-adv-x="667" 
d="M502 -152v59q-38 -10 -66 -10q-40 0 -55.5 22t-16.5 73q124 7 185 86.5t61 223.5q0 166 -67.5 242.5t-208.5 76.5t-209 -76.5t-68 -242.5q0 -137 56.5 -217t176.5 -92q2 -77 31 -116.5t98 -39.5q46 0 83 11zM192.5 128.5q-46.5 57.5 -46.5 173.5q0 129 45 184t143 55
q97 0 142.5 -55t45.5 -184q0 -231 -188 -231q-95 0 -141.5 57.5z" />
    <glyph glyph-name="R" unicode="R" horiz-adv-x="585" 
d="M271 224q43 0 61 -10.5t30 -40.5l72 -173h92l-79 187q-9 23 -18.5 35t-26.5 20q60 17 92.5 62.5t32.5 114.5q0 90 -46 141.5t-141 51.5h-265v-612h88v224h108zM440 419q0 -118 -123 -118h-154v234h164q113 0 113 -116z" />
    <glyph glyph-name="S" unicode="S" horiz-adv-x="538" 
d="M422.5 34q58.5 44 58.5 128q0 49 -16.5 83t-57 58t-111.5 41q-59 14 -91 28t-45.5 32.5t-13.5 46.5q0 51 37.5 75t112.5 24q82 0 150 -27v74q-26 10 -73.5 17t-92.5 7q-112 0 -167.5 -44t-55.5 -126q0 -47 16.5 -78t54 -53t103.5 -40q88 -21 124.5 -46t36.5 -72
q0 -101 -149 -101q-84 0 -173 34v-74q71 -31 181 -31q113 0 171.5 44z" />
    <glyph glyph-name="T" unicode="T" horiz-adv-x="553" 
d="M320 540h193v72h-473v-72h193v-540h87v540z" />
    <glyph glyph-name="U" unicode="U" horiz-adv-x="646" 
d="M510 50.5q65 60.5 65 175.5v386h-88v-383q0 -78 -42 -117.5t-122 -39.5q-79 0 -122 39.5t-43 117.5v383h-87v-386q0 -115 65 -175.5t187 -60.5t187 60.5z" />
    <glyph glyph-name="V" unicode="V" horiz-adv-x="664" 
d="M607 612h-92l-183 -511l-184 511h-91l225 -612h100z" />
    <glyph glyph-name="W" unicode="W" horiz-adv-x="822" 
d="M416 440l123 -440h88l137 612h-85l-107 -472l-132 472h-71v-71l-120 -401l-106 472h-86l138 -612h89z" />
    <glyph glyph-name="X" unicode="X" horiz-adv-x="638" 
d="M319 230l160 -230h102l-210 305l207 307h-101l-158 -235l-157 235h-102l206 -307l-209 -305h103z" />
    <glyph glyph-name="Y" unicode="Y" horiz-adv-x="622" 
d="M355 228l211 384h-91l-164 -303l-164 303h-91l212 -384v-228h87v228z" />
    <glyph glyph-name="Z" unicode="Z" horiz-adv-x="554" 
d="M501 75h-329l325 476v61h-425v-79h313l-328 -481v-52h444v75z" />
    <glyph glyph-name="bracketleft" unicode="[" horiz-adv-x="370" 
d="M290 594h-127v-541h127v-83h-210v707h210v-83z" />
    <glyph glyph-name="backslash" unicode="\" horiz-adv-x="569" 
d="M151 642l337 -609l-70 -41l-338 609z" />
    <glyph glyph-name="bracketright" unicode="]" horiz-adv-x="370" 
d="M80 677h210v-707h-210v83h126v541h-126v83z" />
    <glyph glyph-name="underscore" unicode="_" horiz-adv-x="597" 
d="M517 63v-69h-437v69h437z" />
    <glyph glyph-name="a" unicode="a" horiz-adv-x="528" 
d="M376 52l6 -52h75v291q0 88 -47.5 128.5t-142.5 40.5q-43 0 -86 -7t-74 -20v-58q66 24 140 24q72 0 99 -22.5t27 -76.5v-39h-149q-80 0 -123.5 -32.5t-43.5 -105.5q0 -68 42.5 -100.5t109.5 -32.5q110 0 167 62zM164.5 67.5q-26.5 19.5 -26.5 58.5q0 45 27 62.5t77 17.5
h131v-100q-26 -30 -58 -44t-76 -14q-48 0 -74.5 19.5z" />
    <glyph glyph-name="b" unicode="b" horiz-adv-x="560" 
d="M451.5 49.5q51.5 59.5 51.5 179.5q0 118 -50.5 174.5t-148.5 56.5q-83 0 -141 -39v219h-88v-640h75l6 46q30 -28 66.5 -42t83.5 -14q94 0 145.5 59.5zM163 112v235q49 41 118 41q68 0 101 -37.5t33 -122.5q0 -84 -32 -125t-101 -41q-71 0 -119 50z" />
    <glyph glyph-name="c" unicode="c" horiz-adv-x="461" 
d="M423 17v72q-59 -27 -118 -27q-84 0 -121.5 39.5t-37.5 123.5q0 163 162 163q63 0 114 -25v71q-28 14 -58 20t-73 6q-110 0 -172 -59t-62 -176q0 -114 57.5 -174.5t170.5 -60.5q76 0 138 27z" />
    <glyph glyph-name="d" unicode="d" horiz-adv-x="560" 
d="M337.5 4q35.5 14 66.5 42l5 -46h75v640h-87v-219q-30 21 -61.5 30t-73.5 9q-100 0 -152.5 -65t-52.5 -178q0 -117 53.5 -172t143.5 -55q48 0 83.5 14zM146 217q0 86 36 128.5t104 42.5q35 0 61.5 -10.5t49.5 -30.5v-235q-48 -50 -119 -50q-132 0 -132 155z" />
    <glyph glyph-name="e" unicode="e" horiz-adv-x="520" 
d="M436 17v58q-62 -24 -122 -24q-89 0 -129.5 34t-45.5 107h324v78q0 87 -51 138.5t-144 51.5q-107 0 -159 -60.5t-52 -172.5q0 -119 58.5 -178t177.5 -59q83 0 143 27zM169 359.5q30 39.5 101 39.5q60 0 87.5 -30.5t27.5 -85.5v-35h-246q0 72 30 111.5z" />
    <glyph glyph-name="f" unicode="f" horiz-adv-x="364" 
d="M305 378l5 72h-116v63q0 38 19 55.5t63 17.5q29 0 55 -10v65q-34 15 -84 15q-68 0 -104.5 -38t-36.5 -105v-63h-63v-72h63v-378h88v378h111z" />
    <glyph glyph-name="g" unicode="g" horiz-adv-x="539" 
d="M409 -140q52 27 52 92q0 105 -133 105h-109q-39 0 -55 8.5t-16 28.5q0 22 20.5 34.5t54.5 16.5q30 -5 58 -5q88 0 129 39t41 116q0 59 -38 94h77l3 61h-158q-42 10 -78 10q-99 0 -147.5 -40t-48.5 -124q0 -103 76 -134q-38 -10 -59 -32t-21 -52q0 -40 31 -58.5t98 -18.5
h115q48 0 66 -11t18 -40q0 -35 -33.5 -46t-104.5 -11q-101 0 -173 23v-60q31 -11 78.5 -17t98.5 -6q106 0 158 27zM165.5 221q-26.5 24 -26.5 77q0 56 28 80.5t90 24.5q64 0 91.5 -24.5t27.5 -80.5q0 -58 -28.5 -79.5t-90.5 -21.5q-65 0 -91.5 24z" />
    <glyph glyph-name="h" unicode="h" horiz-adv-x="556" 
d="M221.5 372q33.5 15 70.5 15q60 0 83 -22.5t23 -78.5v-286h86v293q0 87 -38 127t-121 40q-95 0 -162 -54v234h-88v-640h88v332q25 25 58.5 40z" />
    <glyph glyph-name="i" unicode="i" horiz-adv-x="289" 
d="M214 629h-97v-81h97v81zM214 450h-150l-5 -72h67v-378h88v450z" />
    <glyph glyph-name="j" unicode="j" horiz-adv-x="303" 
d="M226 629h-96v-81h96v81zM190 -184.5q35 37.5 35 101.5v533h-148l-6 -72h68v-457q0 -74 -81 -74q-27 0 -56 10v-65q40 -14 87 -14q66 0 101 37.5z" />
    <glyph glyph-name="k" unicode="k" horiz-adv-x="511" 
d="M163 160l61 59l151 -219h93l-189 270l178 180h-101l-193 -185v375h-88v-640h88v160z" />
    <glyph glyph-name="l" unicode="l" horiz-adv-x="281" 
d="M241 1v66q-17 -7 -42 -7q-19 0 -27.5 11t-8.5 38v531h-88v-538q0 -59 25 -85.5t76 -26.5q38 0 65 11z" />
    <glyph glyph-name="m" unicode="m" horiz-adv-x="814" 
d="M218 371.5q33 15.5 65 15.5q47 0 65.5 -22t18.5 -78v-287h82v285q0 38 -5 54q22 23 52 35.5t64 12.5q51 0 73.5 -22t22.5 -76v-289h86v299q0 82 -36 121.5t-111 39.5q-95 0 -165 -60q-14 30 -41 45t-74 15q-84 0 -156 -58l-5 48h-79v-450h85v332q25 24 58 39.5z" />
    <glyph glyph-name="n" unicode="n" horiz-adv-x="556" 
d="M221.5 372q33.5 15 70.5 15q59 0 82.5 -22.5t23.5 -77.5v-287h86v297q0 84 -36 123.5t-114 39.5q-101 0 -174 -57l-5 47h-80v-450h88v332q25 25 58.5 40z" />
    <glyph glyph-name="o" unicode="o" horiz-adv-x="558" 
d="M447 49q54 59 54 176t-54.5 176t-167.5 59q-114 0 -168 -59t-54 -176t54 -176t168 -59t168 59zM177 101.5q-31 39.5 -31 123.5q0 85 31 124t102 39q72 0 103.5 -39.5t31.5 -123.5t-31.5 -123.5t-103.5 -39.5q-71 0 -102 39.5z" />
    <glyph glyph-name="p" unicode="p" horiz-adv-x="560" 
d="M299 -10q102 0 153 63.5t51 175.5q0 231 -197 231q-48 0 -84.5 -13.5t-65.5 -42.5l-6 46h-75v-650h88v230q61 -40 136 -40zM215 72.5q-26 10.5 -52 30.5v236q46 49 119 49q70 0 101.5 -38t31.5 -122q0 -166 -138 -166q-36 0 -62 10.5z" />
    <glyph glyph-name="q" unicode="q" horiz-adv-x="556" 
d="M571 -219v66q-19 -7 -34 -7q-32 0 -42.5 14.5t-10.5 49.5v546h-75l-5 -46q-30 29 -65.5 42.5t-83.5 13.5q-95 0 -146.5 -58.5t-51.5 -177.5q0 -112 50.5 -173t153.5 -61q75 0 136 40v-136q0 -64 26.5 -94t83.5 -30q32 0 64 11zM180 101.5q-34 39.5 -34 124.5
q0 83 31.5 122.5t100.5 39.5q73 0 119 -49v-236q-24 -20 -51 -30.5t-63 -10.5q-69 0 -103 39.5z" />
    <glyph glyph-name="r" unicode="r" horiz-adv-x="356" 
d="M237 363q46 17 85 24v73q-40 -6 -83 -23.5t-76 -38.5l-5 52h-83v-450h88v328q28 18 74 35z" />
    <glyph glyph-name="s" unicode="s" horiz-adv-x="451" 
d="M394 120q0 40 -15 64.5t-44 40t-81 31.5q-49 16 -67.5 23.5t-29.5 20t-11 35.5q0 33 26 47.5t81 14.5q58 0 111 -19v65q-24 8 -60 12.5t-72 4.5q-90 0 -132.5 -31t-42.5 -94q0 -38 15.5 -61.5t40.5 -36.5t72 -30l27 -9q38 -12 56 -20.5t28.5 -21.5t10.5 -36
q0 -36 -26 -51.5t-81 -15.5q-31 0 -67 6.5t-66 18.5v-65q27 -11 66.5 -17t82.5 -6q178 0 178 130z" />
    <glyph glyph-name="t" unicode="t" horiz-adv-x="356" 
d="M322 5v65q-26 -10 -52 -10q-77 0 -77 75v243h115l3 72h-118v135l-88 -22v-113h-65v-72h65v-247q0 -68 35 -104.5t99 -36.5q40 0 83 15z" />
    <glyph glyph-name="u" unicode="u" horiz-adv-x="556" 
d="M323 4.5q38 14.5 73 42.5l5 -47h79v450h-87v-331q-52 -55 -123 -55q-58 0 -85 27.5t-27 81.5v277h-87v-285q0 -84 41.5 -129.5t119.5 -45.5q53 0 91 14.5z" />
    <glyph glyph-name="v" unicode="v" horiz-adv-x="553" 
d="M496 450h-91l-129 -358l-128 358h-91l171 -450h97z" />
    <glyph glyph-name="w" unicode="w" horiz-adv-x="707" 
d="M355 307l98 -307h83l114 450h-85l-81 -338l-102 338h-65v-53l-92 -285l-83 338h-85l114 -450h86z" />
    <glyph glyph-name="x" unicode="x" horiz-adv-x="526" 
d="M262 162l118 -162h95l-165 229l158 221h-93l-113 -154l-112 154h-96l161 -221l-165 -229h94z" />
    <glyph glyph-name="y" unicode="y" horiz-adv-x="571" 
d="M272.5 -119.5q41.5 47.5 79.5 143.5l180 426h-90l-149 -353l-144 353h-92l192 -444q-25 -55 -47 -79.5t-61 -24.5q-31 0 -56 10v-66q33 -13 80 -13q66 0 107.5 47.5z" />
    <glyph glyph-name="z" unicode="z" horiz-adv-x="475" 
d="M416 72h-248l243 319v59h-343v-75h235l-246 -320v-55h359v72z" />
    <glyph glyph-name="braceleft" unicode="{" horiz-adv-x="449" 
d="M228 356q17 19 23.5 50.5t6.5 86.5q0 42 7 63t25 29.5t54 8.5h25v83h-45q-55 0 -86.5 -15.5t-46 -52t-16.5 -101.5q-1 -54 -9 -83t-27.5 -43t-58.5 -18v-81q39 -4 58.5 -18t27.5 -43t9 -83q2 -65 16.5 -101.5t46 -52t86.5 -15.5h45v83h-25q-36 0 -54 8.5t-25 29.5t-7 63
q0 55 -6.5 86.5t-23.5 50.5t-50 32q33 14 50 33z" />
    <glyph glyph-name="bar" unicode="|" horiz-adv-x="244" 
d="M80 -30v707h83v-707h-83z" />
    <glyph glyph-name="braceright" unicode="}" horiz-adv-x="449" 
d="M221 291q-17 -19 -24 -50.5t-7 -86.5q0 -42 -7 -63t-25 -29.5t-53 -8.5h-25v-83h45q55 0 86.5 15.5t46 52t16.5 101.5q1 54 8.5 83t27.5 43t59 18v81q-39 4 -59 18t-27.5 43t-8.5 83q-2 65 -16.5 101.5t-46 52t-86.5 15.5h-45v-83h25q35 0 53 -8.5t25 -29.5t7 -63
q0 -55 7 -86.5t24 -50.5t50 -33q-33 -13 -50 -32z" />
    <glyph glyph-name="uni00A0" unicode="&#xa0;" horiz-adv-x="184" 
 />
    <glyph glyph-name="cent" unicode="&#xa2;" horiz-adv-x="480" 
d="M422 17v71q-58 -29 -121 -29q-86 0 -122 43t-36 123q0 81 40.5 123.5t121.5 42.5q65 0 116 -26v69q-25 12 -49 17.5t-59 6.5v74h-74v-78q-87 -12 -134 -70t-47 -159q0 -209 181 -229v-78h74v74q60 3 109 25z" />
    <glyph glyph-name="sterling" unicode="&#xa3;" horiz-adv-x="489" 
d="M195 70q24 20 24 70v145h173l3 70h-176v112q0 43 26 65t75 22q21 0 42.5 -3.5t33.5 -10.5v63q-33 18 -105 18t-114.5 -40.5t-42.5 -112.5v-113h-64v-70h64v-150q0 -65 -52 -65h-24v-70h374v70h-237z" />
    <glyph glyph-name="currency" unicode="&#xa4;" horiz-adv-x="555" 
d="M278 79q58 0 103 37l78 -62l38 51l-76 59q29 42 29 92q0 51 -29 91l76 59l-38 51l-78 -63q-21 19 -48 29t-56 10q-60 0 -104 -38l-77 62l-38 -51l75 -59q-28 -38 -28 -91q0 -52 28 -92l-75 -58l38 -52l77 61q50 -36 105 -36zM198.5 176.5q-32.5 33.5 -32.5 80.5
q0 46 32.5 79t78.5 33t78 -33t32 -79q0 -47 -32 -80.5t-78 -33.5t-78.5 33.5z" />
    <glyph glyph-name="yen" unicode="&#xa5;" horiz-adv-x="613" 
d="M349 97h141v51h-141v68h141v51h-121l186 345h-90l-159 -304l-160 304h-88l184 -345h-121v-51h142v-68h-142v-51h142v-97h86v97z" />
    <glyph glyph-name="brokenbar" unicode="&#xa6;" horiz-adv-x="244" 
d="M80 385v292h83v-292h-83zM80 -30v292h83v-292h-83z" />
    <glyph glyph-name="copyright" unicode="&#xa9;" horiz-adv-x="725" 
d="M516 32.5q70 42.5 111 115t41 158.5t-41 158t-111 114.5t-153 42.5t-153 -42.5t-111 -114.5t-41 -158t41 -158.5t111 -115t153 -42.5t153 42.5zM235.5 78q-58.5 35 -92.5 95t-34 133t34 133t92.5 95t127.5 35t127.5 -35t92.5 -95t34 -133t-34 -133t-92.5 -95t-127.5 -35
t-127.5 35zM487 121v50q-23 -13 -52.5 -20.5t-57.5 -7.5q-77 0 -118 41t-41 122q0 78 45.5 119.5t118.5 41.5q55 0 104 -26v48q-25 15 -52 23t-65 8q-59 0 -106.5 -24.5t-75.5 -72.5t-28 -117q0 -100 54.5 -157t149.5 -57q74 0 124 29z" />
    <glyph glyph-name="guillemotleft" unicode="&#xab;" horiz-adv-x="513" 
d="M107.5 413q27.5 70 87.5 135l55 -47q-48 -56 -67.5 -110.5t-19.5 -133.5t19.5 -134t67.5 -111l-55 -47q-60 65 -87.5 135t-27.5 157q0 86 27.5 156zM290.5 413.5q27.5 69.5 87.5 134.5l54 -47q-48 -56 -67 -110.5t-19 -133.5q0 -80 19 -134.5t67 -110.5l-54 -47
q-60 65 -87.5 134.5t-27.5 157.5q0 87 27.5 156.5z" />
    <glyph glyph-name="logicalnot" unicode="&#xac;" horiz-adv-x="598" 
d="M80 250v84h438v-290h-83v206h-355z" />
    <glyph glyph-name="uni00AD" unicode="&#xad;" horiz-adv-x="598" 
d="M80 244h438v-84h-438v84z" />
    <glyph glyph-name="registered" unicode="&#xae;" horiz-adv-x="725" 
d="M516 32.5q70 42.5 111 115t41 158.5t-41 158t-111 114.5t-153 42.5t-153 -42.5t-111 -114.5t-41 -158t41 -158.5t111 -115t153 -42.5t153 42.5zM235.5 78q-58.5 35 -92.5 95t-34 133t34 133t92.5 95t127.5 35t127.5 -35t92.5 -95t34 -133t-34 -133t-92.5 -95t-127.5 -35
t-127.5 35zM353 258q31 0 43.5 -7.5t21.5 -27.5l46 -114h51l-48 121q-8 17 -14 25t-18 13q86 20 86 114q0 57 -31 89t-92 32h-173v-394h53v149h75zM450 441q19 -18 19 -59q0 -42 -22 -60.5t-64 -18.5h-105v156h112q41 0 60 -18z" />
    <glyph glyph-name="degree" unicode="&#xb0;" horiz-adv-x="454" 
d="M99.5 567.5q19.5 33.5 53.5 52t74 18.5t74 -18.5t53.5 -52t19.5 -75.5t-19.5 -75.5t-53.5 -52t-74 -18.5t-74 18.5t-53.5 52t-19.5 75.5t19.5 75.5zM175 440q20 -20 52 -20t52.5 20.5t20.5 51.5t-20.5 51t-52.5 20t-52 -19.5t-20 -51.5t20 -52z" />
    <glyph glyph-name="plusminus" unicode="&#xb1;" horiz-adv-x="598" 
d="M80 84h438v-84h-438v84zM80 381h178v172h83v-172h177v-84h-177v-173h-83v173h-178v84z" />
    <glyph glyph-name="paragraph" unicode="&#xb6;" horiz-adv-x="553" 
d="M396 554h-89v-554h-77v302q-60 0 -91.5 12.5t-45 47.5t-13.5 105t14.5 106t47.5 50t95 14h236v-637h-77v554z" />
    <glyph glyph-name="periodcentered" unicode="&#xb7;" horiz-adv-x="290" 
d="M98 275q-13 14 -13 46q0 31 13 44t41 13t41.5 -13t13.5 -44q0 -32 -13.5 -46t-41.5 -14t-41 14z" />
    <glyph glyph-name="guillemotright" unicode="&#xbb;" horiz-adv-x="513" 
d="M222.5 100q-27.5 -70 -87.5 -135l-55 47q48 56 67.5 111t19.5 134t-19.5 133.5t-67.5 110.5l55 47q60 -65 87.5 -135t27.5 -156q0 -87 -27.5 -157zM404.5 99.5q-27.5 -69.5 -87.5 -134.5l-54 47q48 56 67 110.5t19 134.5q0 79 -19 133.5t-67 110.5l54 47
q60 -65 87.5 -134.5t27.5 -156.5q0 -88 -27.5 -157.5z" />
    <glyph glyph-name="multiply" unicode="&#xd7;" horiz-adv-x="563" 
d="M139 403l143 -142l139 139l59 -59l-140 -139l143 -143l-59 -58l-142 142l-141 -140l-58 59l139 140l-142 142z" />
    <glyph glyph-name="divide" unicode="&#xf7;" horiz-adv-x="598" 
d="M349 434v-90h-101v90h101zM80 244h438v-84h-438v84zM349 60v-90h-101v90h101z" />
    <glyph glyph-name="uni0609" unicode="&#x609;" horiz-adv-x="1182" 
d="M650 596l-391 -604l-67 46l390 604zM288 603q32 -20 51 -52t19 -67t-19 -67t-51 -52t-69 -20t-69 20t-51 52t-19 67t19 67t51 52t69 20t69 -20zM266.5 437q20.5 21 20.5 48q0 26 -20.5 46.5t-47.5 20.5t-47.5 -20.5t-20.5 -46.5q0 -27 20.5 -48t47.5 -21t47.5 21z
M692 269q32 -20 51 -52t19 -67t-19 -67t-51 -52t-69 -20t-69 20t-51 52t-19 67t19 67t51 52t69 20t69 -20zM1032 269q32 -20 51 -52t19 -67t-19 -67t-51 -52t-69 -20t-69 20t-51 52t-19 67t19 67t51 52t69 20t69 -20zM670.5 103q20.5 21 20.5 48q0 26 -20.5 46.5t-47.5 20.5
t-47.5 -20.5t-20.5 -46.5q0 -27 20.5 -48t47.5 -21t47.5 21zM1010.5 103q20.5 21 20.5 48q0 26 -20.5 46.5t-47.5 20.5t-47.5 -20.5t-20.5 -46.5q0 -27 20.5 -48t47.5 -21t47.5 21z" />
    <glyph glyph-name="uni060A" unicode="&#x60a;" horiz-adv-x="1522" 
d="M650 596l-391 -604l-67 46l390 604zM288 603q32 -20 51 -52t19 -67t-19 -67t-51 -52t-69 -20t-69 20t-51 52t-19 67t19 67t51 52t69 20t69 -20zM266.5 437q20.5 21 20.5 48q0 26 -20.5 46.5t-47.5 20.5t-47.5 -20.5t-20.5 -46.5q0 -27 20.5 -48t47.5 -21t47.5 21z
M692 269q32 -20 51 -52t19 -67t-19 -67t-51 -52t-69 -20t-69 20t-51 52t-19 67t19 67t51 52t69 20t69 -20zM1032 269q32 -20 51 -52t19 -67t-19 -67t-51 -52t-69 -20t-69 20t-51 52t-19 67t19 67t51 52t69 20t69 -20zM1372 269q32 -20 51 -52t19 -67t-19 -67t-51 -52
t-69 -20t-69 20t-51 52t-19 67t19 67t51 52t69 20t69 -20zM670.5 103q20.5 21 20.5 48q0 26 -20.5 46.5t-47.5 20.5t-47.5 -20.5t-20.5 -46.5q0 -27 20.5 -48t47.5 -21t47.5 21zM1010.5 103q20.5 21 20.5 48q0 26 -20.5 46.5t-47.5 20.5t-47.5 -20.5t-20.5 -46.5
q0 -27 20.5 -48t47.5 -21t47.5 21zM1350.5 103q20.5 21 20.5 48q0 26 -20.5 46.5t-47.5 20.5t-47.5 -20.5t-20.5 -46.5q0 -27 20.5 -48t47.5 -21t47.5 21z" />
    <glyph glyph-name="uni060C" unicode="&#x60c;" horiz-adv-x="269" 
d="M93 14.5q-13 14.5 -13 51.5q0 76 7 108.5t28 46.5t71 24v-56q-29 -6 -39.5 -12t-13.5 -18t-3 -43q31 0 45 -12.5t14 -43.5q0 -32 -13.5 -46t-41.5 -14t-41 14.5z" />
    <glyph glyph-name="uni060D" unicode="&#x60d;" horiz-adv-x="453" 
d="M372 232l-222 -355l-70 42l223 355z" />
    <glyph glyph-name="uni0615" unicode="&#x615;" 
d="M-77 231v-117q24 39 53 59.5t60 20.5q37 0 62 -26t25 -66q0 -44 -30.5 -73t-90.5 -29h-124v231h45zM54.5 63.5q17.5 12.5 17.5 36.5q0 19 -12 31t-30 12q-24 0 -48.5 -24.5t-44.5 -67.5h67q33 0 50.5 12.5z" />
    <glyph glyph-name="uni061B" unicode="&#x61b;" horiz-adv-x="269" 
d="M93 268.5q-13 14.5 -13 51.5q0 76 7 108.5t28 46.5t71 24v-56q-29 -6 -39.5 -12t-13.5 -18t-3 -43q31 0 45 -12.5t14 -43.5q0 -32 -13.5 -46t-41.5 -14t-41 14.5zM93 14q-13 14 -13 46q0 31 13 44t41 13t41.5 -13t13.5 -44q0 -32 -13.5 -46t-41.5 -14t-41 14z" />
    <glyph glyph-name="uni061F" unicode="&#x61f;" horiz-adv-x="526" 
d="M338 532q-25 32 -78 32q-44 0 -70.5 -25.5t-26.5 -66.5q0 -28 11 -50t37 -46q39 -37 55 -58.5t21 -47t5 -78.5h-84q0 36 -3.5 54t-14.5 33.5t-38 42.5q-39 39 -55.5 73.5t-16.5 76.5q0 50 23 90t65 62.5t95 22.5q92 0 137.5 -52.5t45.5 -160.5h-83q0 66 -25 98zM207 10.5
q-13 13.5 -13 44.5q0 30 13 43t41 13t41 -13t13 -43q0 -31 -13 -44.5t-41 -13.5t-41 13.5z" />
    <glyph glyph-name="uni0640" unicode="&#x640;" horiz-adv-x="150" 
d="M160 42q0 -27 -3 -34.5t-7 -7.5h-150q-10 0 -10 42q0 44 10 44h150q10 0 10 -44z" />
    <glyph glyph-name="uni064B" unicode="&#x64b;" 
d="M127 236l-256 -108l-21 49l256 109zM150 98l-256 -108l-21 49l256 109z" />
    <glyph glyph-name="uni064C" unicode="&#x64c;" 
d="M-148 145.5q-5 5.5 -14 5.5h-44v51h54q28 0 41 -12.5t13 -41.5v-94l88 37q-26 16 -39.5 41t-13.5 49q0 45 31.5 78.5t78.5 33.5t78 -31.5t31 -76.5q0 -40 -24 -71t-78 -54l-167 -70l-30 47v92q0 11 -5 16.5zM3 142.5q15 -18.5 40 -28.5q62 24 62 67q0 25 -16 43t-42 18
q-27 0 -43 -17.5t-16 -41.5q0 -22 15 -40.5z" />
    <glyph glyph-name="uni064D" unicode="&#x64d;" 
d="M127 -40l-256 -108l-21 49l256 109zM150 -177l-256 -109l-21 50l256 108z" />
    <glyph glyph-name="uni064E" unicode="&#x64e;" 
d="M139 98l-256 -108l-22 49l256 109z" />
    <glyph glyph-name="uni064F" unicode="&#x64f;" 
d="M-58.5 132q-13.5 25 -13.5 49q0 45 31.5 78.5t78.5 33.5q46 0 77 -31.5t31 -76.5q0 -40 -23.5 -71t-77.5 -54l-167 -70l-21 49l124 52q-26 16 -39.5 41zM-6.5 142.5q14.5 -18.5 39.5 -28.5q62 24 62 67q0 25 -15.5 43t-41.5 18q-27 0 -43 -17.5t-16 -41.5
q0 -22 14.5 -40.5z" />
    <glyph glyph-name="uni0650" unicode="&#x650;" 
d="M139 -40l-256 -108l-22 49l256 109z" />
    <glyph glyph-name="uni0651" unicode="&#x651;" 
d="M100 70q16 16 16 57v83h54v-77q0 -68 -30 -100.5t-89 -32.5h-9q-15 0 -23.5 3t-18.5 12q-10 -9 -18.5 -12t-23.5 -3h-9q-59 0 -89 32.5t-30 100.5v77h53v-83q0 -41 16.5 -57t49.5 -16h24v136h54v-136h24q33 0 49 16z" />
    <glyph glyph-name="uni0652" unicode="&#x652;" 
d="M-84 203q35 35 84 35t84 -35t35 -84t-35 -84t-84 -35t-84 35t-35 84t35 84zM-46.5 73q19.5 -19 46.5 -19t46 19t19 46t-19 46t-46 19t-46.5 -19t-19.5 -46t19.5 -46z" />
    <glyph glyph-name="uni0653" unicode="&#x653;" 
d="M-50.5 68.5q-13.5 -5.5 -27.5 -22t-39 -56.5l-42 28q33 53 51 74.5t37.5 28.5t57.5 7h169v-54h-169q-24 0 -37.5 -5.5z" />
    <glyph glyph-name="uni0654" unicode="&#x654;" 
d="M-92.5 107.5q-15.5 25.5 -15.5 55.5q0 50 31.5 81t83.5 31h50v-54h-49q-29 0 -47 -16.5t-18 -40.5q0 -26 18.5 -42.5t42.5 -16.5q15 0 33 8t62 32l22 -48l-208 -107l-26 49l66 33q-30 10 -45.5 35.5z" />
    <glyph glyph-name="uni0655" unicode="&#x655;" 
d="M-92.5 -167.5q-15.5 25.5 -15.5 54.5q0 50 31.5 81.5t83.5 31.5h50v-54h-49q-29 0 -47 -16.5t-18 -40.5q0 -26 18.5 -42.5t42.5 -16.5q15 0 33 8t62 32l22 -48l-208 -107l-26 48l66 34q-30 10 -45.5 35.5z" />
    <glyph glyph-name="uni0656" unicode="&#x656;" 
d="M27 11v-200h-54v200h54z" />
    <glyph glyph-name="uni0658" unicode="&#x658;" 
d="M-84 30.5q-28 30.5 -28 94.5v85h54v-84q0 -39 13.5 -55.5t44.5 -16.5t44.5 16.5t13.5 55.5v84h54v-85q0 -64 -28 -94.5t-84 -30.5t-84 30.5z" />
    <glyph glyph-name="uni0660" unicode="&#x660;" horiz-adv-x="551" 
d="M370.5 460.5q45.5 -27.5 73 -72t27.5 -93.5t-27.5 -94t-73 -72.5t-94.5 -27.5t-94.5 28t-73.5 72.5t-28 93.5t28 93.5t73.5 72t94.5 27.5t94.5 -27.5zM330.5 197.5q26.5 16.5 43.5 43t17 54.5q0 27 -17 53.5t-43.5 43t-54.5 16.5t-55 -16.5t-44 -43t-17 -53.5
q0 -28 17 -54.5t44 -43t55 -16.5t54.5 16.5z" />
    <glyph glyph-name="uni0661" unicode="&#x661;" horiz-adv-x="284" 
d="M100 434q-10 72 -40 175l81 28q31 -102 41.5 -177.5t10.5 -194.5v-265h-83v264q0 98 -10 170z" />
    <glyph glyph-name="uni0662" unicode="&#x662;" horiz-adv-x="495" 
d="M222.5 318q-20.5 8 -30.5 23q1 -22 1 -76v-265h-83v264q0 98 -10 170t-40 175l80 28l45 -175q18 -66 79 -66q32 0 54.5 20t22.5 50q0 38 -19 153l83 18q20 -123 20 -172q0 -44 -20 -79.5t-55.5 -55.5t-79.5 -20q-27 0 -47.5 8z" />
    <glyph glyph-name="uni0663" unicode="&#x663;" horiz-adv-x="718" 
d="M424 465q0 -13 -4 -33q26 -36 69 -36q31 0 53 20t22 50q0 38 -19 153l82 18q20 -114 20 -172q0 -44 -20 -79.5t-54.5 -55.5t-77.5 -20q-36 0 -65.5 13t-46.5 36q-16 -23 -46 -36t-67 -13q-27 0 -47.5 8t-30.5 23q1 -22 1 -76v-265h-83v264q0 98 -10 170t-40 175l80 28
l45 -175q18 -66 79 -66q32 0 54.5 20t22.5 50q0 38 -19 153l83 18q19 -117 19 -172z" />
    <glyph glyph-name="uni0664" unicode="&#x664;" horiz-adv-x="642" 
d="M240 407.5q-8 26.5 -8 53.5q0 48 24.5 88.5t67 64t94.5 23.5q59 0 125 -30l-23 -76q-54 23 -99 23q-47 0 -76.5 -29t-29.5 -71q0 -44 24.5 -73.5t58.5 -29.5q66 0 152 38l22 -76q-103 -48 -205 -48q-57 0 -102.5 13.5t-72.5 35.5q1 -18 1 -58v-256h-83v264q0 98 -10 170
t-40 175l80 28q25 -90 44 -199q5 -27 22.5 -46t56.5 -29q-15 18 -23 44.5z" />
    <glyph glyph-name="uni0665" unicode="&#x665;" horiz-adv-x="689" 
d="M120 340.5q50 87.5 165 199.5l-48 42l52 63q125 -98 196.5 -174t102.5 -143t31 -138q0 -57 -22 -100.5t-59.5 -66.5t-82.5 -23q-40 0 -69.5 12t-46.5 33q-17 -21 -46.5 -33t-65.5 -12q-74 0 -115.5 46t-41.5 127q0 80 50 167.5zM490.5 332q-45.5 70 -146.5 156
q-98 -90 -144.5 -164.5t-46.5 -145.5q0 -46 20.5 -69t59.5 -23t60.5 23t21.5 63v69h75v-67q0 -34 -8 -58q23 -30 73 -30q35 0 58 27.5t23 74.5q0 74 -45.5 144z" />
    <glyph glyph-name="uni0666" unicode="&#x666;" horiz-adv-x="528" 
d="M193 -8l-70 39q36 65 83 132.5t92 116.5q-20 -7 -46 -7q-81 0 -126.5 46t-45.5 123q0 52 24 97t65.5 71.5t90.5 26.5q33 0 61.5 -7.5t61.5 -24.5l-29 -69q-45 18 -91 18q-42 0 -71 -30.5t-29 -73.5q0 -46 27 -70t79 -24q69 0 150 39l39 -60q-135 -112 -265 -343z" />
    <glyph glyph-name="uni0667" unicode="&#x667;" horiz-adv-x="619" 
d="M189 316q-53 142 -139 277l69 49q72 -113 121 -236.5t71 -248.5q46 269 186 485l71 -49q-81 -124 -133.5 -266.5t-86.5 -326.5h-78q-28 174 -81 316z" />
    <glyph glyph-name="uni0668" unicode="&#x668;" horiz-adv-x="619" 
d="M430.5 317.5q52.5 -142.5 137.5 -275.5l-68 -50q-73 114 -122 237.5t-70 247.5q-49 -273 -186 -485l-72 50q81 123 134 265.5t87 326.5h78q29 -174 81.5 -316.5z" />
    <glyph glyph-name="uni0669" unicode="&#x669;" horiz-adv-x="525" 
d="M239 260q-81 0 -125 42.5t-44 119.5q0 56 25 105.5t68.5 79.5t96.5 30q89 0 137 -69.5t48 -199.5v-368h-83v283q-50 -23 -123 -23zM336 509q-26 45 -81 45q-43 0 -72.5 -36t-29.5 -90q0 -40 24.5 -61t70.5 -21q71 0 114 24q0 94 -26 139z" />
    <glyph glyph-name="uni066A" unicode="&#x66a;" horiz-adv-x="842" 
d="M650 596l-391 -604l-67 46l390 604zM288 603q32 -20 51 -52t19 -67t-19 -67t-51 -52t-69 -20t-69 20t-51 52t-19 67t19 67t51 52t69 20t69 -20zM266.5 437q20.5 21 20.5 48q0 26 -20.5 46.5t-47.5 20.5t-47.5 -20.5t-20.5 -46.5q0 -27 20.5 -48t47.5 -21t47.5 21z
M692 269q32 -20 51 -52t19 -67t-19 -67t-51 -52t-69 -20t-69 20t-51 52t-19 67t19 67t51 52t69 20t69 -20zM670.5 103q20.5 21 20.5 48q0 26 -20.5 46.5t-47.5 20.5t-47.5 -20.5t-20.5 -46.5q0 -27 20.5 -48t47.5 -21t47.5 21z" />
    <glyph glyph-name="uni066B" unicode="&#x66b;" horiz-adv-x="453" 
d="M372 232l-222 -355l-70 42l223 355z" />
    <glyph glyph-name="uni066C" unicode="&#x66c;" horiz-adv-x="269" 
d="M176 136.5q13 -14.5 13 -52.5q0 -75 -7 -107.5t-28 -47t-71 -24.5v56q29 7 39.5 13t13.5 18t3 43q-31 0 -45 12.5t-14 43.5q0 32 13 46t41 14q29 0 42 -14.5z" />
    <glyph glyph-name="uni066E" unicode="&#x66e;" horiz-adv-x="858" 
d="M673 106q22 20 22 53v163h83v-165q0 -73 -44.5 -115t-118.5 -42h-358q-88 0 -132.5 46t-44.5 127v149h83v-138q0 -98 99 -98h353q36 0 58 20z" />
    <glyph glyph-name="uni066F" unicode="&#x66f;" horiz-adv-x="799" 
d="M586.5 -114.5q47.5 43.5 49.5 114.5h-100q-102 0 -147.5 42.5t-45.5 132.5q0 62 24 110.5t67 75t98 26.5q87 0 137 -58t50 -159v-138q0 -84 -33.5 -146.5t-94 -96t-138.5 -33.5h-111q-126 0 -194 73t-68 204v189h83v-187q0 -95 46 -144t135 -49h109q86 0 133.5 43.5z
M451 107q25 -21 90 -21h95v78q0 69 -28 104t-81 35q-46 0 -73.5 -34t-27.5 -89q0 -52 25 -73z" />
    <glyph glyph-name="uni0670" unicode="&#x670;" 
d="M27 190v-200h-54v200h54z" />
    <glyph glyph-name="uni0679" unicode="&#x679;" horiz-adv-x="858" 
d="M673 106q22 20 22 53v163h83v-165q0 -73 -44.5 -115t-118.5 -42h-358q-88 0 -132.5 46t-44.5 127v149h83v-138q0 -98 99 -98h353q36 0 58 20zM359 637v-117q24 39 53 59.5t60 20.5q37 0 62 -26t25 -66q0 -44 -30.5 -73t-90.5 -29h-124v231h45zM490.5 469.5
q17.5 12.5 17.5 36.5q0 19 -12 31t-30 12q-24 0 -48.5 -24.5t-44.5 -67.5h67q33 0 50.5 12.5z" />
    <glyph glyph-name="uni0688" unicode="&#x688;" horiz-adv-x="600" 
d="M460 283q32 -37 46 -69.5t14 -65.5q0 -66 -46 -107t-129 -41h-285l-8 86h293q44 0 68 17t24 46q0 18 -9.5 36.5t-31.5 44.5l-187 215l59 59zM186 842v-117q24 39 53 59.5t60 20.5q37 0 62 -26t25 -66q0 -44 -30.5 -73t-90.5 -29h-124v231h45zM317.5 674.5
q17.5 12.5 17.5 36.5q0 19 -12 31t-30 12q-24 0 -48.5 -24.5t-44.5 -67.5h67q33 0 50.5 12.5z" />
    <glyph glyph-name="uni0691" unicode="&#x691;" horiz-adv-x="368" 
d="M255 -116q-33 -62 -92.5 -95t-136.5 -33h-28l-8 86h34q85 0 133 49.5t48 137.5v293h83v-293q0 -83 -33 -145zM162 673v-117q24 39 53 59.5t60 20.5q37 0 62 -26t25 -66q0 -44 -30.5 -73t-90.5 -29h-124v231h45zM293.5 505.5q17.5 12.5 17.5 36.5q0 19 -12 31t-30 12
q-24 0 -48.5 -24.5t-44.5 -67.5h67q33 0 50.5 12.5z" />
    <glyph glyph-name="uni0695" unicode="&#x695;" horiz-adv-x="368" 
d="M255 -116q-33 -62 -92.5 -95t-136.5 -33h-28l-8 86h34q85 0 133 49.5t48 137.5v293h83v-293q0 -83 -33 -145zM271 -315l-96 -200h-48l-96 200l49 22l71 -155l71 155z" />
    <glyph glyph-name="uni06A0" unicode="&#x6a0;" horiz-adv-x="605" 
d="M135 200q0 56 24.5 101t69 70.5t101.5 25.5q38 0 72.5 -10t72.5 -34l-28 -68q-61 28 -117 28q-48 0 -80 -31t-32 -77q0 -49 29 -80.5t77 -31.5h179l-8 -86h-189q-63 0 -103 -40.5t-40 -101.5q0 -65 41 -95.5t134 -30.5h187l-8 -86h-184q-131 0 -192 51.5t-61 157.5
q0 65 32.5 119.5t87.5 80.5q-65 47 -65 138zM370 739v-79h-91v79h91zM456 602v-79h-264v79h264z" />
    <glyph glyph-name="uni06A1" unicode="&#x6a1;" horiz-adv-x="949" 
d="M124.5 46q-44.5 46 -44.5 127v149h83v-138q0 -98 99 -98h314q34 0 51 4q-80 30 -111 64.5t-31 92.5q0 53 24.5 96.5t68 68.5t98.5 25q92 0 142.5 -56.5t50.5 -158.5v-34q0 -93 -62 -140.5t-182 -47.5h-368q-88 0 -132.5 46zM786 193v24q0 136 -112 136q-44 0 -75 -30.5
t-31 -73.5q0 -33 16 -56t55 -43.5t112 -44.5q35 29 35 88z" />
    <glyph glyph-name="uni06AA" unicode="&#x6aa;" horiz-adv-x="1135" 
d="M944.5 109q27.5 23 27.5 80t-27 81t-96 24h-657v81l331 242l44 -69l-242 -171h529q103 0 152 -45.5t49 -142.5q0 -189 -204 -189h-763l-8 86h771q66 0 93.5 23z" />
    <glyph glyph-name="uni06AC" unicode="&#x6ac;" horiz-adv-x="892" 
d="M689 103q24 17 24 46q0 20 -9.5 39.5t-31.5 41.5l-234 233v72l364 145l25 -80l-292 -115l201 -201q60 -61 60 -136q0 -66 -46 -107t-129 -41h-364q-88 0 -132.5 46t-44.5 127v149h83v-138q0 -98 99 -98h359q44 0 68 17zM159 468v83h106v-83h-106z" />
    <glyph glyph-name="uni06B5" unicode="&#x6b5;" horiz-adv-x="748" 
d="M148 -171q-68 73 -68 204v189h83v-187q0 -95 46 -144t135 -49h42q86 0 137.5 50t51.5 135v620h83v-612q0 -86 -34.5 -149t-96 -96.5t-141.5 -33.5h-44q-126 0 -194 73zM455 622l-96 -200h-48l-96 200l49 22l71 -155l71 155z" />
    <glyph glyph-name="uni06BD" unicode="&#x6bd;" horiz-adv-x="738" 
d="M148 -171q-68 73 -68 204v189h83v-187q0 -95 46 -144t135 -49h42q86 0 137.5 50t51.5 135v295h83v-287q0 -86 -34.5 -149t-96 -96.5t-141.5 -33.5h-44q-126 0 -194 73zM374 568v-79h-91v79h91zM460 431v-79h-264v79h264z" />
    <glyph glyph-name="uni06BE" unicode="&#x6be;" horiz-adv-x="785" 
d="M377 388q42 -24 66.5 -65.5t24.5 -92.5q0 -44 -21.5 -81.5t-61.5 -62.5h149q43 0 65.5 17t22.5 46q0 19 -9 37.5t-32 42.5l-206 217l60 61l208 -223q62 -65 62 -138q0 -66 -46.5 -106t-126.5 -40h-112q-58 0 -87 2t-47 8q-78 -54 -197 -106l-37 73q90 32 151 67
q-55 28 -84 74.5t-29 103.5q0 54 25.5 97.5t69.5 68t99 24.5q51 0 93 -24zM358.5 146q29.5 35 29.5 76q0 47 -30.5 76.5t-78.5 29.5t-78.5 -29.5t-30.5 -76.5q0 -43 26.5 -77t77.5 -57q55 23 84.5 58z" />
    <glyph glyph-name="uni06C2" unicode="&#x6c2;" horiz-adv-x="554" 
d="M111.5 278.5q31.5 56.5 108.5 132.5l-44 45l59 63q100 -94 150.5 -152.5t69.5 -101t19 -90.5q0 -53 -26 -95t-72.5 -66t-106.5 -24q-85 0 -137 48.5t-52 126.5q0 57 31.5 113.5zM366.5 257.5q-24.5 40.5 -89.5 100.5q-63 -61 -88.5 -103.5t-25.5 -84.5q0 -41 29.5 -67.5
t79.5 -26.5q52 0 85.5 28t33.5 71q0 42 -24.5 82.5zM159.5 697.5q-15.5 25.5 -15.5 55.5q0 50 31.5 81t83.5 31h50v-54h-49q-28 0 -46 -16.5t-18 -40.5q0 -26 18 -42.5t42 -16.5q13 0 30.5 7.5t38 18t27.5 14.5l21 -48l-208 -107l-25 49l65 33q-30 10 -45.5 35.5z" />
    <glyph glyph-name="uni06C3" unicode="&#x6c3;" horiz-adv-x="554" 
d="M111.5 278.5q31.5 56.5 108.5 132.5l-44 45l59 63q100 -94 150.5 -152.5t69.5 -101t19 -90.5q0 -53 -26 -95t-72.5 -66t-106.5 -24q-85 0 -137 48.5t-52 126.5q0 57 31.5 113.5zM366.5 257.5q-24.5 40.5 -89.5 100.5q-63 -61 -88.5 -103.5t-25.5 -84.5q0 -41 29.5 -67.5
t79.5 -26.5q52 0 85.5 28t33.5 71q0 42 -24.5 82.5zM406 690v-79h-264v79h264z" />
    <glyph glyph-name="uni06CA" unicode="&#x6ca;" horiz-adv-x="541" 
d="M429 -115q-32 -62 -90.5 -95.5t-137.5 -33.5h-123l-8 86h132q80 0 127.5 42.5t48.5 115.5h-100q-103 0 -148.5 42.5t-45.5 132.5q0 62 24 110.5t67.5 75t98.5 26.5q87 0 137 -58t50 -159v-138q0 -85 -32 -147zM192.5 107.5q25.5 -21.5 90.5 -21.5h95v78q0 69 -28 104
t-81 35q-46 0 -74 -34t-28 -89q0 -51 25.5 -72.5zM406 566v-79h-264v79h264z" />
    <glyph glyph-name="uni06CE" unicode="&#x6ce;" horiz-adv-x="773" 
d="M536 48h-190v182q0 83 50 134.5t135 51.5h127l7 -83h-136q-44 0 -71.5 -28.5t-27.5 -71.5v-99h120q72 0 107.5 -37.5t35.5 -106.5q0 -63 -36.5 -117t-99 -85.5t-138.5 -31.5h-77q-126 0 -194 73t-68 204v189h83v-187q0 -95 46 -144t135 -49h75q56 0 99.5 18.5t67.5 51
t24 73.5q0 63 -74 63zM321 550l-96 -200h-48l-96 200l49 22l71 -155l71 155z" />
    <glyph glyph-name="uni06CF" unicode="&#x6cf;" horiz-adv-x="541" 
d="M429 -115q-32 -62 -90.5 -95.5t-137.5 -33.5h-123l-8 86h132q80 0 127.5 42.5t48.5 115.5h-100q-103 0 -148.5 42.5t-45.5 132.5q0 62 24 110.5t67.5 75t98.5 26.5q87 0 137 -58t50 -159v-138q0 -85 -32 -147zM192.5 107.5q25.5 -21.5 90.5 -21.5h95v78q0 69 -28 104
t-81 35q-46 0 -74 -34t-28 -89q0 -51 25.5 -72.5zM221 487v83h106v-83h-106z" />
    <glyph glyph-name="uni06D5" unicode="&#x6d5;" horiz-adv-x="554" 
d="M111.5 278.5q31.5 56.5 108.5 132.5l-44 45l59 63q100 -94 150.5 -152.5t69.5 -101t19 -90.5q0 -53 -26 -95t-72.5 -66t-106.5 -24q-85 0 -137 48.5t-52 126.5q0 57 31.5 113.5zM366.5 257.5q-24.5 40.5 -89.5 100.5q-63 -61 -88.5 -103.5t-25.5 -84.5q0 -41 29.5 -67.5
t79.5 -26.5q52 0 85.5 28t33.5 71q0 42 -24.5 82.5z" />
    <glyph glyph-name="uni06F0" unicode="&#x6f0;" horiz-adv-x="551" 
d="M370.5 460.5q45.5 -27.5 73 -72t27.5 -93.5t-27.5 -94t-73 -72.5t-94.5 -27.5t-94.5 28t-73.5 72.5t-28 93.5t28 93.5t73.5 72t94.5 27.5t94.5 -27.5zM330.5 197.5q26.5 16.5 43.5 43t17 54.5q0 27 -17 53.5t-43.5 43t-54.5 16.5t-55 -16.5t-44 -43t-17 -53.5
q0 -28 17 -54.5t44 -43t55 -16.5t54.5 16.5z" />
    <glyph glyph-name="uni06F1" unicode="&#x6f1;" horiz-adv-x="284" 
d="M100 434q-10 72 -40 175l81 28q31 -102 41.5 -177.5t10.5 -194.5v-265h-83v264q0 98 -10 170z" />
    <glyph glyph-name="uni06F2" unicode="&#x6f2;" horiz-adv-x="495" 
d="M222.5 318q-20.5 8 -30.5 23q1 -22 1 -76v-265h-83v264q0 98 -10 170t-40 175l80 28l45 -175q18 -66 79 -66q32 0 54.5 20t22.5 50q0 38 -19 153l83 18q20 -123 20 -172q0 -44 -20 -79.5t-55.5 -55.5t-79.5 -20q-27 0 -47.5 8z" />
    <glyph glyph-name="uni06F3" unicode="&#x6f3;" horiz-adv-x="718" 
d="M424 465q0 -13 -4 -33q26 -36 69 -36q31 0 53 20t22 50q0 38 -19 153l82 18q20 -114 20 -172q0 -44 -20 -79.5t-54.5 -55.5t-77.5 -20q-36 0 -65.5 13t-46.5 36q-16 -23 -46 -36t-67 -13q-27 0 -47.5 8t-30.5 23q1 -22 1 -76v-265h-83v264q0 98 -10 170t-40 175l80 28
l45 -175q18 -66 79 -66q32 0 54.5 20t22.5 50q0 38 -19 153l83 18q19 -117 19 -172z" />
    <glyph glyph-name="uni06F4" unicode="&#x6f4;" horiz-adv-x="642" 
d="M240 407.5q-8 26.5 -8 53.5q0 48 24.5 88.5t67 64t94.5 23.5q59 0 125 -30l-23 -76q-54 23 -99 23q-47 0 -76.5 -29t-29.5 -71q0 -44 24.5 -73.5t58.5 -29.5q66 0 152 38l22 -76q-103 -48 -205 -48q-57 0 -102.5 13.5t-72.5 35.5q1 -18 1 -58v-256h-83v264q0 98 -10 170
t-40 175l80 28q25 -90 44 -199q5 -27 22.5 -46t56.5 -29q-15 18 -23 44.5z" />
    <glyph glyph-name="uni06F5" unicode="&#x6f5;" horiz-adv-x="689" 
d="M120 340.5q50 87.5 165 199.5l-48 42l52 63q125 -98 196.5 -174t102.5 -143t31 -138q0 -57 -22 -100.5t-59.5 -66.5t-82.5 -23q-40 0 -69.5 12t-46.5 33q-17 -21 -46.5 -33t-65.5 -12q-74 0 -115.5 46t-41.5 127q0 80 50 167.5zM490.5 332q-45.5 70 -146.5 156
q-98 -90 -144.5 -164.5t-46.5 -145.5q0 -46 20.5 -69t59.5 -23t60.5 23t21.5 63v69h75v-67q0 -34 -8 -58q23 -30 73 -30q35 0 58 27.5t23 74.5q0 74 -45.5 144z" />
    <glyph glyph-name="uni06F6" unicode="&#x6f6;" horiz-adv-x="528" 
d="M193 -8l-70 39q36 65 83 132.5t92 116.5q-20 -7 -46 -7q-81 0 -126.5 46t-45.5 123q0 52 24 97t65.5 71.5t90.5 26.5q33 0 61.5 -7.5t61.5 -24.5l-29 -69q-45 18 -91 18q-42 0 -71 -30.5t-29 -73.5q0 -46 27 -70t79 -24q69 0 150 39l39 -60q-135 -112 -265 -343z" />
    <glyph glyph-name="uni06F7" unicode="&#x6f7;" horiz-adv-x="619" 
d="M189 316q-53 142 -139 277l69 49q72 -113 121 -236.5t71 -248.5q46 269 186 485l71 -49q-81 -124 -133.5 -266.5t-86.5 -326.5h-78q-28 174 -81 316z" />
    <glyph glyph-name="uni06F8" unicode="&#x6f8;" horiz-adv-x="619" 
d="M430.5 317.5q52.5 -142.5 137.5 -275.5l-68 -50q-73 114 -122 237.5t-70 247.5q-49 -273 -186 -485l-72 50q81 123 134 265.5t87 326.5h78q29 -174 81.5 -316.5z" />
    <glyph glyph-name="uni06F9" unicode="&#x6f9;" horiz-adv-x="525" 
d="M239 260q-81 0 -125 42.5t-44 119.5q0 56 25 105.5t68.5 79.5t96.5 30q89 0 137 -69.5t48 -199.5v-368h-83v283q-50 -23 -123 -23zM336 509q-26 45 -81 45q-43 0 -72.5 -36t-29.5 -90q0 -40 24.5 -61t70.5 -21q71 0 114 24q0 94 -26 139z" />
    <glyph glyph-name="uni2000" unicode="&#x2000;" horiz-adv-x="525" 
 />
    <glyph glyph-name="uni2001" unicode="&#x2001;" horiz-adv-x="1050" 
 />
    <glyph glyph-name="uni2002" unicode="&#x2002;" horiz-adv-x="525" 
 />
    <glyph glyph-name="uni2003" unicode="&#x2003;" horiz-adv-x="1050" 
 />
    <glyph glyph-name="uni2004" unicode="&#x2004;" horiz-adv-x="368" 
 />
    <glyph glyph-name="uni2005" unicode="&#x2005;" horiz-adv-x="263" 
 />
    <glyph glyph-name="uni2006" unicode="&#x2006;" horiz-adv-x="184" 
 />
    <glyph glyph-name="uni2007" unicode="&#x2007;" horiz-adv-x="809" 
 />
    <glyph glyph-name="uni2008" unicode="&#x2008;" horiz-adv-x="263" 
 />
    <glyph glyph-name="uni2009" unicode="&#x2009;" horiz-adv-x="131" 
 />
    <glyph glyph-name="uni200A" unicode="&#x200a;" horiz-adv-x="131" 
 />
    <glyph glyph-name="uni200B" unicode="&#x200b;" 
 />
    <glyph glyph-name="uni200C" unicode="&#x200c;" 
d="M22 -122h-44v708h44v-708z" />
    <glyph glyph-name="uni200D" unicode="&#x200d;" 
d="M-22 -122v612l-56 -56l-28 27l76 76l-76 74l29 29l77 -76l77 76l29 -29l-76 -74l76 -76l-28 -27l-56 55v-611h-44z" />
    <glyph glyph-name="uni200E" unicode="&#x200e;" horiz-adv-x="383" 
d="M199 434l-28 27l57 56h-110v-639h-39v682h149l-57 54l29 29l104 -104z" />
    <glyph glyph-name="uni200F" unicode="&#x200f;" horiz-adv-x="382" 
d="M211 614l-57 -54h149v-682h-38v639h-111l57 -56l-27 -27l-105 105l105 104z" />
    <glyph glyph-name="uni2011" unicode="&#x2011;" horiz-adv-x="598" 
d="M80 244h438v-84h-438v84z" />
    <glyph glyph-name="figuredash" unicode="&#x2012;" horiz-adv-x="660" 
d="M80 244h500v-84h-500v84z" />
    <glyph glyph-name="endash" unicode="&#x2013;" horiz-adv-x="660" 
d="M80 244h500v-84h-500v84z" />
    <glyph glyph-name="emdash" unicode="&#x2014;" horiz-adv-x="1160" 
d="M80 244h1000v-84h-1000v84z" />
    <glyph glyph-name="uni2015" unicode="&#x2015;" horiz-adv-x="1160" 
d="M80 244h1000v-84h-1000v84z" />
    <glyph glyph-name="quoteleft" unicode="&#x2018;" horiz-adv-x="269" 
d="M93 416.5q-13 14.5 -13 51.5q0 76 7 108.5t28 46.5t71 24v-56q-29 -6 -39.5 -12t-13.5 -18t-3 -43q31 0 45 -12.5t14 -43.5q0 -32 -13.5 -46t-41.5 -14t-41 14.5z" />
    <glyph glyph-name="quoteright" unicode="&#x2019;" horiz-adv-x="269" 
d="M176 632.5q13 -14.5 13 -51.5q0 -75 -7 -108t-28 -47t-71 -24v56q29 6 39.5 12t13.5 18t3 43q-31 0 -45 12.5t-14 43.5q0 32 13 46t41 14q29 0 42 -14.5z" />
    <glyph glyph-name="quotedblleft" unicode="&#x201c;" horiz-adv-x="423" 
d="M93 416.5q-13 14.5 -13 51.5q0 76 7 108.5t28 46.5t71 24v-56q-29 -6 -39.5 -12t-13.5 -18t-3 -43q31 0 45 -12.5t14 -43.5q0 -32 -13.5 -46t-41.5 -14t-41 14.5zM247 416.5q-13 14.5 -13 51.5q0 76 7 108.5t28 46.5t71 24v-56q-29 -6 -39.5 -12t-13.5 -18t-3 -43
q31 0 45 -12.5t14 -43.5q0 -32 -13.5 -46t-41.5 -14t-41 14.5z" />
    <glyph glyph-name="quotedblright" unicode="&#x201d;" horiz-adv-x="423" 
d="M176 632.5q13 -14.5 13 -51.5q0 -75 -7 -108t-28 -47t-71 -24v56q29 6 39.5 12t13.5 18t3 43q-31 0 -45 12.5t-14 43.5q0 32 13 46t41 14q29 0 42 -14.5zM330 632.5q13 -14.5 13 -51.5q0 -75 -7 -108t-28 -47t-71 -24v56q29 6 39.5 12t13.5 18t3 43q-31 0 -45 12.5
t-14 43.5q0 32 13 46t41 14q29 0 42 -14.5z" />
    <glyph glyph-name="bullet" unicode="&#x2022;" horiz-adv-x="506" 
d="M128 44.5q-48 47.5 -48 124.5q0 78 47.5 125.5t125.5 47.5t125.5 -47t47.5 -126q0 -77 -47.5 -124.5t-125.5 -47.5q-77 0 -125 47.5z" />
    <glyph glyph-name="ellipsis" unicode="&#x2026;" horiz-adv-x="632" 
d="M274 14q-13 14 -13 46q0 31 13 44t41 13t41.5 -13t13.5 -44q0 -32 -13.5 -46t-41.5 -14t-41 14zM456 14q-13 14 -13 46q0 31 13 44t41 13t41.5 -13t13.5 -44q0 -32 -13.5 -46t-41.5 -14t-41 14zM93 14q-13 14 -13 46q0 31 13 44t41 13t41.5 -13t13.5 -44q0 -32 -13.5 -46
t-41.5 -14t-41 14z" />
    <glyph glyph-name="uni2028" unicode="&#x2028;" 
 />
    <glyph glyph-name="uni2029" unicode="&#x2029;" 
 />
    <glyph glyph-name="uni202A" unicode="&#x202a;" 
d="M46 812l-34 34l18 19l69 -68l-69 -68l-18 21l34 34h-42v28h42zM-82 784v28h59v-28h-59z" />
    <glyph glyph-name="uni202B" unicode="&#x202b;" 
d="M-46 784l34 -34l-18 -20l-69 67l69 68l18 -18l-34 -35h42v-28h-42zM82 812v-28h-59v28h59z" />
    <glyph glyph-name="uni202C" unicode="&#x202c;" 
d="M-69 804l69 70l69 -70l-21 -18l-34 34v-90h-28v89l-34 -33z" />
    <glyph glyph-name="uni202D" unicode="&#x202d;" 
d="M-25 865l68 -68l-68 -68l-19 21l35 34h-96v28h96l-35 34zM44 865l68 -68l-69 -68l-18 21l50 47l-50 49z" />
    <glyph glyph-name="uni202E" unicode="&#x202e;" 
d="M-24 765l-19 -19l-68 68l68 68l19 -19l-49 -49zM106 827v-27h-97l36 -35l-19 -19l-68 68l67 68l20 -19l-36 -36h97z" />
    <glyph glyph-name="uni202F" unicode="&#x202f;" horiz-adv-x="131" 
 />
    <glyph glyph-name="guilsinglleft" unicode="&#x2039;" horiz-adv-x="330" 
d="M107.5 413q27.5 70 87.5 135l55 -47q-48 -56 -67.5 -110.5t-19.5 -133.5t19.5 -134t67.5 -111l-55 -47q-60 65 -87.5 135t-27.5 157q0 86 27.5 156z" />
    <glyph glyph-name="guilsinglright" unicode="&#x203a;" horiz-adv-x="330" 
d="M222.5 100q-27.5 -70 -87.5 -135l-55 47q48 56 67.5 111t19.5 134t-19.5 133.5t-67.5 110.5l55 47q60 -65 87.5 -135t27.5 -156q0 -87 -27.5 -157z" />
    <glyph glyph-name="fraction" unicode="&#x2044;" horiz-adv-x="569" 
d="M488 601l-337 -609l-71 41l338 609z" />
    <glyph glyph-name="uni204B" unicode="&#x204b;" horiz-adv-x="553" 
d="M80 637h236q62 0 95 -14t47.5 -50t14.5 -106t-13.5 -105t-45 -47.5t-91.5 -12.5v-302h-77v554h-89v-554h-77v637z" />
    <glyph glyph-name="uni2060" unicode="&#x2060;" horiz-adv-x="584" 
 />
    <glyph glyph-name="Euro" unicode="&#x20ac;" horiz-adv-x="565" 
d="M441.5 -3.5q34.5 6.5 75.5 20.5v74q-37 -15 -72 -21.5t-78 -6.5q-73 0 -114 31t-57 92h203v50h-216q-3 27 -3 56q0 21 2 57h217v50h-206q14 73 53.5 111.5t117.5 38.5q46 0 80 -7t72 -23v74q-39 15 -73.5 21.5t-84.5 6.5q-116 0 -176 -57.5t-77 -164.5h-56v-50h51
q-2 -36 -2 -57q0 -29 3 -56h-52v-50h59q38 -196 251 -196q48 0 82.5 6.5z" />
    <glyph glyph-name="trademark" unicode="&#x2122;" horiz-adv-x="652" 
d="M205 556h89v56h-236v-56h89v-212h58v212zM368 521l75 -157h24l74 157v-177h53v268h-54l-85 -172l-84 172h-55v-268h52v177z" />
    <glyph glyph-name="estimated" unicode="&#x212e;" horiz-adv-x="744" 
d="M539.5 22q63.5 33 112.5 114h-36q-47 -66 -98 -91.5t-135 -25.5q-60 0 -115 23t-81 58v211h500v17q0 87 -43.5 157t-115.5 109t-155 39q-85 0 -157 -37.5t-115 -110.5t-43 -174q0 -89 43 -163t117 -116.5t165 -42.5q93 0 156.5 33zM372 604q61 0 109.5 -19t76.5 -50v-192
h-371v193q66 68 185 68z" />
    <glyph glyph-name="carriagereturn" unicode="&#x21b5;" 
 />
    <glyph glyph-name="infinity" unicode="&#x221e;" horiz-adv-x="986" 
d="M386.5 26.5q-49.5 -31.5 -111.5 -31.5q-88 0 -141.5 56t-53.5 151t53.5 151t141.5 56q62 0 111.5 -31.5t106.5 -109.5q57 78 106.5 109.5t111.5 31.5q88 0 141.5 -56t53.5 -151t-53.5 -151t-141.5 -56q-62 0 -111.5 31.5t-106.5 109.5q-57 -78 -106.5 -109.5zM364 297
q-42 29 -89 29q-51 0 -81.5 -32.5t-30.5 -91.5t30.5 -91.5t81.5 -32.5q46 0 88.5 29t85.5 95q-43 66 -85 95zM622.5 107q42.5 -29 88.5 -29q51 0 81.5 32t30.5 92t-30.5 92t-81.5 32q-47 0 -89 -29t-84 -95q42 -66 84.5 -95z" />
    <glyph glyph-name="approxequal" unicode="&#x2248;" horiz-adv-x="598" 
d="M137.5 381q30.5 8 53.5 8q31 0 54 -8.5t54 -25.5q32 -18 56 -27t57 -9q40 0 97 26l9 -79q-27 -14 -57.5 -22t-53.5 -8q-32 0 -54.5 8.5t-56.5 26.5q-31 18 -55 26.5t-55 8.5q-43 0 -97 -26l-9 79q27 14 57.5 22zM138.5 181q30.5 8 52.5 8q31 0 54 -8.5t54 -25.5
q32 -18 56 -27t57 -9q42 0 97 25l9 -79q-28 -14 -58.5 -22t-52.5 -8q-32 0 -54.5 8.5t-56.5 26.5q-31 18 -55 26.5t-55 8.5q-42 0 -97 -25l-9 79q28 14 58.5 22z" />
    <glyph glyph-name="notequal" unicode="&#x2260;" horiz-adv-x="598" 
d="M236 -84l-76 27l44 119h-124v83h156l41 114h-197v83h226l53 142l75 -26l-43 -116h127v-83h-158l-42 -114h200v-83h-228z" />
    <glyph glyph-name="lessequal" unicode="&#x2264;" horiz-adv-x="598" 
d="M461 143l-356 161v104l356 161l28 -77l-306 -136l306 -136zM80 84h438v-84h-438v84z" />
    <glyph glyph-name="greaterequal" unicode="&#x2265;" horiz-adv-x="600" 
d="M136 220l306 136l-306 136l28 77l356 -161v-105l-356 -160zM518 83v-83h-438v83h438z" />
    <glyph glyph-name="uni240A" unicode="&#x240a;" 
 />
    <glyph glyph-name="uni25AA" unicode="&#x25aa;" horiz-adv-x="486" 
d="M406 7h-326v325h326v-325z" />
    <glyph glyph-name="uni25AB" unicode="&#x25ab;" horiz-adv-x="486" 
d="M406 7h-326v325h326v-325zM334 79v182h-182v-182h182z" />
    <glyph glyph-name="uni25C2" unicode="&#x25c2;" horiz-adv-x="513" 
d="M433 365v-375l-26 -14l-327 186v33l327 186z" />
    <glyph glyph-name="uni25C3" unicode="&#x25c3;" horiz-adv-x="513" 
d="M433 365v-375l-26 -14l-327 186v33l327 186zM362 276l-173 -98l173 -99v197z" />
    <glyph glyph-name="uni25CC" unicode="&#x25cc;" horiz-adv-x="726" 
d="M313 508v-103h-107v103h107zM520 508v-103h-107v103h107zM187 305v-102h-107v102h107zM645 305v-102h-106v102h106zM313 103v-103h-107v103h107zM520 103v-103h-107v103h107z" />
    <glyph glyph-name="openbullet" unicode="&#x25e6;" horiz-adv-x="506" 
d="M127.5 294.5q47.5 47.5 125.5 47.5t125.5 -47t47.5 -126q0 -77 -47.5 -124.5t-125.5 -47.5q-77 0 -125 47.5t-48 124.5q0 78 47.5 125.5zM181.5 98q27.5 -27 71.5 -27q45 0 72.5 27t27.5 71q0 45 -27.5 72.5t-72.5 27.5q-44 0 -71.5 -27.5t-27.5 -72.5q0 -44 27.5 -71z
" />
    <glyph glyph-name="uniFBB2" unicode="&#xfbb2;" 
d="M-53 0v83h106v-83h-106z" />
    <glyph glyph-name="uniFBB3" unicode="&#xfbb3;" 
d="M-53 -83v83h106v-83h-106z" />
    <glyph glyph-name="uniFBB4" unicode="&#xfbb4;" 
d="M132 79v-79h-264v79h264z" />
    <glyph glyph-name="uniFBB5" unicode="&#xfbb5;" 
d="M132 0v-79h-264v79h264z" />
    <glyph glyph-name="uniFBB6" unicode="&#xfbb6;" 
d="M46 216v-79h-91v79h91zM132 79v-79h-264v79h264z" />
    <glyph glyph-name="uniFBB9" unicode="&#xfbb9;" 
d="M132 0v-79h-264v79h264zM-44 -216v79h88v-79h-88z" />
    <glyph glyph-name="uniFD3E" unicode="&#xfd3e;" horiz-adv-x="372" 
d="M191.5 150.5q28.5 -69.5 99.5 -137.5l-49 -48q-87 74 -124.5 158t-37.5 200q0 117 37.5 201t124.5 158l49 -48q-71 -68 -99.5 -137.5t-28.5 -173.5q0 -103 28.5 -172.5z" />
    <glyph glyph-name="uniFD3F" unicode="&#xfd3f;" horiz-adv-x="372" 
d="M180 497q-28 70 -100 137l50 48q86 -74 123.5 -158.5t37.5 -200.5t-37.5 -200t-123.5 -158l-50 48q72 67 100 136.5t28 173.5t-28 174z" />
    <glyph glyph-name="uniFEFF" unicode="&#xfeff;" 
 />
    <glyph glyph-name="uniFFFC" unicode="&#xfffc;" horiz-adv-x="914" 
d="M45 612v-99h-45v143h144v-44h-99zM256 612v44h144v-44h-144zM513 612v44h143v-44h-143zM868 513v99h-99v44h145v-143h-46zM344 207.5q-37 -42.5 -105 -42.5t-103.5 42t-35.5 121t35.5 121t103.5 42t105 -42.5t37 -120.5t-37 -120.5zM512 171h-107v315h105q111 0 111 -84
q0 -39 -39 -63q52 -21 52 -75q0 -93 -122 -93zM700 165q-38 0 -61 21l32 34q11 -11 29 -11q42 0 42 61v216h53v-214q0 -107 -95 -107zM239 447q-88 0 -88 -119t88 -119q90 0 90 119t-90 119zM497 442h-40v-86h45q68 0 68 42q0 44 -73 44zM0 256v144h45v-144h-45zM868 256
v144h46v-144h-46zM507 312h-50v-99h55q71 0 71 51q0 48 -76 48zM0 0v144h45v-99h99v-45h-144zM769 0v45h99v99h46l-1 -144h-144zM256 0v45h144v-45h-144zM513 0v45h143v-45h-143z" />
    <glyph glyph-name="uni0640.narrow" horiz-adv-x="100" 
d="M110 42q0 -27 -2.5 -34.5t-7.5 -7.5h-100q-10 0 -10 42q0 44 10 44h100q10 0 10 -44z" />
    <glyph glyph-name="uni0640.wide" horiz-adv-x="300" 
d="M310 42q0 -27 -3 -34.5t-7 -7.5h-300q-10 0 -10 42q0 44 10 44h300q10 0 10 -44z" />
    <glyph glyph-name="wawtwodots.fina" horiz-adv-x="555" 
d="M562.5 77.5q2.5 -8.5 2.5 -35.5q0 -26 -2.5 -34t-7.5 -8h-96q-9 -114 -78 -179t-180 -65h-123l-8 86h132q80 0 127.5 42.5t48.5 115.5h-100q-103 0 -148.5 42.5t-45.5 132.5q0 62 24 110.5t67.5 75t98.5 26.5q87 0 137 -58t50 -159v-84h94q5 0 7.5 -8.5zM192.5 107.5
q25.5 -21.5 90.5 -21.5h95v78q0 69 -28 104t-81 35q-46 0 -74 -34t-28 -89q0 -51 25.5 -72.5zM406 566v-79h-264v79h264z" />
    <glyph glyph-name="heharab" horiz-adv-x="785" 
d="M377 388q42 -24 66.5 -65.5t24.5 -92.5q0 -44 -21.5 -81.5t-61.5 -62.5h149q43 0 65.5 17t22.5 46q0 19 -9 37.5t-32 42.5l-206 217l60 61l208 -223q62 -65 62 -138q0 -66 -46.5 -106t-126.5 -40h-112q-58 0 -87 2t-47 8q-78 -54 -197 -106l-37 73q90 32 151 67
q-55 28 -84 74.5t-29 103.5q0 54 25.5 97.5t69.5 68t99 24.5q51 0 93 -24zM358.5 146q29.5 35 29.5 76q0 47 -30.5 76.5t-78.5 29.5t-78.5 -29.5t-30.5 -76.5q0 -43 26.5 -77t77.5 -57q55 23 84.5 58z" />
    <glyph glyph-name="lam_aleffathatanar" horiz-adv-x="560" 
d="M173 502v-416h133q36 0 58.5 20t22.5 54v487h83v-488q0 -74 -45 -116.5t-119 -42.5h-216v502h83zM237 788l-256 -108l-21 49l256 109zM260 650l-256 -108l-21 49l256 109z" />
    <glyph glyph-name="lam_aleffathatanar.fina" horiz-adv-x="572" 
d="M173 502v-416h133q36 0 58.5 20t22.5 54v487h83v-482q0 -41 21 -60t56 -19h25q10 0 10 -44q0 -42 -10 -42h-28q-44 0 -74 15.5t-42 44.5q-35 -60 -122 -60h-216v502h83zM237 788l-256 -108l-21 49l256 109zM260 650l-256 -108l-21 49l256 109z" />
    <glyph glyph-name="uni06B5.initFE8E" horiz-adv-x="560" 
d="M173 647v-561h133q36 0 58.5 20t22.5 54v487h83v-488q0 -74 -45 -116.5t-119 -42.5h-216v647h83zM389 856l-96 -200h-48l-96 200l49 22l71 -155l71 155z" />
    <glyph glyph-name="uni06B5.mediFE8E.medi.fina" horiz-adv-x="572" 
d="M173 647v-561h133q36 0 58.5 20t22.5 54v487h83v-482q0 -41 21 -60t56 -19h25q10 0 10 -44q0 -42 -10 -42h-28q-44 0 -74 15.5t-42 44.5q-35 -60 -122 -60h-216v647h83zM389 856l-96 -200h-48l-96 200l49 22l71 -155l71 155z" />
    <glyph glyph-name="uniFEFB.src" horiz-adv-x="560" 
d="M173 647v-561h133q36 0 58.5 20t22.5 54v487h83v-488q0 -74 -45 -116.5t-119 -42.5h-216v647h83z" />
    <glyph glyph-name="uniFEFC.src" horiz-adv-x="572" 
d="M173 647v-561h133q36 0 58.5 20t22.5 54v487h83v-482q0 -41 21 -60t56 -19h25q10 0 10 -44q0 -42 -10 -42h-28q-44 0 -74 15.5t-42 44.5q-35 -60 -122 -60h-216v647h83z" />
    <glyph glyph-name="uniFEFB.c" horiz-adv-x="560" 
d="M173 502v-416h133q36 0 58.5 20t22.5 54v487h83v-488q0 -74 -45 -116.5t-119 -42.5h-216v502h83z" />
    <glyph glyph-name="uniFEFC.c" horiz-adv-x="572" 
d="M173 502v-416h133q36 0 58.5 20t22.5 54v487h83v-482q0 -41 21 -60t56 -19h25q10 0 10 -44q0 -42 -10 -42h-28q-44 0 -74 15.5t-42 44.5q-35 -60 -122 -60h-216v502h83z" />
    <glyph glyph-name="kolah." 
d="M-86 82.5q-12 -7.5 -18 -23.5l-26 -62l-56 25l30 77q15 37 38 51t65 14h245v-74h-245q-21 0 -33 -7.5z" />
    <glyph glyph-name="wasla" 
d="M-84 92q26 49 58.5 75.5t67.5 26.5q37 0 62 -26t25 -66q0 -44 -30.5 -73t-90.5 -29h-137v140h45v-48zM61.5 64q17.5 13 17.5 36q0 19 -12.5 31t-30.5 12q-23 0 -47.5 -24.5t-44.5 -67.5h66q34 0 51.5 13z" />
    <glyph glyph-name="smallv" 
d="M120 200l-96 -200h-48l-96 200l49 22l71 -155l71 155z" />
    <glyph glyph-name="thamza" 
d="M-104.5 92.5q-15.5 25.5 -15.5 55.5q0 50 31.5 81t83.5 31h50v-54h-49q-28 0 -46 -16.5t-18 -40.5q0 -26 18 -42.5t42 -16.5q13 0 30.5 7.5t38 18t27.5 14.5l21 -48l-208 -107l-25 49l65 33q-30 10 -45.5 35.5z" />
    <glyph glyph-name="bhamza" 
d="M-92.5 -167.5q-15.5 25.5 -15.5 54.5q0 50 31.5 81.5t83.5 31.5h50v-54h-49q-29 0 -47 -16.5t-18 -40.5q0 -26 18.5 -42.5t42.5 -16.5q15 0 33 8t62 32l22 -48l-208 -107l-26 48l66 34q-30 10 -45.5 35.5z" />
    <glyph glyph-name="tfathatan" 
d="M127 236l-256 -108l-21 49l256 109zM150 98l-256 -108l-21 49l256 109z" />
    <glyph glyph-name="uni0651064B" 
d="M100 70q16 16 16 57v83h54v-77q0 -68 -30 -100.5t-89 -32.5h-9q-15 0 -23.5 3t-18.5 12q-10 -9 -18.5 -12t-23.5 -3h-9q-59 0 -89 32.5t-30 100.5v77h53v-83q0 -41 16.5 -57t49.5 -16h24v136h54v-136h24q33 0 49 16zM127 489l-256 -108l-21 49l256 109zM150 351
l-256 -108l-21 49l256 109z" />
    <glyph glyph-name="foururdu" horiz-adv-x="645" 
d="M368.5 375q9.5 32 20.5 55q-16 55 -50.5 88t-75.5 33q-45 0 -72.5 -32.5t-27.5 -86.5q0 -125 147 -395l-73 -42q-82 151 -119.5 256t-37.5 181q0 56 24.5 103t66.5 74.5t92 27.5q58 0 99.5 -29t71.5 -91q40 72 113 120l48 -69q-122 -82 -161 -275l-79 20q4 30 13.5 62z
" />
    <glyph glyph-name="sevenurdu" horiz-adv-x="518" 
d="M255 2q-92 0 -138.5 36.5t-46.5 109.5q0 51 25.5 108t89 145t188.5 241l62 -55q-125 -154 -182.5 -231t-78.5 -119t-21 -77q0 -37 27.5 -54.5t88.5 -17.5h167l-8 -86h-173z" />
    <glyph glyph-name="seperator" horiz-adv-x="590" 
d="M80 0v647h430v-647h-430zM163 561v-380l264 380h-264zM163 86h264v380z" />
    <glyph glyph-name="uni06F0.tnum" horiz-adv-x="700" 
d="M445.5 460.5q45.5 -27.5 73 -72t27.5 -93.5t-27.5 -94t-73 -72.5t-94.5 -27.5t-94.5 28t-73.5 72.5t-28 93.5t28 93.5t73.5 72t94.5 27.5t94.5 -27.5zM405.5 197.5q26.5 16.5 43.5 43t17 54.5q0 27 -17 53.5t-43.5 43t-54.5 16.5t-55 -16.5t-44 -43t-17 -53.5
q0 -28 17 -54.5t44 -43t55 -16.5t54.5 16.5z" />
    <glyph glyph-name="uni06F1.tnum" horiz-adv-x="700" 
d="M323 434q-10 72 -40 175l81 28q31 -102 41.5 -177.5t10.5 -194.5v-265h-83v264q0 98 -10 170z" />
    <glyph glyph-name="uni06F2.tnum" horiz-adv-x="700" 
d="M330.5 318q-20.5 8 -30.5 23q1 -22 1 -76v-265h-83v264q0 98 -10 170t-40 175l80 28l45 -175q18 -66 79 -66q32 0 54.5 20t22.5 50q0 38 -19 153l83 18q20 -123 20 -172q0 -44 -20 -79.5t-55.5 -55.5t-79.5 -20q-27 0 -47.5 8z" />
    <glyph glyph-name="uni06F3.tnum" horiz-adv-x="700" 
d="M420 465q0 -13 -4 -33q26 -36 69 -36q31 0 53 20t22 50q0 38 -19 153l82 18q20 -114 20 -172q0 -44 -20 -79.5t-54.5 -55.5t-77.5 -20q-36 0 -65.5 13t-46.5 36q-16 -23 -46 -36t-67 -13q-27 0 -47.5 8t-30.5 23q1 -22 1 -76v-265h-83v264q0 98 -10 170t-40 175l80 28
l45 -175q18 -66 79 -66q32 0 54.5 20t22.5 50q0 38 -19 153l83 18q19 -117 19 -172z" />
    <glyph glyph-name="uni06F4.tnum" horiz-adv-x="700" 
d="M274 407.5q-8 26.5 -8 53.5q0 48 24.5 88.5t67 64t94.5 23.5q59 0 125 -30l-23 -76q-54 23 -99 23q-47 0 -76.5 -29t-29.5 -71q0 -44 24.5 -73.5t58.5 -29.5q66 0 152 38l22 -76q-103 -48 -205 -48q-57 0 -102.5 13.5t-72.5 35.5q1 -18 1 -58v-256h-83v264q0 98 -10 170
t-40 175l80 28q25 -90 44 -199q5 -27 22.5 -46t56.5 -29q-15 18 -23 44.5z" />
    <glyph glyph-name="uni06F5.tnum" horiz-adv-x="700" 
d="M126 340.5q50 87.5 165 199.5l-48 42l52 63q125 -98 196.5 -174t102.5 -143t31 -138q0 -57 -22 -100.5t-59.5 -66.5t-82.5 -23q-40 0 -69.5 12t-46.5 33q-17 -21 -46.5 -33t-65.5 -12q-74 0 -115.5 46t-41.5 127q0 80 50 167.5zM496.5 332q-45.5 70 -146.5 156
q-98 -90 -144.5 -164.5t-46.5 -145.5q0 -46 20.5 -69t59.5 -23t60.5 23t21.5 63v69h75v-67q0 -34 -8 -58q23 -30 73 -30q35 0 58 27.5t23 74.5q0 74 -45.5 144z" />
    <glyph glyph-name="uni06F6.tnum" horiz-adv-x="700" 
d="M274 -8l-70 39q36 65 83 132.5t92 116.5q-20 -7 -46 -7q-81 0 -126.5 46t-45.5 123q0 52 24 97t65.5 71.5t90.5 26.5q33 0 61.5 -7.5t61.5 -24.5l-29 -69q-45 18 -91 18q-42 0 -71 -30.5t-29 -73.5q0 -46 27 -70t79 -24q69 0 150 39l39 -60q-135 -112 -265 -343z" />
    <glyph glyph-name="uni06F7.tnum" horiz-adv-x="700" 
d="M230 316q-53 142 -139 277l69 49q72 -113 121 -236.5t71 -248.5q46 269 186 485l71 -49q-81 -124 -133.5 -266.5t-86.5 -326.5h-78q-28 174 -81 316z" />
    <glyph glyph-name="uni06F8.tnum" horiz-adv-x="700" 
d="M471.5 317.5q52.5 -142.5 137.5 -275.5l-68 -50q-73 114 -122 237.5t-70 247.5q-49 -273 -186 -485l-72 50q81 123 134 265.5t87 326.5h78q29 -174 81.5 -316.5z" />
    <glyph glyph-name="uni06F9.tnum" horiz-adv-x="700" 
d="M332 260q-81 0 -125 42.5t-44 119.5q0 56 25 105.5t68.5 79.5t96.5 30q89 0 137 -69.5t48 -199.5v-368h-83v283q-50 -23 -123 -23zM429 509q-26 45 -81 45q-43 0 -72.5 -36t-29.5 -90q0 -40 24.5 -61t70.5 -21q71 0 114 24q0 94 -26 139z" />
    <glyph glyph-name="uni0660.tnum" horiz-adv-x="700" 
d="M445.5 460.5q45.5 -27.5 73 -72t27.5 -93.5t-27.5 -94t-73 -72.5t-94.5 -27.5t-94.5 28t-73.5 72.5t-28 93.5t28 93.5t73.5 72t94.5 27.5t94.5 -27.5zM405.5 197.5q26.5 16.5 43.5 43t17 54.5q0 27 -17 53.5t-43.5 43t-54.5 16.5t-55 -16.5t-44 -43t-17 -53.5
q0 -28 17 -54.5t44 -43t55 -16.5t54.5 16.5z" />
    <glyph glyph-name="uni0661.tnum" horiz-adv-x="700" 
d="M323 434q-10 72 -40 175l81 28q31 -102 41.5 -177.5t10.5 -194.5v-265h-83v264q0 98 -10 170z" />
    <glyph glyph-name="uni0662.tnum" horiz-adv-x="700" 
d="M330.5 318q-20.5 8 -30.5 23q1 -22 1 -76v-265h-83v264q0 98 -10 170t-40 175l80 28l45 -175q18 -66 79 -66q32 0 54.5 20t22.5 50q0 38 -19 153l83 18q20 -123 20 -172q0 -44 -20 -79.5t-55.5 -55.5t-79.5 -20q-27 0 -47.5 8z" />
    <glyph glyph-name="uni0663.tnum" horiz-adv-x="700" 
d="M420 465q0 -13 -4 -33q26 -36 69 -36q31 0 53 20t22 50q0 38 -19 153l82 18q20 -114 20 -172q0 -44 -20 -79.5t-54.5 -55.5t-77.5 -20q-36 0 -65.5 13t-46.5 36q-16 -23 -46 -36t-67 -13q-27 0 -47.5 8t-30.5 23q1 -22 1 -76v-265h-83v264q0 98 -10 170t-40 175l80 28
l45 -175q18 -66 79 -66q32 0 54.5 20t22.5 50q0 38 -19 153l83 18q19 -117 19 -172z" />
    <glyph glyph-name="uni0664.tnum" horiz-adv-x="700" 
d="M274 407.5q-8 26.5 -8 53.5q0 48 24.5 88.5t67 64t94.5 23.5q59 0 125 -30l-23 -76q-54 23 -99 23q-47 0 -76.5 -29t-29.5 -71q0 -44 24.5 -73.5t58.5 -29.5q66 0 152 38l22 -76q-103 -48 -205 -48q-57 0 -102.5 13.5t-72.5 35.5q1 -18 1 -58v-256h-83v264q0 98 -10 170
t-40 175l80 28q25 -90 44 -199q5 -27 22.5 -46t56.5 -29q-15 18 -23 44.5z" />
    <glyph glyph-name="uni0665.tnum" horiz-adv-x="700" 
d="M126 340.5q50 87.5 165 199.5l-48 42l52 63q125 -98 196.5 -174t102.5 -143t31 -138q0 -57 -22 -100.5t-59.5 -66.5t-82.5 -23q-40 0 -69.5 12t-46.5 33q-17 -21 -46.5 -33t-65.5 -12q-74 0 -115.5 46t-41.5 127q0 80 50 167.5zM496.5 332q-45.5 70 -146.5 156
q-98 -90 -144.5 -164.5t-46.5 -145.5q0 -46 20.5 -69t59.5 -23t60.5 23t21.5 63v69h75v-67q0 -34 -8 -58q23 -30 73 -30q35 0 58 27.5t23 74.5q0 74 -45.5 144z" />
    <glyph glyph-name="uni0666.tnum" horiz-adv-x="700" 
d="M274 -8l-70 39q36 65 83 132.5t92 116.5q-20 -7 -46 -7q-81 0 -126.5 46t-45.5 123q0 52 24 97t65.5 71.5t90.5 26.5q33 0 61.5 -7.5t61.5 -24.5l-29 -69q-45 18 -91 18q-42 0 -71 -30.5t-29 -73.5q0 -46 27 -70t79 -24q69 0 150 39l39 -60q-135 -112 -265 -343z" />
    <glyph glyph-name="uni0667.tnum" horiz-adv-x="700" 
d="M230 316q-53 142 -139 277l69 49q72 -113 121 -236.5t71 -248.5q46 269 186 485l71 -49q-81 -124 -133.5 -266.5t-86.5 -326.5h-78q-28 174 -81 316z" />
    <glyph glyph-name="uni0668.tnum" horiz-adv-x="700" 
d="M471.5 317.5q52.5 -142.5 137.5 -275.5l-68 -50q-73 114 -122 237.5t-70 247.5q-49 -273 -186 -485l-72 50q81 123 134 265.5t87 326.5h78q29 -174 81.5 -316.5z" />
    <glyph glyph-name="uni0669.tnum" horiz-adv-x="700" 
d="M332 260q-81 0 -125 42.5t-44 119.5q0 56 25 105.5t68.5 79.5t96.5 30q89 0 137 -69.5t48 -199.5v-368h-83v283q-50 -23 -123 -23zM429 509q-26 45 -81 45q-43 0 -72.5 -36t-29.5 -90q0 -40 24.5 -61t70.5 -21q71 0 114 24q0 94 -26 139z" />
    <glyph glyph-name="foururdu.tnum" horiz-adv-x="700" 
d="M381.5 375q9.5 32 20.5 55q-16 55 -50.5 88t-75.5 33q-45 0 -72.5 -32.5t-27.5 -86.5q0 -125 147 -395l-73 -42q-82 151 -119.5 256t-37.5 181q0 56 24.5 103t66.5 74.5t92 27.5q58 0 99.5 -29t71.5 -91q40 72 113 120l48 -69q-122 -82 -161 -275l-79 20q4 30 13.5 62z
" />
    <glyph glyph-name="sevenurdu.tnum" horiz-adv-x="700" 
d="M351 2q-92 0 -138.5 36.5t-46.5 109.5q0 51 25.5 108t89 145t188.5 241l62 -55q-125 -154 -182.5 -231t-78.5 -119t-21 -77q0 -37 27.5 -54.5t88.5 -17.5h167l-8 -86h-173z" />
    <glyph glyph-name="uni0628.w.medi" horiz-adv-x="465" 
d="M251 106q23 20 23 54v162h83v-160q0 -37 20.5 -56.5t59.5 -19.5h28q10 0 10 -43t-10 -43h-31q-92 0 -120 59q-35 -59 -125 -59h-189q-10 0 -10 42q0 44 10 44h189q39 0 62 20zM67 -209v83h106v-83h-106z" />
    <glyph glyph-name="uni067E.w.medi" horiz-adv-x="465" 
d="M251 106q23 20 23 54v162h83v-160q0 -37 20.5 -56.5t59.5 -19.5h28q10 0 10 -43t-10 -43h-31q-92 0 -120 59q-35 -59 -125 -59h-189q-10 0 -10 42q0 44 10 44h189q39 0 62 20zM252 -126v-79h-264v79h264zM76 -342v79h88v-79h-88z" />
    <glyph glyph-name="uni062A.w.medi" horiz-adv-x="465" 
d="M251 106q23 20 23 54v162h83v-160q0 -37 20.5 -56.5t59.5 -19.5h28q10 0 10 -43t-10 -43h-31q-92 0 -120 59q-35 -59 -125 -59h-189q-10 0 -10 42q0 44 10 44h189q39 0 62 20zM371 525v-79h-264v79h264z" />
    <glyph glyph-name="uni062B.w.medi" horiz-adv-x="465" 
d="M251 106q23 20 23 54v162h83v-160q0 -37 20.5 -56.5t59.5 -19.5h28q10 0 10 -43t-10 -43h-31q-92 0 -120 59q-35 -59 -125 -59h-189q-10 0 -10 42q0 44 10 44h189q39 0 62 20zM285 662v-79h-91v79h91zM371 525v-79h-264v79h264z" />
    <glyph glyph-name="uni0679.w.medi" horiz-adv-x="465" 
d="M251 106q23 20 23 54v162h83v-160q0 -37 20.5 -56.5t59.5 -19.5h28q10 0 10 -43t-10 -43h-31q-92 0 -120 59q-35 -59 -125 -59h-189q-10 0 -10 42q0 44 10 44h189q39 0 62 20zM183 669v-117q24 39 53 59.5t60 20.5q37 0 62 -26t25 -66q0 -44 -30.5 -73t-90.5 -29h-124
v231h45zM314.5 501.5q17.5 12.5 17.5 36.5q0 19 -12 31t-30 12q-24 0 -48.5 -24.5t-44.5 -67.5h67q33 0 50.5 12.5z" />
    <glyph glyph-name="uni0646.w.medi" horiz-adv-x="465" 
d="M251 106q23 20 23 54v162h83v-160q0 -37 20.5 -56.5t59.5 -19.5h28q10 0 10 -43t-10 -43h-31q-92 0 -120 59q-35 -59 -125 -59h-189q-10 0 -10 42q0 44 10 44h189q39 0 62 20zM227 446v83h106v-83h-106z" />
    <glyph glyph-name="uni064A.w.medi" horiz-adv-x="465" 
d="M251 106q23 20 23 54v162h83v-160q0 -37 20.5 -56.5t59.5 -19.5h28q10 0 10 -43t-10 -43h-31q-92 0 -120 59q-35 -59 -125 -59h-189q-10 0 -10 42q0 44 10 44h189q39 0 62 20zM252 -126v-79h-264v79h264z" />
    <glyph glyph-name="uni0626.w.medi" horiz-adv-x="465" 
d="M251 106q23 20 23 54v162h83v-160q0 -37 20.5 -56.5t59.5 -19.5h28q10 0 10 -43t-10 -43h-31q-92 0 -120 59q-35 -59 -125 -59h-189q-10 0 -10 42q0 44 10 44h189q39 0 62 20zM145.5 494.5q-15.5 25.5 -15.5 55.5q0 50 31.5 81t83.5 31h50v-54h-49q-28 0 -46 -16.5
t-18 -40.5q0 -26 18 -42.5t42 -16.5q13 0 30.5 7.5t38 18t27.5 14.5l21 -48l-208 -107l-25 49l65 33q-30 10 -45.5 35.5z" />
    <glyph glyph-name="uni06CE.w.medi" horiz-adv-x="465" 
d="M251 106q23 20 23 54v162h83v-160q0 -37 20.5 -56.5t59.5 -19.5h28q10 0 10 -43t-10 -43h-31q-92 0 -120 59q-35 -59 -125 -59h-189q-10 0 -10 42q0 44 10 44h189q39 0 62 20zM252 -126v-79h-264v79h264zM370 620l-96 -200h-48l-96 200l49 22l71 -155l71 155z" />
    <glyph glyph-name="uni0649.w.medi" horiz-adv-x="465" 
d="M251 106q23 20 23 54v162h83v-160q0 -37 20.5 -56.5t59.5 -19.5h28q10 0 10 -43t-10 -43h-31q-92 0 -120 59q-35 -59 -125 -59h-189q-10 0 -10 42q0 44 10 44h189q39 0 62 20z" />
    <glyph glyph-name="uni0628.w.init" horiz-adv-x="485" 
d="M299 105.5q22 19.5 22 54.5v162h84v-163q0 -74 -45 -116.5t-119 -42.5h-241q-10 0 -10 42q0 44 10 44h241q36 0 58 19.5zM89 -209v83h106v-83h-106z" />
    <glyph glyph-name="uni067E.w.init" horiz-adv-x="485" 
d="M299 105.5q22 19.5 22 54.5v162h84v-163q0 -74 -45 -116.5t-119 -42.5h-241q-10 0 -10 42q0 44 10 44h241q36 0 58 19.5zM274 -126v-79h-264v79h264zM98 -342v79h88v-79h-88z" />
    <glyph glyph-name="uni062A.w.init" horiz-adv-x="485" 
d="M299 105.5q22 19.5 22 54.5v162h84v-163q0 -74 -45 -116.5t-119 -42.5h-241q-10 0 -10 42q0 44 10 44h241q36 0 58 19.5zM385 521v-79h-264v79h264z" />
    <glyph glyph-name="uni062B.w.init" horiz-adv-x="485" 
d="M299 105.5q22 19.5 22 54.5v162h84v-163q0 -74 -45 -116.5t-119 -42.5h-241q-10 0 -10 42q0 44 10 44h241q36 0 58 19.5zM299 658v-79h-91v79h91zM385 521v-79h-264v79h264z" />
    <glyph glyph-name="uni0679.w.init" horiz-adv-x="485" 
d="M299 105.5q22 19.5 22 54.5v162h84v-163q0 -74 -45 -116.5t-119 -42.5h-241q-10 0 -10 42q0 44 10 44h241q36 0 58 19.5zM186 663v-117q24 39 53 59.5t60 20.5q37 0 62 -26t25 -66q0 -44 -30.5 -73t-90.5 -29h-124v231h45zM317.5 495.5q17.5 12.5 17.5 36.5q0 19 -12 31
t-30 12q-24 0 -48.5 -24.5t-44.5 -67.5h67q33 0 50.5 12.5z" />
    <glyph glyph-name="uni0646.w.init" horiz-adv-x="485" 
d="M299 105.5q22 19.5 22 54.5v162h84v-163q0 -74 -45 -116.5t-119 -42.5h-241q-10 0 -10 42q0 44 10 44h241q36 0 58 19.5zM239 442v83h106v-83h-106z" />
    <glyph glyph-name="uni06C1.w.init" horiz-adv-x="485" 
d="M146 -300.5q-13 14.5 -13 51.5q0 76 7 108.5t28 46.5t71 24v-56q-29 -6 -39.5 -12t-13.5 -18t-3 -43q31 0 45 -12.5t14 -43.5q0 -32 -13.5 -46t-41.5 -14t-41 14.5zM299 105.5q22 19.5 22 54.5v162h84v-163q0 -74 -45 -116.5t-119 -42.5h-241q-10 0 -10 42q0 44 10 44
h241q36 0 58 19.5z" />
    <glyph glyph-name="uni064A.w.init" horiz-adv-x="485" 
d="M299 105.5q22 19.5 22 54.5v162h84v-163q0 -74 -45 -116.5t-119 -42.5h-241q-10 0 -10 42q0 44 10 44h241q36 0 58 19.5zM274 -126v-79h-264v79h264z" />
    <glyph glyph-name="uni0626.w.init" horiz-adv-x="485" 
d="M299 105.5q22 19.5 22 54.5v162h84v-163q0 -74 -45 -116.5t-119 -42.5h-241q-10 0 -10 42q0 44 10 44h241q36 0 58 19.5zM176.5 494.5q-15.5 25.5 -15.5 55.5q0 50 31.5 81t83.5 31h50v-54h-49q-28 0 -46 -16.5t-18 -40.5q0 -26 18 -42.5t42 -16.5q13 0 30.5 7.5t38 18
t27.5 14.5l21 -48l-208 -107l-25 49l65 33q-30 10 -45.5 35.5z" />
    <glyph glyph-name="uni06CE.w.init" horiz-adv-x="485" 
d="M299 105.5q22 19.5 22 54.5v162h84v-163q0 -74 -45 -116.5t-119 -42.5h-241q-10 0 -10 42q0 44 10 44h241q36 0 58 19.5zM274 -126v-79h-264v79h264zM394 620l-96 -200h-48l-96 200l49 22l71 -155l71 155z" />
    <glyph glyph-name="uni0649.w.init" horiz-adv-x="485" 
d="M299 105.5q22 19.5 22 54.5v162h84v-163q0 -74 -45 -116.5t-119 -42.5h-241q-10 0 -10 42q0 44 10 44h241q36 0 58 19.5z" />
    <glyph glyph-name="uni0631.w" horiz-adv-x="368" 
d="M255 -116q-33 -62 -92.5 -95t-136.5 -33h-70l-8 86h76q85 0 133 49.5t48 137.5v293h83v-293q0 -83 -33 -145z" />
    <glyph glyph-name="uniFEAE.w" horiz-adv-x="385" 
d="M309.5 106q21.5 -20 62.5 -20h13q10 0 10 -44q0 -42 -10 -42h-13q-27 0 -50 9.5t-34 24.5v-12q-1 -80 -34 -140.5t-92 -93t-136 -32.5h-70l-8 86h76q85 0 133 49.5t48 137.5v293h83v-159q0 -37 21.5 -57z" />
    <glyph glyph-name="uni0632.w" horiz-adv-x="368" 
d="M255 -116q-33 -62 -92.5 -95t-136.5 -33h-70l-8 86h76q85 0 133 49.5t48 137.5v293h83v-293q0 -83 -33 -145zM186 442v83h106v-83h-106z" />
    <glyph glyph-name="uniFEB0.w" horiz-adv-x="385" 
d="M309.5 106q21.5 -20 62.5 -20h13q10 0 10 -44q0 -42 -10 -42h-13q-27 0 -50 9.5t-34 24.5v-12q-1 -80 -34 -140.5t-92 -93t-136 -32.5h-70l-8 86h76q85 0 133 49.5t48 137.5v293h83v-159q0 -37 21.5 -57zM186 442v83h106v-83h-106z" />
    <glyph glyph-name="uni0698.w" horiz-adv-x="368" 
d="M255 -116q-33 -62 -92.5 -95t-136.5 -33h-70l-8 86h76q85 0 133 49.5t48 137.5v293h83v-293q0 -83 -33 -145zM285 658v-79h-91v79h91zM371 521v-79h-264v79h264z" />
    <glyph glyph-name="uniFB8B.w" horiz-adv-x="385" 
d="M309.5 106q21.5 -20 62.5 -20h13q10 0 10 -44q0 -42 -10 -42h-13q-27 0 -50 9.5t-34 24.5v-12q-1 -80 -34 -140.5t-92 -93t-136 -32.5h-70l-8 86h76q85 0 133 49.5t48 137.5v293h83v-159q0 -37 21.5 -57zM285 658v-79h-91v79h91zM371 521v-79h-264v79h264z" />
    <glyph glyph-name="uni0691.w" horiz-adv-x="368" 
d="M255 -116q-33 -62 -92.5 -95t-136.5 -33h-70l-8 86h76q85 0 133 49.5t48 137.5v293h83v-293q0 -83 -33 -145zM162 673v-117q24 39 53 59.5t60 20.5q37 0 62 -26t25 -66q0 -44 -30.5 -73t-90.5 -29h-124v231h45zM293.5 505.5q17.5 12.5 17.5 36.5q0 19 -12 31t-30 12
q-24 0 -48.5 -24.5t-44.5 -67.5h67q33 0 50.5 12.5z" />
    <glyph glyph-name="uniFB8D.w" horiz-adv-x="385" 
d="M309.5 106q21.5 -20 62.5 -20h13q10 0 10 -44q0 -42 -10 -42h-13q-27 0 -50 9.5t-34 24.5v-12q-1 -80 -34 -140.5t-92 -93t-136 -32.5h-70l-8 86h76q85 0 133 49.5t48 137.5v293h83v-159q0 -37 21.5 -57zM162 673v-117q24 39 53 59.5t60 20.5q37 0 62 -26t25 -66
q0 -44 -30.5 -73t-90.5 -29h-124v231h45zM293.5 505.5q17.5 12.5 17.5 36.5q0 19 -12 31t-30 12q-24 0 -48.5 -24.5t-44.5 -67.5h67q33 0 50.5 12.5z" />
    <glyph glyph-name="uni0695.w" horiz-adv-x="368" 
d="M255 -116q-33 -62 -92.5 -95t-136.5 -33h-70l-8 86h76q85 0 133 49.5t48 137.5v293h83v-293q0 -83 -33 -145zM271 -315l-96 -200h-48l-96 200l49 22l71 -155l71 155z" />
    <glyph glyph-name="uni0695.fina.w" horiz-adv-x="385" 
d="M309.5 106q21.5 -20 62.5 -20h13q10 0 10 -44q0 -42 -10 -42h-13q-27 0 -50 9.5t-34 24.5v-12q-1 -80 -34 -140.5t-92 -93t-136 -32.5h-70l-8 86h76q85 0 133 49.5t48 137.5v293h83v-159q0 -37 21.5 -57zM271 -315l-96 -200h-48l-96 200l49 22l71 -155l71 155z" />
    <glyph glyph-name="uni06AF.swsh" horiz-adv-x="1135" 
d="M452 724l29 -47l-289 -212v69zM944.5 109q27.5 23 27.5 80t-27 81t-96 24h-657v81l331 242l44 -69l-242 -171h529q103 0 152 -45.5t49 -142.5q0 -189 -204 -189h-763l-8 86h771q66 0 93.5 23z" />
    <glyph glyph-name="uni06AF.swsh.fina" horiz-adv-x="1152" 
d="M452 724l29 -47l-289 -212v69zM944.5 109q27.5 23 27.5 80t-27 81t-96 24h-657v81l331 242l44 -69l-242 -171h529q103 0 152 -45.5t49 -142.5q0 -49 -13 -79q12 -13 33 -18.5t58 -5.5h19q10 0 10 -44q0 -42 -10 -42h-19q-98 0 -134 44q-50 -44 -148 -44h-763l-8 86h771
q66 0 93.5 23z" />
    <glyph glyph-name="uni06AF.swsh.medi" horiz-adv-x="1066" 
d="M107 534l259 190l30 -47l-289 -212v69zM859.5 109q27.5 23 27.5 80t-27 81t-96 24h-657v81l330 242l45 -69l-242 -171h529q103 0 152 -45.5t49 -142.5q0 -50 -14 -79q13 -13 34 -18.5t58 -5.5h18q10 0 10 -44q0 -42 -10 -42h-18q-99 0 -134 44q-50 -44 -148 -44h-766
q-10 0 -10 42q0 44 10 44h766q66 0 93.5 23z" />
    <glyph glyph-name="uni06AF.swsh.init" horiz-adv-x="1050" 
d="M107 534l259 190l30 -47l-289 -212v69zM859.5 109q27.5 23 27.5 80t-27 81t-96 24h-657v81l330 242l45 -69l-242 -171h529q103 0 152 -45.5t49 -142.5q0 -189 -204 -189h-766q-10 0 -10 42q0 44 10 44h766q66 0 93.5 23z" />
    <glyph glyph-name="uni06AC.swsh" horiz-adv-x="1135" 
d="M944.5 109q27.5 23 27.5 80t-27 81t-96 24h-657v81l331 242l44 -69l-242 -171h529q103 0 152 -45.5t49 -142.5q0 -189 -204 -189h-763l-8 86h771q66 0 93.5 23zM192 546v83h106v-83h-106z" />
    <glyph glyph-name="uni06AC.swsh.fina" horiz-adv-x="1152" 
d="M944.5 109q27.5 23 27.5 80t-27 81t-96 24h-657v81l331 242l44 -69l-242 -171h529q103 0 152 -45.5t49 -142.5q0 -49 -13 -79q12 -13 33 -18.5t58 -5.5h19q10 0 10 -44q0 -42 -10 -42h-19q-98 0 -134 44q-50 -44 -148 -44h-763l-8 86h771q66 0 93.5 23zM192 546v83h106
v-83h-106z" />
    <glyph glyph-name="uni06AC.swsh.medi" horiz-adv-x="1066" 
d="M859.5 109q27.5 23 27.5 80t-27 81t-96 24h-657v81l330 242l45 -69l-242 -171h529q103 0 152 -45.5t49 -142.5q0 -50 -14 -79q13 -13 34 -18.5t58 -5.5h18q10 0 10 -44q0 -42 -10 -42h-18q-99 0 -134 44q-50 -44 -148 -44h-766q-10 0 -10 42q0 44 10 44h766q66 0 93.5 23
zM107 546v83h106v-83h-106z" />
    <glyph glyph-name="uni06AC.swsh.init" horiz-adv-x="1050" 
d="M859.5 109q27.5 23 27.5 80t-27 81t-96 24h-657v81l330 242l45 -69l-242 -171h529q103 0 152 -45.5t49 -142.5q0 -189 -204 -189h-766q-10 0 -10 42q0 44 10 44h766q66 0 93.5 23zM107 546v83h106v-83h-106z" />
    <glyph glyph-name="zero.tnum" horiz-adv-x="730" 
d="M460.5 460.5q45.5 -27.5 73 -72t27.5 -93.5t-27.5 -94t-73 -72.5t-94.5 -27.5t-94.5 28t-73.5 72.5t-28 93.5t28 93.5t73.5 72t94.5 27.5t94.5 -27.5zM420.5 197.5q26.5 16.5 43.5 43t17 54.5q0 27 -17 53.5t-43.5 43t-54.5 16.5t-55 -16.5t-44 -43t-17 -53.5
q0 -28 17 -54.5t44 -43t55 -16.5t54.5 16.5z" />
    <glyph glyph-name="one.tnum" horiz-adv-x="730" 
d="M338 434q-10 72 -40 175l81 28q31 -102 41.5 -177.5t10.5 -194.5v-265h-83v264q0 98 -10 170z" />
    <glyph glyph-name="two.tnum" horiz-adv-x="730" 
d="M345.5 318q-20.5 8 -30.5 23q1 -22 1 -76v-265h-83v264q0 98 -10 170t-40 175l80 28l45 -175q18 -66 79 -66q32 0 54.5 20t22.5 50q0 38 -19 153l83 18q20 -123 20 -172q0 -44 -20 -79.5t-55.5 -55.5t-79.5 -20q-27 0 -47.5 8z" />
    <glyph glyph-name="three.tnum" horiz-adv-x="730" 
d="M435 465q0 -13 -4 -33q26 -36 69 -36q31 0 53 20t22 50q0 38 -19 153l82 18q20 -114 20 -172q0 -44 -20 -79.5t-54.5 -55.5t-77.5 -20q-36 0 -65.5 13t-46.5 36q-16 -23 -46 -36t-67 -13q-27 0 -47.5 8t-30.5 23q1 -22 1 -76v-265h-83v264q0 98 -10 170t-40 175l80 28
l45 -175q18 -66 79 -66q32 0 54.5 20t22.5 50q0 38 -19 153l83 18q19 -117 19 -172z" />
    <glyph glyph-name="four.tnum" horiz-adv-x="730" 
d="M289 407.5q-8 26.5 -8 53.5q0 48 24.5 88.5t67 64t94.5 23.5q59 0 125 -30l-23 -76q-54 23 -99 23q-47 0 -76.5 -29t-29.5 -71q0 -44 24.5 -73.5t58.5 -29.5q66 0 152 38l22 -76q-103 -48 -205 -48q-57 0 -102.5 13.5t-72.5 35.5q1 -18 1 -58v-256h-83v264q0 98 -10 170
t-40 175l80 28q25 -90 44 -199q5 -27 22.5 -46t56.5 -29q-15 18 -23 44.5z" />
    <glyph glyph-name="five.tnum" horiz-adv-x="730" 
d="M141 340.5q50 87.5 165 199.5l-48 42l52 63q125 -98 196.5 -174t102.5 -143t31 -138q0 -57 -22 -100.5t-59.5 -66.5t-82.5 -23q-40 0 -69.5 12t-46.5 33q-17 -21 -46.5 -33t-65.5 -12q-74 0 -115.5 46t-41.5 127q0 80 50 167.5zM511.5 332q-45.5 70 -146.5 156
q-98 -90 -144.5 -164.5t-46.5 -145.5q0 -46 20.5 -69t59.5 -23t60.5 23t21.5 63v69h75v-67q0 -34 -8 -58q23 -30 73 -30q35 0 58 27.5t23 74.5q0 74 -45.5 144z" />
    <glyph glyph-name="six.tnum" horiz-adv-x="730" 
d="M289 -8l-70 39q36 65 83 132.5t92 116.5q-20 -7 -46 -7q-81 0 -126.5 46t-45.5 123q0 52 24 97t65.5 71.5t90.5 26.5q33 0 61.5 -7.5t61.5 -24.5l-29 -69q-45 18 -91 18q-42 0 -71 -30.5t-29 -73.5q0 -46 27 -70t79 -24q69 0 150 39l39 -60q-135 -112 -265 -343z" />
    <glyph glyph-name="seven.tnum" horiz-adv-x="730" 
d="M245 316q-53 142 -139 277l69 49q72 -113 121 -236.5t71 -248.5q46 269 186 485l71 -49q-81 -124 -133.5 -266.5t-86.5 -326.5h-78q-28 174 -81 316z" />
    <glyph glyph-name="eight.tnum" horiz-adv-x="730" 
d="M486.5 317.5q52.5 -142.5 137.5 -275.5l-68 -50q-73 114 -122 237.5t-70 247.5q-49 -273 -186 -485l-72 50q81 123 134 265.5t87 326.5h78q29 -174 81.5 -316.5z" />
    <glyph glyph-name="nine.tnum" horiz-adv-x="730" 
d="M347 260q-81 0 -125 42.5t-44 119.5q0 56 25 105.5t68.5 79.5t96.5 30q89 0 137 -69.5t48 -199.5v-368h-83v283q-50 -23 -123 -23zM444 509q-26 45 -81 45q-43 0 -72.5 -36t-29.5 -90q0 -40 24.5 -61t70.5 -21q71 0 114 24q0 94 -26 139z" />
    </font>
</defs>
</svg>
